<mxfile modified="2022-04-01T06:33:21.935Z" host="app.diagrams.net" agent="5.0 (Macintosh; Intel Mac OS X 10_15_7) AppleWebKit/537.36 (KHTML, like Gecko) Chrome/99.0.4844.51 Safari/537.36" etag="HWQANuT8MT8-Vu07KzwT" version="16.6.7" type="github">
  <diagram id="Ht1M8jgEwFfnCIfOTk4-" name="Page-1">
    <mxGraphModel dx="2595" dy="891" grid="1" gridSize="10" guides="1" tooltips="1" connect="1" arrows="1" fold="1" page="1" pageScale="1" pageWidth="1169" pageHeight="827" math="0" shadow="0">
      <root>
        <mxCell id="0" />
        <mxCell id="1" parent="0" />
        <mxCell id="TAwjUYhkwjsrUPqyEh9c-29" value="" style="rounded=0;whiteSpace=wrap;html=1;fillColor=none;" vertex="1" parent="1">
          <mxGeometry x="410" y="280" width="540" height="310" as="geometry" />
        </mxCell>
        <mxCell id="TAwjUYhkwjsrUPqyEh9c-13" value="" style="rounded=0;whiteSpace=wrap;html=1;fillColor=none;" vertex="1" parent="1">
          <mxGeometry x="394" y="80" width="330" height="150" as="geometry" />
        </mxCell>
        <mxCell id="TAwjUYhkwjsrUPqyEh9c-22" value="" style="edgeStyle=orthogonalEdgeStyle;rounded=0;orthogonalLoop=1;jettySize=auto;html=1;" edge="1" parent="1" source="TAwjUYhkwjsrUPqyEh9c-2" target="TAwjUYhkwjsrUPqyEh9c-13">
          <mxGeometry relative="1" as="geometry" />
        </mxCell>
        <mxCell id="TAwjUYhkwjsrUPqyEh9c-37" value="" style="edgeStyle=orthogonalEdgeStyle;rounded=0;orthogonalLoop=1;jettySize=auto;html=1;entryX=0;entryY=0.5;entryDx=0;entryDy=0;" edge="1" parent="1" source="TAwjUYhkwjsrUPqyEh9c-2" target="TAwjUYhkwjsrUPqyEh9c-35">
          <mxGeometry relative="1" as="geometry" />
        </mxCell>
        <mxCell id="TAwjUYhkwjsrUPqyEh9c-2" value="" style="sketch=0;points=[[0,0,0],[0.25,0,0],[0.5,0,0],[0.75,0,0],[1,0,0],[0,1,0],[0.25,1,0],[0.5,1,0],[0.75,1,0],[1,1,0],[0,0.25,0],[0,0.5,0],[0,0.75,0],[1,0.25,0],[1,0.5,0],[1,0.75,0]];outlineConnect=0;fontColor=#232F3E;gradientColor=#4AB29A;gradientDirection=north;fillColor=#116D5B;strokeColor=#ffffff;dashed=0;verticalLabelPosition=bottom;verticalAlign=top;align=center;html=1;fontSize=12;fontStyle=0;aspect=fixed;shape=mxgraph.aws4.resourceIcon;resIcon=mxgraph.aws4.sagemaker;" vertex="1" parent="1">
          <mxGeometry x="520" y="320.25" width="78" height="78" as="geometry" />
        </mxCell>
        <mxCell id="TAwjUYhkwjsrUPqyEh9c-3" value="" style="sketch=0;outlineConnect=0;fontColor=#232F3E;gradientColor=none;fillColor=#067F68;strokeColor=none;dashed=0;verticalLabelPosition=bottom;verticalAlign=top;align=center;html=1;fontSize=12;fontStyle=0;aspect=fixed;pointerEvents=1;shape=mxgraph.aws4.sagemaker_train;" vertex="1" parent="1">
          <mxGeometry x="500" y="160" width="48" height="40" as="geometry" />
        </mxCell>
        <mxCell id="TAwjUYhkwjsrUPqyEh9c-12" style="edgeStyle=orthogonalEdgeStyle;rounded=0;orthogonalLoop=1;jettySize=auto;html=1;" edge="1" parent="1" source="TAwjUYhkwjsrUPqyEh9c-6" target="TAwjUYhkwjsrUPqyEh9c-2">
          <mxGeometry relative="1" as="geometry" />
        </mxCell>
        <mxCell id="TAwjUYhkwjsrUPqyEh9c-6" value="" style="shape=image;html=1;verticalAlign=top;verticalLabelPosition=bottom;labelBackgroundColor=#ffffff;imageAspect=0;aspect=fixed;image=https://cdn0.iconfinder.com/data/icons/octicons/1024/git-pull-request-128.png" vertex="1" parent="1">
          <mxGeometry x="320" y="319" width="79.25" height="79.25" as="geometry" />
        </mxCell>
        <mxCell id="TAwjUYhkwjsrUPqyEh9c-11" value="" style="edgeStyle=orthogonalEdgeStyle;rounded=0;orthogonalLoop=1;jettySize=auto;html=1;" edge="1" parent="1" source="TAwjUYhkwjsrUPqyEh9c-8" target="TAwjUYhkwjsrUPqyEh9c-6">
          <mxGeometry relative="1" as="geometry" />
        </mxCell>
        <mxCell id="TAwjUYhkwjsrUPqyEh9c-8" value="" style="shape=image;html=1;verticalAlign=top;verticalLabelPosition=bottom;labelBackgroundColor=#ffffff;imageAspect=0;aspect=fixed;image=https://cdn0.iconfinder.com/data/icons/social-media-2104/24/social_media_social_media_logo_git-128.png" vertex="1" parent="1">
          <mxGeometry x="160.5" y="320.25" width="78" height="78" as="geometry" />
        </mxCell>
        <mxCell id="TAwjUYhkwjsrUPqyEh9c-10" value="" style="edgeStyle=orthogonalEdgeStyle;rounded=0;orthogonalLoop=1;jettySize=auto;html=1;" edge="1" parent="1" source="TAwjUYhkwjsrUPqyEh9c-9" target="TAwjUYhkwjsrUPqyEh9c-8">
          <mxGeometry relative="1" as="geometry" />
        </mxCell>
        <mxCell id="TAwjUYhkwjsrUPqyEh9c-9" value="" style="html=1;verticalLabelPosition=bottom;align=center;labelBackgroundColor=#ffffff;verticalAlign=top;strokeWidth=2;strokeColor=#0080F0;shadow=0;dashed=0;shape=mxgraph.ios7.icons.user;" vertex="1" parent="1">
          <mxGeometry y="324" width="70" height="70.5" as="geometry" />
        </mxCell>
        <mxCell id="TAwjUYhkwjsrUPqyEh9c-14" value="" style="outlineConnect=0;dashed=0;verticalLabelPosition=bottom;verticalAlign=top;align=center;html=1;shape=mxgraph.aws3.s3;fillColor=#E05243;gradientColor=none;" vertex="1" parent="1">
          <mxGeometry x="539" y="80" width="40" height="40" as="geometry" />
        </mxCell>
        <mxCell id="TAwjUYhkwjsrUPqyEh9c-15" value="" style="sketch=0;outlineConnect=0;fontColor=#232F3E;gradientColor=none;fillColor=#3F8624;strokeColor=none;dashed=0;verticalLabelPosition=bottom;verticalAlign=top;align=center;html=1;fontSize=12;fontStyle=0;aspect=fixed;pointerEvents=1;shape=mxgraph.aws4.bucket_with_objects;" vertex="1" parent="1">
          <mxGeometry x="421.54" y="160" width="38.46" height="40" as="geometry" />
        </mxCell>
        <mxCell id="TAwjUYhkwjsrUPqyEh9c-16" value="" style="sketch=0;outlineConnect=0;fontColor=#232F3E;gradientColor=none;fillColor=#067F68;strokeColor=none;dashed=0;verticalLabelPosition=bottom;verticalAlign=top;align=center;html=1;fontSize=12;fontStyle=0;aspect=fixed;pointerEvents=1;shape=mxgraph.aws4.sagemaker_model;" vertex="1" parent="1">
          <mxGeometry x="590" y="162" width="38" height="38" as="geometry" />
        </mxCell>
        <mxCell id="TAwjUYhkwjsrUPqyEh9c-19" value="" style="sketch=0;outlineConnect=0;fontColor=#232F3E;gradientColor=none;fillColor=#4D27AA;strokeColor=none;dashed=0;verticalLabelPosition=bottom;verticalAlign=top;align=center;html=1;fontSize=12;fontStyle=0;aspect=fixed;pointerEvents=1;shape=mxgraph.aws4.flow_logs;" vertex="1" parent="1">
          <mxGeometry x="660" y="162" width="43" height="43" as="geometry" />
        </mxCell>
        <mxCell id="TAwjUYhkwjsrUPqyEh9c-23" value="Data and features" style="text;html=1;strokeColor=none;fillColor=none;align=center;verticalAlign=middle;whiteSpace=wrap;rounded=0;" vertex="1" parent="1">
          <mxGeometry x="410.77" y="200" width="60" height="30" as="geometry" />
        </mxCell>
        <mxCell id="TAwjUYhkwjsrUPqyEh9c-24" value="Experiment metrics" style="text;html=1;strokeColor=none;fillColor=none;align=center;verticalAlign=middle;whiteSpace=wrap;rounded=0;" vertex="1" parent="1">
          <mxGeometry x="488" y="200" width="60" height="30" as="geometry" />
        </mxCell>
        <mxCell id="TAwjUYhkwjsrUPqyEh9c-25" value="Model" style="text;html=1;strokeColor=none;fillColor=none;align=center;verticalAlign=middle;whiteSpace=wrap;rounded=0;" vertex="1" parent="1">
          <mxGeometry x="579" y="205" width="60" height="20" as="geometry" />
        </mxCell>
        <mxCell id="TAwjUYhkwjsrUPqyEh9c-26" value="Logs" style="text;html=1;strokeColor=none;fillColor=none;align=center;verticalAlign=middle;whiteSpace=wrap;rounded=0;" vertex="1" parent="1">
          <mxGeometry x="651.5" y="200" width="60" height="30" as="geometry" />
        </mxCell>
        <mxCell id="TAwjUYhkwjsrUPqyEh9c-28" value="S3 Bucket for versioning data, metrics, model, logs" style="text;html=1;strokeColor=none;fillColor=none;align=center;verticalAlign=middle;whiteSpace=wrap;rounded=0;" vertex="1" parent="1">
          <mxGeometry x="414" y="110" width="290" height="40" as="geometry" />
        </mxCell>
        <mxCell id="TAwjUYhkwjsrUPqyEh9c-30" value="Uses github repository" style="text;html=1;strokeColor=none;fillColor=none;align=center;verticalAlign=middle;whiteSpace=wrap;rounded=0;" vertex="1" parent="1">
          <mxGeometry x="80" y="320" width="80" height="29" as="geometry" />
        </mxCell>
        <mxCell id="TAwjUYhkwjsrUPqyEh9c-31" value="Pull Request with changes" style="text;html=1;strokeColor=none;fillColor=none;align=center;verticalAlign=middle;whiteSpace=wrap;rounded=0;" vertex="1" parent="1">
          <mxGeometry x="240" y="319" width="80" height="29" as="geometry" />
        </mxCell>
        <mxCell id="TAwjUYhkwjsrUPqyEh9c-32" value="CI Action trigger training job in either sagemaker or local cluster" style="text;html=1;strokeColor=none;fillColor=none;align=center;verticalAlign=middle;whiteSpace=wrap;rounded=0;" vertex="1" parent="1">
          <mxGeometry x="420" y="300" width="80" height="29" as="geometry" />
        </mxCell>
        <mxCell id="TAwjUYhkwjsrUPqyEh9c-38" value="" style="edgeStyle=orthogonalEdgeStyle;rounded=0;orthogonalLoop=1;jettySize=auto;html=1;" edge="1" parent="1" source="TAwjUYhkwjsrUPqyEh9c-35" target="TAwjUYhkwjsrUPqyEh9c-36">
          <mxGeometry relative="1" as="geometry" />
        </mxCell>
        <mxCell id="TAwjUYhkwjsrUPqyEh9c-35" value="Get Dataset" style="whiteSpace=wrap;html=1;align=center;verticalAlign=middle;treeFolding=1;treeMoving=1;fillColor=none;" vertex="1" parent="1">
          <mxGeometry x="449" y="454" width="100" height="60" as="geometry" />
        </mxCell>
        <mxCell id="TAwjUYhkwjsrUPqyEh9c-40" value="" style="edgeStyle=orthogonalEdgeStyle;rounded=0;orthogonalLoop=1;jettySize=auto;html=1;" edge="1" parent="1" source="TAwjUYhkwjsrUPqyEh9c-36" target="TAwjUYhkwjsrUPqyEh9c-39">
          <mxGeometry relative="1" as="geometry" />
        </mxCell>
        <mxCell id="TAwjUYhkwjsrUPqyEh9c-36" value="Extract Features" style="whiteSpace=wrap;html=1;align=center;verticalAlign=middle;treeFolding=1;treeMoving=1;fillColor=none;" vertex="1" parent="1">
          <mxGeometry x="569" y="454" width="100" height="60" as="geometry" />
        </mxCell>
        <mxCell id="TAwjUYhkwjsrUPqyEh9c-42" value="" style="edgeStyle=orthogonalEdgeStyle;rounded=0;orthogonalLoop=1;jettySize=auto;html=1;" edge="1" parent="1" source="TAwjUYhkwjsrUPqyEh9c-39" target="TAwjUYhkwjsrUPqyEh9c-41">
          <mxGeometry relative="1" as="geometry" />
        </mxCell>
        <mxCell id="TAwjUYhkwjsrUPqyEh9c-39" value="Train Model" style="whiteSpace=wrap;html=1;align=center;verticalAlign=middle;treeFolding=1;treeMoving=1;fillColor=none;" vertex="1" parent="1">
          <mxGeometry x="700" y="454" width="100" height="60" as="geometry" />
        </mxCell>
        <mxCell id="TAwjUYhkwjsrUPqyEh9c-41" value="Create Metric" style="whiteSpace=wrap;html=1;align=center;verticalAlign=middle;treeFolding=1;treeMoving=1;fillColor=none;" vertex="1" parent="1">
          <mxGeometry x="820" y="454" width="100" height="60" as="geometry" />
        </mxCell>
        <mxCell id="TAwjUYhkwjsrUPqyEh9c-44" value="create reproducible AI training pipeline using template dvc.yml&amp;nbsp;" style="text;html=1;strokeColor=none;fillColor=none;align=center;verticalAlign=middle;whiteSpace=wrap;rounded=0;" vertex="1" parent="1">
          <mxGeometry x="448" y="530" width="442" height="30" as="geometry" />
        </mxCell>
        <mxCell id="TAwjUYhkwjsrUPqyEh9c-48" value="" style="shape=image;verticalLabelPosition=bottom;labelBackgroundColor=default;verticalAlign=top;aspect=fixed;imageAspect=0;image=data:image/png,iVBORw0KGgoAAAANSUhEUgAAAggAAAFQCAYAAADayYZkAAAAAXNSR0IArs4c6QAAIABJREFUeF7svfeTHdeVJvhlPlsOVfCgAUFPECRoJIpeorxryrVapic6enc75k/ZXzcmYidie3oiZqa3p9WrljSyFEVRokiCoCdIECBAA0uChC1vn83cOPfck3nzvsx8r6pQQAG4GaIK9SpfmpM37/nud75zjvfwzsdDuM1ZwFnAWcBZwFnAWcBZwLCA5wCCGw/OAs4CzgLOAs4CzgK2BRxAcGPCWcBZwFnAWcBZwFmgwwIOILhB4SzgLOAs4CzgLOAs4ACCGwPOAs4CzgLOAs4CzgLdLeAYhO42cns4CzgLOAs4CzgLXHEWcADhinvk7oadBZwFnAWcBZwFulvAAYTuNnJ7OAs4CzgLOAs4C1xxFnAA4Yp75O6GnQWcBZwFnAWcBbpbwAGE7jZyezgLOAs4CzgLOAtccRZwAOGKe+Tuhp0FnAWcBZwFnAW6W8ABhO42cns4CzgLOAs4CzgLXHEWcADhinvk7oadBZwFnAWcBZwFulvAAYTuNnJ7OAs4CzgLOAs4C1xxFnAA4Yp75O6GnQWcBZwFnAWcBbpbwAGE7jZyezgLOAs4CzgLOAtccRZwAOGKe+SX5g17nqcuPAzV/yduQv5mfhjyjm5zFnAWcBZwFliiBRxAWKLh3NfOvwWCEGhbh2VYsLTNhAh0nAIAjTOWdkD3LWcBZwFngSvIAg4gXEEPezXcahCGaIPdvjh/cd5FD+jzgaIXYsALUPJCDHoBigjR7zfgWcxB2v20wgLmw7L6UyME5kIfTQDT7QIWQsAEIQIgHHhYDSPDXYOzgLPAarOAAwir7YlcRtdDNH8rggEMCEoeMOQDI4U2RrwWhv061npNjPhtVPwQm4oeBrwGBrwWiiCQEMBHiLLX6m4Zz0erUEYzJK4AaHs+Gn4JjTYwVithKihgJggwHlYx3goxFZQwGRYx1fYwHzB7QaDB1/85tqG7yd0ezgLOApevBRxAuHyf7UW5s6bB6wsYuKHYwIhfwzqvidsqbaz3FzDgt1FFG1WviYrXQlUBAaCKEEWvhQIChGEywECHzlUW+EWgXIrv2y8gLJYVa9BsEZPgKVahhrJiE2qFKmqhh+mGh0/mSvikVcDJlofT7QrGWx7m9MnyAANJHRyQuChDzZ3UWcBZYIUt4ADCChv4cj88AQJx2mXNDlxfbOCGwgw2Fpu4pdTEpkINFTTR57Uw4gUoexQuIABArndxmzqX4AYTLfg+gmIZnm+CCg8olhD6zChEm+cjKJUATzMNATDf9DHrlTDrFXEurOKjuQKOTxYVaPi41cZU4KEdUHiENzqNddTF3Yjb21nAWcBZYJVbwAGEVf6AVuPltSiWT+EChBgueNimAcHNFQ+b/VlsLNQx4i0oZmDIa8HvMaHA8xg00M/8jUBAmAQYBBDKFQsIEINQBDwDiFjggL4Q+j5QKCEgKsDz0IKPhZaP2VYJcyjiXNvDeKuA0Vkfx6baONEMcKrFmgYCDAXCIZ4HM3OC/p2WXbEan6e7JmcBZwFngTQLOIDgxkVPFhBQQK55fSHEneVZbC/O4cZSG1cVFxQgWOMFqHj1TEAgAECRAF1BQPZlCYhIMBBpAEGHGEzmICwUgaAFeEUGD3wxCAkc+EUEhZgXUPsWyqB7b4Ue6k0f0y0fZ1sejrUqOD5VwOGJOk4025gPPCWiLHieAgYuzbKnYeV2chZwFljFFnAAYRU/nIt9aRRfJ+dIoGCkGOKGYhP3liexo7yAa4vzGPFqGCAhYUdyovjdOIywHEBg22HJAIHYgkKRQw7EKkhtBd9HWCgxSBBBgV9U+5rsAzEN9Fkr8LCAAuYbPqabwKFmCe+fBQ4psNDCfBiDBfPapTSD0yxc7JHtzu8s4CzQiwUcQOjFSlfYPgQKyJlVCx5uLdVxW3EO95Tnsa04j42FOQyhiUKKXLD3EMHyDJoKEGj9XqSQgiFSJGhTKCjnn9iIWaD/CABoBoGAAAGAIPqMwQCxCrIlvqM/pGPP+2XM1IDpRhuHawXsP7WAdybbON3y0QpDFEKgsHi5xfKM5L7tLOAs4CywTAs4gLBMA15OX1fAAMDaAnBXeQ6PVOdxW3FKZR2s8RqoZDAFYoPzyRLk2TUVIJC2oFxOphSQ0yfAYGsQlC6BWARdnVGAgcEq0PklxKD+rdmDWCFJn+kwhUEJzHslTNUDnJys4cN6EW+fa+LAREulUnohixsdg3A5vTXuXpwFLl8LOIBw+T7bnu5MwghFH7imGODe0hQeqs7gxuIsNvoNVNFACKbMyZ2eLx1BTxeXsdNyQgzK2VNmQ4JVIP2Bp1iFiEGwAAIBAw5PWIJHpVNg3UKofpKewUc7DFFre5hqhDgwFeK9T9p4a7KBk40W2iGJGhksqO9pEacDDssZFe67zgLOAufbAg4gnG+LXiLHM4HB7aUmHqhM4L7KDK4pzGHE4xAC1SJQDszILKTfLzZIWBZA0OmQSW2BFicmNAgSrogBgR1i6GAQSJyowxcmTTCPIubqHqZqTRyaaeGZ4ws4NNXCQsAZEInMzEtk/LjLdBZwFrj8LeAAwuX/jDvukEIJ5PZuLzfxUHUCD5UncU2RtAVc95AqF+ZtF0prkHUNPQMElZnQqUHoZBDopkmDYDIIxBiUANEkqDCDoVtQSIl1Cswc6M3zEND3EkwD6SNIB+FhoQ2Mzrfx7ngDL50IcGB8AdMtSqyMww+cAUHZEFfg4HS37CzgLLBqLOAAwqp5FCt/IQQMaMW6vdTEQ5UJPFxhYNCPti4vHBiFkbOv55IBCOLQTQ1CKoOggYHNIKjvkdCRMx8khCCWYXBAegatZSgU4YUhAgIHZnGmCETEHn8hLGCi7uHA2Xm8+GETBycIKDQjoKCYGwcUVv6lcGdwFnAWyLSAAwhXwOBQqYphiO2VFh6pTOLhyoQKJfR7BAzCiDFYzIKVQYJuukTquwu49cwg2HUQFEtQhBe0tMPX2Q0UGqBCSSYToDUHKovBAABmVUaVGim1FBSjoEMMBuvAZvEQqsqNpn6Bz0mMwlQtwLF5H395fxZ7z0xhtk2lpulwUhDKFV26gMPLncpZwFlACNGHdz5+YWd3Z/oLZgFV3CgErikH+FJlHF+ojuNaAxiw7JBKBtO/eBgQhyCCxLwLvZgswpIBghYSskAxTidQ7AAJF01OX9VBIKcew6YODYINEMh+BBiM1EgVolANGygcYYQihH3QRm6GHsZrHo7MBHj23Wm8fW4KMy0HFC7Yy+JO5CzgLNBhAccgXKaDgsDBUAF4pDyJr/ZPYntxCkMeUdihggMECkiCKP/upZWyaaqLKVTsGSAQCNDO37x2Xvkn6yVQDQWlHZBNsQGUocCf2SEGrqHAIEMcv9pf7cvnZfKAKzQmwIH+XAEQQ6sQUudJ+JiYb+GdTybxwrEG3hmbwWwQoOh7KvwQEOJTkonF8D2X6SB3t+Us4CywohZwAGFFzXvhD64EiB5wW6mFb/dP4oHyWazza6p1smwCDpTDiUBCUn/QC5PgedQPQcIM3fonnD9b9AQQVA2Ecuyk2auqhk4mexA5f5NBkCqKNsuQCB3otEdiBYRl0GCBwxDagVtMgbogSZc0Qg4qI8LQLdQo9FAHDpwYxQtHG9g/PoO5IEDJ9xXDQ0DBgYTzN6bckZwFnAU6LeAAwmUyKkjQRv0Cri4F+HKVwgljuL6wgKJHrj4OIajFq5G6SIwCuXb6SZ/3AgzEZHGYoWsj5vNq5Z4AgrpRro4oLEC04ictgoAHXuarKowxg6CZAXLYEavATEGuBiEtxBDpFwy2QH3GACNmECj7wSjtrPUM9VaA6YUQ75w4h9+/N4HDk3UlgvQVmHBA4bwOLHcwZwFngYQFHEC4DAaEZCfcW5nHd/omVL+EQa+uVrZ+SCLEztW9sAjKUWnQIPsJed0NLJhhBuVml9GAaTGPoSeA0CODIPoDxSR09GFgRx6xDLoQkvrdymDgfXQowdQyRL0fjJBAymc2g6DCFUb4YaHtYXKujj8cmsDuD6cxOjkLTwEF3zWGWszgcfs6CzgL9GwBBxB6NtXq3JGq8l1VbOOLfZP4UmUU1ynWgBkDmzkw70BYBPpMdAkEEEwWQdiGvDu/GCxCTwBBGASi8SO9QcwMJDQISkBIfRhEg9DJIHTWQIhZgEhfoIGBYgIMDYKtNYizImJWgZtFGUWZrEZRnCFRwmS9jSOjc3j9xBR2Hx7DbK0OT5/LtZhene+ouypngUvVAg4gXKpPLiSxIXBLuYW/7p/Ag+VzWOMzayBBBD8McoseMTDgokkEDQQgmJUTF8MirD4GIZmtwBoE+cyqkJjQIEhBJLPjY7JIUoItSEuDTLAIVNrZymBQHSVjCNYNIDDI4GM02wFmqTHU2Vk8vXcMe8+MoWEIFx1QuFRfanfdzgKrywIOIKyu59HT1ZCQfaQQ4v7yDL7eN4bbSzOoem1FkZs5q4Uw0AAgqUGQk0jVRNYgMEhgRoG+11u6o3JxqiYCO9wLARJ6ZhAog4EctTADuhBS6MVdH5WmQFP5cR8GyjzwQftJJcU0BkE59bwqilkpjnIdRhghDyDQ3zx6llZNhmYQYmKujSf2f4zdR0YxMbMAT/pChK52Qk8vk9vJWcBZINMCDiBcQoODnX+IqwoB/mpgDl+onMVGfxYFVaioM1GRAIJ8mpXGaGoRPAUM/IhJ6NU0F7omQk8AQTo56lADIx8KI1DHRxYwakQTl1iONAhSntmqlWCWXU7TICgRY1xYSbE59GjscsxpGoS8EAMBGgPIRNet6zRMNAIc+XgUf3zzHA6MT2K+2VLaBDVaHFDodRi7/ZwFnAUsCziAcAkMCQUMVP+EEDsr8/hW/zQ+VZ7CIPVO8Nsd0IBCC+To1Ze02IAaL6WBBA5ICDCgjIY41CCmWW1hhp4AggADs39CtHKP+zOoLAedlhhXUtTllaXWgRRYMgsgZfRhUNbU2QkkZKSVP7WWTjIN3MMhUQMhByAwgxAySEikVOpCTp6HRgBMzLex9+wcfvvaEZwZm9YprIKDXN2ES+BVd5foLLCqLOAAwqp6HMmLkTbABBAqPvBAZQbf7T+H7cV5KDmdT4GAdMfPfxaNAWcyUGFlTmdMFs800x7NjAZxKfJZHlC4kGGGngCCOGUFCoQtoPRGXTHRYhBUVoLJICT6MHCJ5mRVxSKXWTYrLRK9r8IaMTuhTF00ahyo8xAoiTMkFP4zAAKzBWYDKA0obBFjYh9uCDXfCjE+OYOn9n2MXYfOYrbW0iWbHZuwil91d2nOAqvSAg4grMrHwhelqgtovcHn+6bwzYExXFeow2tTfDmE73WyB2m3QxGIAtrMTGd0apRMBvo7QQgRLNJ3BBjw99O3Cxlm6AkgqCqKJDLUzlVdvKedM30WV02k1T0XUNKbcuDJcIECEIZD7ujDoI9vd3JkpiC58jdrIKhj0kO2gIUdqghVaMSwvtyXCVBK+h7CEGMNYM+JCfzhzQ9x8sw4KBWWAafTJqziV95dmrPAqrKAAwir6nFYFxMCW0ptfKN/Dl+ojmK9v6BctyrtjxAF1WyJHX/eJtkMHD7IEywGoLwH2dKyGrLOs+oYhERoQd+TKpBU4pJQshrXbZ45NKBX7dIiOlHp0MpiSOnDENVGMIyk0ikVAGCwojazuqJkQFANBf137hBppjxKOqTRF8JMpdTnCwUgaLAyGxYwPjGDp9/+EC8dOoephXpc18FpE7q9Nu7vzgJXvAUcQFitQyAEbio18fjAtGrNvIYKH+nKBgoUhB58n0odc+ZAWjEk89Yohk3fJyYhW7DIAMFmEbppEKKF9wXKZuiNQaAYC4UBOvsrpH2mwEEU3xeNAPdWoC3JIEgPhmSPBaU9sDo5qnORszdX+vSZyUZYZZZtgMAahmQ4I2JG0hiE6IH4aBdKGJ+rY89H43h674f4+MwE2m0OPTk2YbW+/O66nAVWhwUcQFgdzyFxFeTMbyy18L2BSTxQmUS/14qctloc6uLIBBQozMCf5Tfl5IqKrFnI0yIQ0JDqCSxs5FBHXF2RAESyb4MNEFY61bF3gEDpjEboQLd7JlQlIIFEiiq80NHJMV7FqxRHI0zAjZq01Y12zx1pjxpYJEDDojMYdNMolZVgMghWoydL9EhXR/clYZGFRgtnJ2bws72ncOCDE5ivNxkiaKELt5Z2m7OAs4CzQGwBBxBW0WiguZqaKu0o1/CdgUncU55Dn9fquMJC2OZAAZVSViEGjzUJXcINBDzI6UcOPQVU0N9NFoH25boIDAzYLaZvF6r08pIBgogBzdW40iVw98WoDoLE9yVrQfdFiDUInY2aWDOgyzVH7IDR7VE+oxCHFXLoXgPBymCg+7BBDV1jokMllX42mlPRd4IQZ2sB9h49jSffOIrTo1PRCHDpkKtoInCX4iywSizgAMIqeRB0GYUwxI7yPL47MIV7yrMoSUNAy/FL9wSWE7IDV45cNWbK76oogsUsPYIcz6zBKKCCyzBnMwgKPOgww0qyCD0BBNEgGLF8rqRYsbIRWLCoQEJHLwZdS8BiENTK29Yg6PbQZjpjh0CRvqiyKKyQQyLFUbePNjMv7KyGNIBAgLFktrBOMggyzOncM80Ae46ewfMHT+LIsVOot3nMcLhqFb0Q7lKcBZwFLqoFHEC4qObnk9PETE74jnIN3x2cxF2leRQ8D0UVDMhOY4yZBAIHxA4Q22B2WUjenKqPoKoteqDv6m4CnQyFxSKYGQ1muCHNdBdCrNgTQKC7o8JFRrZC0rFrT6haNBdj9kChHEuD0MEgxPsIIMhiEFQqpJ2OqMomJ0WIUWqk0iMk/9ZRA0F1n7SEjNbvUnK7rYSL4vX194IAtQAYna7hz68exEuHzmJqnjQuMh5dpsMqmBbcJTgLXHQLOIBwkR+BCQ6+NziBnaUFBQ5IL0AAQaL9kqZoXq5AAfqb6qlgrN67iRaLIR1bqiZ26hckrKAKAWZoDrJMt9IsQk8AIYNBUI6cUjk1cEjXIGhgIVkF6liU4cCONq0PA4MPEi3Gwkb1mSVIVBkMpp4hAgTxsZVIVFgG1bK6s6iSF7QTwkUWQ8bLf6U/MGtAqCsnlkRfk+cjCENMzi5gz5Ez+NNbx3Hi9Lj6jEGrAwkXeWpwp3cWuOgWcADhIj8CEg/uKC/grwcncFdpAb5e4fN0zpoBYgbo/2nLBgpm2iP3Ucjb8hiEVGZgET0aVppF6Akg0E3YWQxpGgT9WRCJDaWTo5mRwLR/pEHQRZTUZ0YvhswshjwGQUITERghMGAWUdLaAjNUolkPMxVS1XiwMjZoBMUMArMHXruV0C8Qm0RswukzY/i3lz7Ae4dPotFmXYsDCRd5cnCndxa4yBZwAOEiPgBy4ttLNfxgcFyDA+INeCP2IG6YxJ+mgQO5fGYRuMBRGHrw/HzRomrfoI+ZxSTksQgUoOCsiM5tVTAICiBYWQy0ai7ZGgQqkmSsvglURCmPokGwCiuZ+yQqKSYZBMUmGMwDG5waPMUZCYqNsFIe7fBDIkShDpIWYuiBQZCaCx0CRx9tz8eZ0Un88eUD2P3+KVWBkTaX5XARJwh3ameBi2wBBxAu0gMg/0zg4EeDY0pz4FOue8a1EFjQbiHawwYLZjqiT5kPQT5IoEZOAYUyVEOnvAqLnMGwmFDDhcxmiAxCAsRyJWnBLAZBr7SjPgwhCfqM0ICi9amTo1lt0XTkJDKUkAIzOxJa4DLKRiMoU29A4EAyGMx9zCJJVjhBdeDo0BuU4LXzQwwSbmgTIBIYp5kHLwg66iqoUItXxNR8DXve/Qi/f+0QTp2bir4aBCF8xWy4zVnAWeBKsYADCBfhSZOz3VZs4fsDU3iwMo2iLOetaxFg0EIBJbQiRiGfSWgxg0CiRV0jodstkh6hW/EkEyBwHYX0WghyrpVkEeT+pMW0OqcNEKSbY5csBi57LOmAOiwRpUGKLsCqoqiAh1W4SB3HrraYwiBQFkOiZDNVUIz7LqTpDXphENR9GFkMDAyMrpXRg+kEHCo8QUAmaKvaCa0AOHPyFP7H8+/j/cMnoJIcPMCBhG5vkvu7s8DlZQEHEC7w86S59joFDqbxcGU6aqST5fQZJJCmgFbyrC2Qn3lAgW6rKKCihxoJiwUJ3cy2kjqEZWsQEgxCkQoEcJjBdKIGg8D6g07xoS1IVMfo0Bsksxhs0WJHDYQOBiGpQaDvKx2BbvVsPgez1DKFUvx2E22zh4PoFEzQxCiCs1sk9OB5CLwCRscm8MSzb+DZAyfRbAWKlHAgodvIv7h/70U34npyXNxndCmd3QGEC/i0CBysLwT4zsAcvlqdRJGyDkDpjJ3FkLIuqxcmoeAxi0CBAcpsaIUF9dPObCChYkArbbqGRbIIdH3dmISVBAl0/lwGwdYfKJahgCCR9kehAatRk9IXCDugGQQLIKQ1aurIYFAZDXHmg3qeSn9gdGm0ujiqe0oABL2yN9Ie1T5SvtkYJHYYggWKSb2FMAWJDIiIPSDQYVSUJJBQKGFyro7f7DmGF194HTNzNfjE1LhwwwWcNeJT5dudg4wSpsysjCktYmM0rGulpt+Sq41xUR71qjmpAwgX6FEQOOj3Qny9v4bvD0yi4jV0dUJ+qYXiz2cSAAk30H4tFBkEdKmgSABESjLn3W4vIKFbaME8/kqFGdIYBIqhh6YGIQ0g6HBCSMWSjAmSQYJZZIhrI4gGIZVBSGnW1MEgpKU5doQYdOEkfT0mQCCH7VHVTJUWGddGYJBglYemz8xmTVTUqlSJW09H7IjBFJifETgIOpkJYhbmmyFee/s9/GLXuxibnIlYLwcUVn7y6LSxqQMJFVgLiQHTyKDVDlQmVLFchJeiGSGHH7TaaLfa6jkWCqxAKviUtcKhJD8aa0lVVC/sxMpbxJ3hQlrAAYQLZO0+hHisfwZ/3X8OIwXiAeK0RZNBoM/ple0WPqDL5qMwUOCUyGRnRzquVExUP1X3x3QppIADOiLXPejcT8ow9woSVgogyCOLGIRUgaLdhyGFPfCLCKzqg9xp0ejfoFb5yRBDTwxCag0EEikG8KIOkroiY6JrpFnzoJNByAoxsP6gU0TYLlW5PoIZQrDHPLEFVoVJtYtmF7ygpUIO42fP4j898RYOHf4IxWJRCS4dSFjhCUSyZLSt2+22Gj+UClsqlVGulFBdM4Tiho0orRtGYc0AUCzCHxlIr4neaCGYnlfV2cJWC63xGTRGx9AYPYdmvYlGo4F2ixjIEFSgy/N8BTSIOdL9wlf4ht3hV5MFHEC4IE8jxF2lOfz90BiuK3nKrbMTDpRzp02cO4OD/JCDGWbg1MZ8FqFXBoGuoxcWYakZDeer/HLvGgQLJIizTzAIKWEGFQowMxhSNAg9MAgdRZIs9kAxAYkyy8kQg2IQVEGkJIPQC3tAxw5KVS6WlKR10tkHBSCMkIQBDpQtCIT5RUyPjuIfn96HfXvf1V2sKeQQuAyHZc4jCaBFz4xW+kEABgQeSpUK+gYH0Ld1K6o3bkVx4zBGNq5DccsGlNYOoQQPpUIRVWLOwhC1IF4sEFNArEJcT5PwhYcmHT8I0CJNy0Id81MzqJ0ZxezoJJqfjKLx4ceojY5ibnYWrUZTAYSC7zNYMICL0zQs8+Gv4q87gLDCD4dCC1cX2vjx4BQers5GzIGcVlbrDBraSo/QBqc8ShZD3iV2YxHkuxGb0IVFII6hG4OwFIBwvsCBcqqhH/V8iGxjswh2iEHpD5JpkETnnz8GIakv4BLLSWGjrUGwwQEDBrOE8mIYhCTrQcxBoVVH23b6KU2eKHNBuY92Myl+TGMdPA9TTeCnz76NF559FW29ynQgYZkTiXa4ZEdy8AT8q4P9GL7pRvTfvA1rb9uG0lXrUVo7jD6/qBx1KwjQJACpeqQQg7i0NFQVkiCmgOYcAgDw0AwDxSTUxycx+dFJzHxyDvX3jmPuo48wNzWj/kYRDGEYHLuwzOe/Sr/uAMIKPhgCB2v9EN8ZnMPX+6YyzyTsAQEDEySYzELal4VJMHUJebdT9Fpd9QoRoMgQLUqYode0x5UQKi4JIOgbU+ECg0FIBwk2g5AsZhSt/Lu1erazGhRFE6c5dstgyNIg9MogROGFnhgEX2sYzB4VJVB4oSNjwvOw0AJee20v/vXZA5iZnoFPACzQTcNcvYTcWYWLT1EqMu3G5a8DqmvheegbGsLQDdvQf8v12PjI3ShvWIuqLt9NYIA2Sni2N2YeY4CwbNBAwmWfQQOBEdoIFMyPjmH8g48w884hzH1wBNNjE2g1m4qRcGGIFXQmF+nQDiCskOFJNFTxgK8ONPA3A9OoeHEznF5O2StQIJAgHRY5HTI9RMEMQkEBBNqfjp+2qlcFlHTYQioz2nqEpWoR1HTo5Xeb7MU2SwIIKRkMytHbLIIdXpCeDsaFpWsQUjIUTICw6AwGPiGDAaN5U0oGg9ovIVDUZbM8r5NBKOg0SakeqfQHInjsIRyhshuoZHOAuUIFL7xzHE8+8TzOjY6zg6DVrMty6GUYq0U39b7wSyVsuP4a9N15O0ZuvwGV27ZhUGfb1IL0cCOpjs7Xppy7TqQmJoGuiUAMAQNiJoipIPBBv9NZVSZLs4n50XFMfPAhJve9h6kDHyhmASrcRAzf+bo6d5yLaQEHEFbI+vR+3F1t4e+GZrHFX0AQ+lEzJUpDTNtMkSE5ZdInCFDo5TJZ7Mi1EvJEjr1oEharRZDQRNp1roxYkVTXxizUi1BRujKSQ9RbIs1RVTTUx8ysoqg7OaoQRhxCUKDBSGHs0B8wOkLUrKlriqMGCCSY7EhzzM9goPTGQquJdhqYyAgbRHUQzKqLquZCsmJjtOJVLAzXT5g4dQr/z+/34N2DhyPlvAMJ8Ztg20IxLYUihjasxdDtt6Ky/QasvW8H+qpVZX0OGnRuBAq4XFqSLehlbjD3MQEBufxWyJkP5r8VUKC0yYBBnRcuAAAgAElEQVSBgmzqMwIPHoUiGCy0mw3MnRvD6BsHMfrK25g5dRrNWi2he1jsNbr9V4cFHEBYgedA7ME1xTb+ZnAW91cX0A45Y4FeOaL5e9nUCt8oikTfyU6BpGmDju4r3QKJHLPaMovGQYEJL78aIrEJqkukmpSSk9ZiWIReSi+nsgJdDMU0qp68aNVSNlIV0zQIVvxdlRe26iJwgycDQFgMQlTvwFoidQAElSZpaBCWwCDQMT16BlaaYzLEoPPfrRRH1iA0jGZNOitB7k2uXxgERXUbgCtq/mR8Tvv6JfhBk7Me1Oap6xsdn8I/P/ky9u99z3WETBm3NFbJsfrlMoa3bMTQp3Zi/YN3obx5PYoU9mJdYu4mAOF8sgcqydEAB2qeovRHetYGODCBQSp4IRFkCMzOzWF83wcYfeF1TB39EPW5ec6G0G3tBSf3Mge6fS6+BRxAOM/PgMDBcCHA44N1fLU6myACyalSqqFyyyG9hLxWyGLjbEYhDyTQ3+Kqi1xbgSFDJ6UvYQi6joICCcl9GBgwEyH/2WbK0iLQ52mbzSL0CgjU9/RVBKGXXfGBUgeLVSWcUoCmQL8nhXvUOCl2bHyVHYWSltCHgRyr6uSYV0VRChIZq7FuGoS0PgxRWeSo8ZIRMhDDq9BCMjTBvpyrMnZUYqTPhVkwGASdpqC7RMbaBL5f07bcPGpseh6/fu4tvLh7DxqNpnI8V2LuvDAGpsP3KmWs33YNBh68FyN33IzKhrVAsUAtU9RGFH43Vv58AYQkg0Agm89PTIKaN7RoUYEagzHIm6vioeeBYHptdh5n3zuKsRffwMR7h1GfmYMXUNpknC3pwhDn2fmswOEcQDiPRqWYYtED7u2jrIUZbPZrCfaAXog2AQNV4ZC7LxJNntczQcX8FCsQqMqF5LDp97TJxGQcmEmIO0Kat8l6BN1PwaOryNcFZIUb0liErEnEZhE6zO6F6v6IX2mH9JPvuhEWUA8LmAurmA8LGGu3VVGYxOTLC1mUvQLWFgoY8mvor4QqV79MR/FClUxaKBbglU12QPdgkJkqqqKo1lERgDDLLKvui1Yfho4qiqk1ELTQMdH9MbtIEoMXq3Rz9JldNCnZyZEyFwpUZtlmR1JASuTsda2ECEiQzsBu6kS0s4ReOtIn6W9FTC408IeX3sGuZ1/FzMysoqCvJJCQAAe0cq5UsO7GrRi8/26M7LgZ5Y1rERSNNEG9QLiQAEG/LtHihIAcaw+o6iqFDzgtUukjdHaDgg76916mTHXMEKjNzeHce0dx7oU3MPneYTQ1oyAFHR1I6MWaF28fBxDOk+3FYd1QbOBvh6awo9RWDs7eVJEhjaIFGNihBPmOMAgkEWKXxeEDlgxx9UXTuZstookXoN8FCNhMgoQa6Lgc9kgJIxiCxTQmYrEsgm0LgiUL6o6KmAvKOBsO4JMmcK5dxrmwgvF2H0YJFLSKmA54pUMTC6XWme2lyF0W6fp9WoV5KHkh1hdCbCk2cENhFhu9BjYVQ2zuK2HdUIiyF4AS+0p+AL9opzpSa+e4k2NHFUUtGGRQoJ9vCoPQoUFYCoNAbEYi7TEuXmSGA7j0chIyZmUw2AwEAwJfMwhGsSVbq6Dv0W9TaCqNQeDwDr0HM40Wdu87gj/+8SWMnRvjkarSIZnOvhw3dqYciFN3WC5h5KrNGLz3Dgx//j70DQ8h4LzATmx8URgEfp/o3eGfzCAwOGAxohIrkp6po3dH+hOkZyvfkz1UuIKAwswczu59D2d2vYrpo8fRqjd4Fz1xXqbD4pIf6g4gnKdHyKGFEH81WFOhheQaL+OF0o2UeXWdzSSYQEFAAsMFZgHSwwghSsqNclVECRnYVyKCxVZYVExGZldHEjKlMA3CbHDthC6bF6CGImphEfNhCaPtfuyt9+FUUMHR1gDG2kWMBx7qAc8bzLDwMVXYgCagLidRpWfVpEeiK5qPiXEBBrwQG0rAVQQaSg1VsOqG6gLWDhVQLhXQV/BQLLB4zKyk2FFFccUYBO4GGWUsSKjDDlt0NHOS3gymfsBPEShyGEAd39YaFMpQra/NLUPMqBiEtGZPRqlqClfMBR72fPARfvebZ3Hm1NnoyJcjm0COVAXk6GephP5N67H2vruw/v6dqGxZj6Bsd/5Mmlo0Bd3eH1oWECco+/dC+We9kTEwYNApWQz0Od0NAQUpAq8wZLd3W/+dAIHy+woQxt8q0vHaAWZOn8O5F17H6Vf3Ym50AgEBTpU1weCx2/vd42W43c6TBRxAOA+GpMFNJc3v6WvjR4Nz2OQ1Mh1thKzJ2bK+LBFi6M4mcIqiOPyscAOzB8wxEFBgJoGI+04pFDEIHN1n3YG9kfiIRFRZoQZ9GyhqAGFPXG2vgOmggMmwigONfrzbHMKR9gBGW0WcafGZVXMpCnes4AzB4IHP0+8Dm0sBrio0cWupjdvXFHDdcB395QKqlZJ6nmqiszs56lV9ImNBgQqzKJLuwBg5XV3qWOkUxBFzv4fQYCQS6YxKoBiy4zb2YdFi0uHYDALpDwrtVkqIgcFB3IxKZ1YQjEwJRyhmIWpcJfuiQ8cR7WcMHAEJ+498gr/8+SV88MGHl514UdUz0FUPSfxSHhnGurvvQPmhezBy/RYUqyUE2vnmOVhy/FLoKG+/+D3jvWgWWEpxJNYgxMwBnZt+J2aO2AMGB8QgkGaKQkT6p551MkGH8e4Km9C5IPHQqi1g+uARnNn9Bk4d+ECxC2rec2zCefBG5/cQDiAs055qTIe0MqWshTncV6mhhTKKaEYtmLJW5XJqISbVCp28cU7Ggq0ryNMk0HEEKNDPLMGhOh+FGQIqdtLJInBthGy2wtYikMOnCaeGAqbDCo631+GFWh8ONQdxtFnAfECggEIgeoJd5jNY6tcVYPB0SKII3Fyq4c6REDvWV7Cl1MJAESiVi/DN9EWbQZDUSQMgcKMno5MjAQEFDGKKmcGBEYKi46oCQyIG9Dl7wWQQspo02SEGjxgEOxUyhUFQ187trhXIMFMcBRgIW6Dvk0o/J4WeFuCIBjULH9uej08+OYOfP/ky3jl4WDUJ4hG+smBwqWOil+/J6jgqeFStYO0dt2Ho4fsxvGMrCv0VtKl1gXr/OB0wU5tj/K2bDsFmEHq51rR9bPaAjkuVEyV7QeqpCO9Ix+imQRDmwDxf2mc8t3HYIRibxEevvoXju17D3MnTCNttF3JY6kNdoe85gLBMw1JooeqF+EJ/A98fnFdOT1F0etVOEwM5UJ4gOlfnESjQ5YNpqW52XswCF1LroBuTQLdHrIEAC2Ec7OPSGoYzGti9ZwkXCSzYoQbOmOaVMf17OixhLOzH/no/Xm1swBuNKuaCWKBJq65eKctlPp6evk4rFw5pAJUCsKEI3FFp4e7hEDeuL2FLn4f+EoEoAjS8qhYGgVfzxLBQAx3NDsjKO/pdMwhGeKADIGgHHLEIukyzySCo1b8NGqJ0xPhWSX+gVptWKKGDEVCFogqdOgc6lA5FJBgEXfegIztE7tcABwyQmHWgd+TEqVH86k+vYP++D1CvUdEwXg+vJGPU08Nf5E6JbsmFAqob12Ht/Xdj8Iv3oX9kGGEhfrOEK6LyZPKG2CPfZA+UuXq4Hm7N1tu+9uE4pTEGLDw/sf5AGApiDZSeQjMH3S4pjS3IAgfm/VH/iGarhTP7D+HEn3dj6r1DaM3XYmFCVG2y2xW4v6+UBRxAWIZlOZUQuKnYwPeHZnFrifPyWTPA0X8GB/xCd+vQGKcIkiPi98TXlQc76xAkMxTymARhESh7gq4qqqRoABYlfgwLikHIYhKyQg287g0wE5ZwLujHroVhvNZch0ONAhZCmn6YKehl8lvG4zgvXxWwQBc75AM3Vgr49FoPd29oYnN/AQN9RZSLSfGpncXADIJVA0HYAYnRWgyC2eaZHaswCJp5UOGOog47kFZBx3rTBIrlKvwW1SqIWYEoDGHqB0Q4SQyCul5hLwxWwNpfVV20nmSakDICCBokEGN08twEnnx2D/a8vh/z8wvRcVYwqnRexgQdxGQNlJMdHMDI9pvR99j9GLnlWnh9ncWryJFz6IBFf3kbvyUEs7u/JzaoWMxNCkcVAQwSEWptgwAHESWaDELeOQQMiFAzDTDI/at9jcgMfV4IQkx9cgYfP/cyTr2yFwvjkzrkwFd5KYyPxTyDS2lfBxCW8bRoZTRSCPCNwQa+WK3pV1uvjLQAkQ7Pq/fI52fqEwQEqFCAeGOVhsiSxLStVyaBWARhG+h6ssAKTWlFT6kCOq7TV3nSOj1S3x/dVx0+TrYH8UJtDV5vrMPBRgkNJbpchnEv8lc5BssXUfaB68pt7FxXxt1byrh5EBipeCjrcFAHQLAbNVGRJDqQUrFL+mQyxGA7WRZKMmMRzZC2JkDSKc3USeX0SXRohCvUuRlopOoPOsIRxv6qWqQGI3Qthm4iekR5DILsRGl0vo+T49N4ZtebeOWlvZiZmYsPsUrHSoIxUIKhIvqv2YS1n/0Mhh+4E96aAXVfFLe3byFyuEowm3+DylHqfRajQ1jsa5LHIIj+gI5Jzl4YHlXgKSOTQY0yrVmIHrWupWBem9y/ymTRHIEJhuhVqi/M4cTuN/HRn3Zj7uQZ7mSa6Fux2Lt1+y/XAg4gLNGCXPMgxF3VNn44uIBNflP1YrQ3ldao9cAiECRnn5ZVwPuS+Ig7Kio9QpeQg7AVEryT87GDjzcSKkrWA1dcJGEir/zNjZgEYi0Um5CR1aCYdk6AUimJexqD+HN9I96pl1APabLMjrku0dwX7WuiMRH/vqkUYufGCh7cXMQtgyGGCSgUNU2vr5LTJI0VudIgxKt+2s0OMXSswqUNtDh/xShQGMNiLywGgcILfjvJHqinRSJEGrRG2EOdU9U6sNIkqXZBh/5BgwvFNhgVK21wQDdH12zoNqLQiBbGnZ2cw/Ov7MNLu/dgYnxq1YrTxDlFK/v+PgzvuAUDX3gQgzdfg2IfVdmg0FP6qp8ZBPW0dSGkdNcvDlNYhDzh4XJ1CPzOx1JomgQkg4GYA/q7gIMsUNAxx6nsA7ZBWujDvGsp0sQZEnxu2iQ7o9ls4dRr+3HiqWcxefyE6vkgANUxCRd+GnQAYYk2p9XlpkIb3xuq4f5KQ00B6RuvxKXxkegR5Hc1n6ZoE+hzEyTwvMtFkrI2Zga4oFJW+iO/lLEmQUo6J49Juc98LLsALCnr6dgzQQnvtjfhTwtr8FqtgqmgwHnuS7TnpfI1eu50n5tKwD0bSwoo3LimgJH+kmIa1GbXPBCdgNl0yQ4x2PUOaFSYvRTIYYtzNhkDGyCUq1zgKJEeybUdVAZEIpRAhaIoEsyCwujafdqXMzhi9oL/3iFQpPOLml8eogIyRtqkaCf03wPPx9hcHa+8/g6ee/ZVnDs7tupWismQgo/Klo0Yue8uDD12L4obRhRDQy6upJ1q1viNwwzimjv3lJABv/PdQwy031LLLZNDVkWQ9AIiStFUxdtiQWWipkPOy2lqDaRypq0/iJgCA0FkhVIIbKEdYHzfe3jvD89i9N3DCAkkuAyHizJFOoCwBLNzWmOIe6qUuVDDer+TjpfDSh0CAQIsYJR1hc45znH6XFhJ0LaIHLPPR86fKyRkpy0ym8AVHen60usoiGiRGRB1/WGIWljA6aCKlxaG8Wx9PY63OLnxcgcG9jAhoEAs/hbNKDxwdR9uXONjbdVDqWSVXVYVGrWz1VWyujIIamVurewFeHQBCGn6g7T0SCUgLJaZyjWBAwkXFYOQTMmMAEpkDF26mVpCa1FlB3sggMlmPvwCxuZqeOWNA9j1/Os4c+qcbhfNI+lirRaTIQXAH+jDmhu3YugLD2Pg9uuB/rJK+ZVVOAEEfrc7N1MMyDVQecWc9a7Q/r2mLS4VIGQxCGZBJMkyyQstyD1LeEFCDfa9ye9cwiz5XPPCLn4Q4vThY/joib9gbN97aNbrDiQswVct9ysOICzSgvTS0GprcyFQ4OCeShPtsKji9lnFiMxT8DRBTpxX4uYKPYtJkNCDlCKi1X2aU+cVCF+HWcAojXWg83MxIarLSP8lmQnOwuDppOg1FTiYCQp4o7kWTy1swIF6GTWVebFIA14muwuVSkCBQiobKxXcs6mMR68qYfv6IvorpnYgZgOU4w0DFSow0xxTNQgdXRytIkVpGQzlaqe7opCBBTYo64LGm2IE7MJJxCoICyFiSAENiVi0vq/EALfCC2kAQR+TUiBn6m28ue99PP3HF3HyxCkdjOMDXugMh0RIwfNRHFmDdQ/di+pjn0LfpnUA9ffQ96qaGemyxDwGOh0/OXGpVRDXOch+YWj/LJrefm2WChA6GARVSZXfczUX6YyerCyE5KPWTt+YxbLYA6Ve0jUhsgBVtKjSINoPgYWjH+HQ757Bx3sPOJBwEeZOBxAWaXTpt3BfX4AfDzZQ9Uj9T3F3TmXMalYkp5E0Q1u0aOoBstIh1dSiwgzdmQQTKHD9g6TWgFgEKptE63/JsEg9r3JmAc62KthVG8aztbU41ipfkayBOVTsoi6q4Y3n4dZKEV+9roy7tlaxfqCEclE75w7KPS6SRMdNAASlN9DFkCzqX8SG6jtWeIGcvmIm0nQKaRUZBah0NJmiHhDiNHTIROolmPoDCYN0AQiJVE0NGALjnNONNt7a9z6e+dPL+Pijk2hTPrwI9i4QALVDCn1br8LaRz+NoQd2AiODijWwN3HmvbEInF6YtWqWw/eSoUD7CtOwlHRHzdFoITLHBfm6YjFitwwG2lvCEGQXxaOkrBbUfinP0raDAoOqtDO/R5xNxFUj5458hPd/8zQ+2fcuWo5JWKTHWt7uDiAs0n40gK8uhPjOYB13VTg1kF8QVv8Li9A7m8BCQXboQleyM7cdNrMG8admJ8bOugY8dQh7INkOabdbQiu1sRPR0qTQPt7sx+/mN6hiR3PBlcsadBsqkiK5pgB8eksVj147iBvXVzAyUES5EMfkO2ogWACB2zxTFUVDA6Ao/ORnNkCgMsheSIWMjFREyV4wshEUuFDHprFr6RLSsh2iegmGOFENeg1kTMN00R/wwNbdIzVIIEZuoRXi4PvH8PQfXsDhD46h3Q5Ubw1b3tDtGSz273aWAjVXGr5lGwa+8igGtl8Pv09noKQcWFgEbnTEK2QbR4gGoVuIgZ8EO1Or6HXHmU2dAucVLQ5FmSwC/bsdFUniXCf+X3bmAj9CLi0t96zCJ2YlRX3V6tr05eWKL3UmBLM4vJFoUh03DLFAIOF3f8KJtw7oPg4uBXKxY30p+zuAsAir0dilokgP9of49kAL/V4j6taoHLBuTUyOXOh7iVamnUacN8ED7rHAND+pAhh5pwsSJeRAbIKUKLb3FQYhrsvA0CIrvZFAgjR4YsYhRD0E3m2tw6/n1+LNWhnNHgVUizDpZbOrySgIUNhUqeJTW0p45IYBbF9fQT+1+tQ6AimxHDlMu3wypTmahZZsliGFQaBj2U2aogqJKQyGWrFZpZSj3zvqH1SsZ5VRQdEUNgoYsBgNSt0MzCwHvd9CO8Q7BBKe3IXDHxxXmgR2RCunSZCVqqoiODSI4XvuxMDXHkD56o2KRUlz+mKIXhgEdWt6dU4OMs+ZmyxCnssXBmHJ7IE4dy1YVBkEuj6BhALypJId7EEKc5CmtehmSwEeXP+Fba/GdEgN1jzMHf4Qe3/6W5w++AGCFqdiuzoJKzuFOoCwCPsSwt9UCPDdwTruLXN00dwoPTBy3irGT/VWaaDnN0ySY5hO3nbknYWSODTAvQWSQsM0NsEs0ZwHEqTg0mzg4Y3GGvx6fiMONctLrty2CPNeFruaQKGtJ7qbNw7gG9dVcPfGMtYPVlAsk9AtySgkGiBZAsW0AkkKaJg1CjQASGYZZNczSNUfqBla92tYSv0D+n5PDEIKQDBAwgdHTuCZp3fjwDuH0Wq2VoRJiEIKejVc2bQBI499BoMP3QV/7ZDuSxCn76UNTjMcICGmNMcuWgRyuryKZn7R3oRF6FYPwQwvdGMb7HMIe0CsgWg8BIARE0J2kXvJCzNIWqOApDT2YDHCROn/IAxCwaeMCp7JxFIlz8O5tw7g4K//iLOHjiJoOpCw0pOmAwg9WljqHtzTF+B7A3WMWKiZHSulGHI2c1SYyKiEaGYw5J3WbMAkzj6LTYg0D7pmAnWGtAWMEr7ggq/5TAJddy1s4rmFYfx6YSNONotc36dHO7ndkll/NOFRxgiFHR64qoov3LIW128YxGC5YDSE0l0WtfHUKl6yAuQzM+WRPov6O/AOHFbQoQPjIXQyCBpYUB8Kkz3Qzr2zoqPRryFR/4AYBCvkQMdQwMLYrBRHvkZdZ8HaTzEamm04euxj/OZ3z+PAgUNotVrnlUlIgAMqfLTtaox86bOo3nszYIUUin72mt8UFKr0vAyNATu6uBaChAXS3ilhB5ST7vIyLUWoyDomT6WxKmGlFlsmsxh0HkNGgSRZ3WcxGGIxPqbAhPw5RGwhtReUAkZfmxR3oksnkHDmrXfw9s9+j4ljH7GY1hVTWrFp1wGEHk1LL+xGP8D3hog9iHsPZH09Sg3U+gROVUy+UllZC/F3k9kFefUSOAZopCRm1FagssuUA8GFkpLpkgQO5oIQuxYG8av59TjbLl2xWQo9Dovc3UxqXJiFGzcO4uFta/DAlgquXlNGkah2q4gS90wwUhzTiiSpfcw6Bb4S0nUwCLSf8jrx8aQIUrJWAinVqJMIiVKtbpEqC4IBiGzceyJZ/En9rRtA0BUV1b5GESj+N2UIxVkeH504jSeefB573zqIRr0Rxb2Xk90QhbjpdstlDO24Bf1ffwTVm66FT4JS64kSQJDNdugJBkH/kZT39mpaihvRscmpdwszdGMQ5HqW0pNBUf/K8XJzJknX5Hg/6w+EQUgb3MoaZBPV4ppntDT2gHYTcKBqLegeEPYxRTApDIIIJfk76aJO+s6x3Xvw/s9/h/lTZ6O21FdqRtX5mKsy/djDOx+334mVPN8le2x6MXZUAvxwqKHYA9u5dg58ZhHIGauXxah9QO2GWTsQO3Tz+7Y2gV8iSYvkPdPAgvR9ULUNNCBJCzcwk9FSRzELJS0EAXbVhvC/ZtfhXLsIXynZ3bZcC7BT4kmSwg6DPvDgNVV8fvtmXL9hCINlrj4pm3LGhmPqpQdDmwokqRRcs0CRbtecSJfMYBAkndEuu0zOxKesBqvwEbEPlG2QaHPdO0CIWlknBr6uv2B89uGJU3jyD7uxb+9B1BbqkQNfijMwBYmF4SGM3L0DA195AKWtm6JW1AI+Ij2Any1ANIGDEg6q5yur5s5RI8fkdMb0dytmELq3cqbjtLTSf7FjNBIq0vXq91zSNTOdhf5DZKPU8tK6d4IGSpyXkC28FGDAugaxteg20q+Eu1GGOPLzJ/H+U8+pdtHRs3BT1mKHQu7+jkHowZz04gz6Ab460MBjfbFEiFbjQtnnHYaAgor5qheFlL+6gZMGCfFEk47V4qJHRsc1XcI57bwCCiTLwQQJ3LiJV0oCDujnTODjhYV+/HqewcFyVmk9mPSK28UWMZKDu2njIB64bg3uv6of14xUUdKZDjZASO3CmFJB0S6QBNpHlVJOMgKqBoPUNVBok8MIXGmRWAELZEiBJmMWVgxHtwqK0bFjsjw1vED7SdhBvVDGLO95+OTUOTz19G688crbWFigbn963bkIZyAgjY5d3rgeaz/3GfQ/cje8tUOpY5G7GWqVfoo63/ySbkemnFZWymOn48+WAbKYsfu2FIBgmkzYA+nBkKs5MCh/xTwY9jGBknrkShfFn3ZL6+S9eGcCCz3VXyAc6vtonBvHgX//LY698iaaqkPoha+d0f0pXdp7OIDQw/OjyWVrqaV6LlxXqujEoriEMjtaCSBkEzICFNQK3mNHLT0T2GEnaxXYl8aZDtyNURiFdCahrRiEdkhtW+lsfH3mJqEG+qwV1LG7NqiYg7OOOehhRCx9F5NNaIXAUAF48Oo+PLZ9M27bPIi+ElVdTFZQZE1Cfg8GSnHkaojGltZTQQEDX3WiSgAHva9Hn6tulZxxEUT1GNIYhCDZc8EOL6gZW/eQ4Nkbqv6Bvfyn31XqI1PXiXvVtR0+OXkGTz/1Ava89jbm5uajwj7dgKxgGBG/9V2zBWu/8hj6PrMdGGDxbdoWv8/8XpNDykplVM5Nd25UKY85XRmlFoKi5lN4BDmvFE3KG2lL6cugWnbpcEL0ff17fH/ZyEvAQezWYxcfpTRq9iAPvwkQkJCHeZ9532OmgWe9iudj8tBxvP7//QrnDh5iRstt59UCDiB0MSexB2UPeLSvjccHqPxwcvjGIkJmBcxsgbxDi6iRtAlpL0SePkEYhTyQwJMWgxACI2khERUCCZt4udaPn81vwJkm91Nw28pawFx4E0ig8MItGwfwV7duwM5rhzEyUIloX3Uldoll9bvBCiidAZdNNrewVAGCVqJxlBIt2uBACwmVc1Lph+YKno+dbNC0HIGiBihyobomgjq3JczkwUjsBusdTp8+hz8/vRuvvLgHc7PzEdDIGrMmOPCKJEa8BkNffRR9d98CVEhvkYyfJ7CVXiHLSplU9bZTTOyv6xjkFU2yWYT0TAZpEd29J4M8pbzyzVkjWaV16kqPBGpoIwYhr7yyCQ6EXZHjK90E1zpi9sDSYnQCCmGBeGdmM7jgUhrok3u1tQw0Hx95Yz8O/uSXmPv41Kpt/LWyM8rKHd0BhC62pQG/oRjguwMN3Enlcw3yT5wuOWFObxTxIsf484olMcnPqZBxaiQ3ZOKXLL3fQlo2g5m2mMUoqDig1Z2RzruvXsDP5jaoVMa8CXDlhuCVe+Q4Jh4iDEJsrvbh0VvX47M3rcG16wZQUit5qZhopEVa4QVquNThXFM7MtLwtcILYn5hFqyqisRMJEIOJj+1EuYAACAASURBVGCxH11XgWIGg6BK+REQMcpTp53H8yKQ8OpLb6p20aSTSauTYIIDv1rF4O23oP+rD6J881Z4Ba4rqhy2psvTRqHJIkQhh4ysBgkzkHPMKr0cOTkdQsgTK/YSZpCCSVLOuZc3SbtlzrTSwEBW872EGPixJMGLWtVLQaQc9iAOHxCDyldCYkkOSWSvTIQ1UO+CFjyae7fCAO/+++9w5I+70CDgaEWperGL2yfdAg4g5IwMmcBvrwI/HmpgTUbnNhMoxIwCy3Pids+CkTMehBYhcr0SSkMiURsToHlsgpyD9svr4Kg6PVr9Ij5s9eFfZtbgYJ1Woy6V8WJMEqY2IWgHKJdLeOjqPnzx9i3YfvUIqirkYGUVWACBnGvbrJ6oQYVKAbMrKKrUREonNBkIabqkNQjCIJDTptFnNnLKAgh2/QO1nxFe0MZl7YMZYdcMgQovcI+KeOO/SUMg+du50XH85ZmX8OLzr2FmerYjBTLSG1AfkcF+rLnnDvR95QEUtm6KUufoHMpJZajr1ftksAj8HmYzDup4RphBVsNyLyZ7EGUO5IgV6XvUZ7PbZvZ76LYvzxEsBiSnSswB0/X5aY3yPZUeaWkPTHCgpqsM9kDsJ9dIWROyZYED5o/Y27MwkX+3rULP8dyJk3j3336NU3sPIqDaGd1N14u5rvh9HEDIGQIcXvDwuX7gm/3NhNI87WtS/0CaKunEIT2gk1kI9vcVo+CFqq+DcvTEJEQvRDpQiNkEbrrEL6G8Rp0MhBlymAqAn8yuxasLVZ3PcMW/CxfNAHY6JD3B2zYO4Ju3b8Fd163FyGAFvpnV0AuDQDCAQgzmTKnT09IbNJU1PywTNwMDlSKpSjKbfjslxNCNPdATfZClk7DFiWp/bhutRr8BHAqlIkbHJvDM0y/gxedfx8T4VMQkRFfpAcXhIQw/cA8GP38fsHltqsKnG4sgjkmcWDeQwA6Y0gjTGziJs5WUx7xAwkoAhMjZK10ogTK2mMT10/yqGgKaObH/zhqCOKSQ5ZfZbqK5YqBhg4aOOVEzFWmsgb1v2fPx8Zv78da//ALTn5x2oYbzNJs5gJBjSJq4NxZ9/HBNiFuKjUicmGd7m01gfM7ZC/xCcGiBtb7posS4DgLRgL0CBW7cLOGGuFhSEijQsRsA/rxQwe9nBzAdFlnyuILlbM/TWL3sD2OzCVuqfXhk+3o8esc1uJayHPTs29GkiQR0Hf0XdGjCWG+xjsBiD7TzJZ2BmudNDUIGgyB1FBIPhACCOYhSCiQpkWIaQEgTJ6qwA79NafUWCCRMTU/jL0/vxnN/fhkTE9NxnREPKK8bwcjn7kPfo/ciXDuUKUbsppwXFsF2olmrXjPUkBZCkBW3FE7iuSF9I4Agi4SswW8WYerlBZEYP6VjqvN61K1VBzx11kbacWTfrH4LJkhI/X4UluBwgohG0+woLEGilXSXm6Pn2Gi18O7//CUO/eVFzmpwc1ovQyJ3HwcQMswjFOEdfSF+MNDEgEeiJu6ZwDrl/JCBeVgzRBC/8tl9EeymTBwv5NoJFHbIavUs55T0RZ58WBshGx3rjeYA/n2mH6ebcTrSskeSO8B5sUACJAQUcijjwe1X4Qs3rsWOTYOoVEhvEGcCEAWfAAcqvEDZDNqxGleVWiBJhRB0AeCE89YMQkcfhRyBYkAhAu3uUiso2uEFLcBU92O5SRWeYHdrMwjRONcg4dk/v4Tn/vQSxsYmVFnm6uZNGH70PlQfuhPtkUEG5jmcczeQEIEDHf+m322xstpH0+DdQAKvo7lokmQzpA0eAgjd9AVyrLxGSPaxRS+giiNpUJCnPxBxos0OCJtCoYW8MEH0vHoMK2QVXsoCLjK7EYsw/sFRvPb//gKjh46qMK3blmcBBxAy7EeDbsADvjwIfLZKv3EKGYcRuGsjO2p5xbNTFIVVkArsvCrg7IU8RkGAAKc1ao1BQryYngHB18kllwVsSMbDqXYZ/zo7iP2kO0iJ5y1vOLlvnw8LmKVjJZ5+y6ZB/NWOa/GZWzehry/OVqDmTKp+genIpUtiQn8gWoIMBkFnCsTXz/H/nvQH9KWOEIOlP0hjD9SgZp2DncapeGudndHxN8PIikmYmsazz7yEXc+/gblqFcOPPYDKp7ejPVCKRW1dgtK9gATNpKuUxzQqXTQI9H5TNkNauqMwCPS3bs2begkxRG2ae9ArCFCKAIpUT6RZKIM9UNdLz8j6u9w/nT8NLMkjikMzsRAxLwwRCSA1G5W1r9xDBCY0eCMdz/u/fxYHfvMU6lPTUSKp0yQsbWZyACHDbjQ+t5Q8/PUQcFOR0gXjHHNyvhI6kJ9cwyA/dCCnEnBgAgWGGTRV5gMNASm8qpHwQSdQYL0BhzboJ11fE238bm4Az8z3YZ7YiKWNGfetC2QBAQoq2yUIcVW1D4/ffx0euGkd1q3p54lbrfpDBEYpZK6jkIzb0yUrgaBVY0FlNUThBbOOQgaDEGUbWCt+EyAsJrxAYEY5A6vOgtYfRKo3m2EwnkG5WsZHoxN44s2DONJfRenWrSqNkWj0qKlQjoeIVv45hXpktUy1AvJSHk0WgU/J71ln7F5YhOxchl4yGXjh0FthJXPYJnok6PiAPSOo69bCRLl+8z4Us5DBHpj72VkKmWEFpdCOn1nea0bdJxU/QMBFAzb1bOBh9swoXvlvP8Wptw+o2gjdamVcoNf5kjyNAwgpj80ML3x/oIUhj9xrsgiNufIXpY+EHiSF0XTmaaMjjVnIAxppjALPQfRicNhDCi/Z5yPA8Fazip9PV3G67cDBpfK2mmwCrY6qfRV87baN+Pw91+OatQMoFqjAkFWiWFH2pCfQoQYBB/S5XXCpwC1/kkWWdGaBDj9E7k3XX1DZEXbooRtAoFCI/R0BGynFkSJxogS3baGkfoB+oYCFYgF7F2p4qTaPMV9rdqR0tKaZVf58BkggZ6ngfchtj9McSlrcnOYJe/UsLIJZTFk5UmPA0b/jPg55yY69ZTLI8Xod03R/Ub+HHD1AGntgAqU89oDvWYOjHEFixEQYGSPdWAOe8zRzYTANIs/2gxDv/flFvPPzJ7AwPs4gza2Geh0eif0cQEgxGw20qhfii/1tfL6Puhl2yojYubNTJsfNYQD6N1fz4k4MXKyoG1AwmQXelzdbP5D2hE09BL+8nf0d6DrPtgv46Uwf9jVcaGFJb8pF/FICJAQBSqUiHrz9Wnz+tk3YsXUjKl4AVa9Ab4olUGLDeMsVKEYpivE6URpBqeZJ0cZ6hQ69AP09DyBkhReEabDYAxV4oxldAQqLXTCuRoGDgo+9tboCB+do7Ofl0/dQypdX1tmaBc5Q0CWYc9IepXAQswedgDzWIfDckuW/egkz9NrVkRx6VKnFcOBqQZRiNwYIyatXn+mc6G7aAzomzZ15gkSxd97rZYYTomejgYH5LKKmUCEUi/D6P/8Mn7z1DkLdDfQivsKX7KkdQEh5dPTCDHshvjcU4o4K4/O8TUIO1HsxBg6UrshaBREmyn5px4qFjMwCSOYDf8ecorNDEAQWirrWgc0kPD1fxlNzZUyrNEq3XWoWkElWdeIjMSA83LppAN9/5DbcvW0jimWtS8hgD0inkJXeqBiBBKCQ2gT006qsaPZwECPaNRDsEEMqQDA1BsnwQqQ96MIeLBQK2NdsKnBwlsTDifoKfHESYiDnIb/nFeWhfVSqYobOQOoASEW/rGNJdoFyr7oroUnTC4Mg/EFW+6ZuAEFdaw/BQumPEKcM8tVIeqNQ+/JIZZUuWQ/m591DCyx+FliUBT7k/N0W94rh0aEHxdhQUzLj2aa+y+0Q7z/zIvb/7HeoT05eaq/7qrleBxCMRyFZWoSMryt5+NFwEev9zj4G3Z5eLGRkVUGc6sglj+OXrVNlK38XVYGEIeJVhogb04FCxCiobAdmOU62yvjFbBnvNmy40e1O3N9XmwXskAOJF7951/V48I5rUeqvcjVCK5VQ2AO1Mjf/plfpvFpnBkx7UaVpUOtNk0GwSy6Lccy20+yFkyGINICgG0Slcb9RGqUKPaTD2YkgwN5WC3tbDQUOzA6D9jMTkEC2E8eSBxLyWASTQZB3Mu1Y4tTEeduhiFirwI40y8l30yFINcVex6kAG5VFISWWtV3s7AGuk8CaABMgqGvKYGoUa6DHUV5mgx12sa9fWAOzkJV8R8BCHrCgOXz29Dm88j9+htNai9Crjdx+sQUcQEgABE6cpYTGT1U9fGewgLKqQyBOnqcE08mnDSZx6hR2iPdlQaGEJOSY3QCD3aE+FjMKuEgyDOb10HcbCPCnhTKenSthlrpHutF/yVsgBgke2u0WtlT68PgjN+Gu27Ziy3Af/FIcbtAeH0GpbGQ76KlVswOqGJIFHChkEWdHxPt3aA/UMpALGsVeJAkQOqsn8nvEQMBOb+TOklH1nZTw3ngY4NVGE2+1G5hV6b8G6M7QEIiTM+nubuK1LD2CumURdmpYleYMhUXgOgP8xnPIgVf99Fk3BoHOlcUiMNfI6ZK9bsIIMLORnr1ghlgikWcktySdRlrIVc+NHuky2L2niR5N2+VdswAqZVe9csvKtMg6jt8G3ntmN/b97LeoTRCL4LQIvY6TCBA+vPNxlyxqggSlPwC+MuDhkb6Y+BPnrgZ4ZtmVTvObYCFG4bz6j1Ml+VWPqyFmP5K4OmMMXCiUkTZFULjhWMvDT2f7cbzuXo7FvhyreX+TSWi326j29eHhHdfg8c/cjGs3rEms8LhugmQ86LuK4v/i/A0GQYsWk/0dMhw6HS4vxbGDPZCa3habEb0ccWZGmtZhIgzwSrOJN5t1zCp9golLjJVuRkyd3zsOPWSucLXjzEt9jNP3dKKzJUSk8zAdrhGBrqyYBPAxSMirY5AFEERTsBiAQDMal5hW2ubUhlVKxKhLMEdhAqH0M5owsT2SkKCDkUixkf2OmSEcCm4JY2N+3g0O8VUwkBk/eRov/9NPcPbA+8yGrOaXehVem2MQrIfCzZkK+N5QETeXWlGqYOzQhQlIYuRurELas4+zGKQuQswwxGAiGyzIOSWkYQ/+JgL8eaHk2INV+OKdj0uydQnFUhEPbb8Wn/3MduzcMoSiaqsXZygkaxpIWAEsCIwYBMlgkFCBkb3Ti/4gynyIgUiieqK0dVa1D1LYA93vRPVrsFaqE2GIV5oN7GnWMaf7lJh2NFmCLD0CGyQ/1KCcY0jpwdzmOcupmCDBDj3IdZkgwey6aLIIsgzJOlM3HUKvAEHkkKqKo+7D0OGgjdi+WQ6ZwyDpYsYISCkCttNa6l67gANT0yE6iV5KLMfzJJ9XtBPCOrQbDez/5VM4+MSf0VpYcABhkROPAwjaYKb+4Pqqjx8MFjDiG/A/XggkGASh+eTnYtiFJAjQIqqIWYgFjqYOIbkC4YkurpgY/5WyJ463gZ/PVnCsTg1vFjky3O6XjAVkIhXx4k03X4cffuoa3HXTVSjq0smB3ZfBZBBSUh+JPfCCltElMm67nDCMzR50AwhqFtdsREf1RPmcBYzmJuBAMQcp4CB6l4z0RsnhTwMRAhKU48p5OQgg2HF4Ol6aFiEt7VHtKytrS6woDi3SKWS4r/MVYoiEikZ6ZloYwK59QE8iK6wgIQiz+VLC3l3Agfq+1jksNZzA9mM2xt4o2Ebswe7/8q+YPHna1URY5KzmAIIBEGickf7g3irw3cFSXGRFRxATfKEVahDyymzQJHqBxTwTk4mg0AFlRvAkE6dLZrEVcaSTwxXPLXh4aq6IGZe5sJhHcEnua6666N8kXvzaZ+/BQ7dsQalS7qyISIO9oKsY2qJGXcq5s4W0VW+BLNUFIKTqD3LSG+mQqteE3hrwcDIM8VazhoNN1hyofYysBPuBJUR1aSta+Uxy6HNWtwQQ0mLfdrpjFjiga5OUR/Jf9kpamAT5mTb4uoUYFitUpGtgliTJCIj2gCMQ8YoiCyCwnoHdsx2uEa2FAIisl8oUb6qMCg0WemEPYjGkjzZ1Ak0tSOWhNT2NF/7pJzj+6ltKV+O0CL1PcQ4gGLail5y6N351wMejfdReNF7FJKsfRk3QEpYWBy28A1P/i5N4SJqkpEzajzIPKMSFmgKMBhX8ctbHO3Wq0cCpW267vC1g6xI2bVyP7z58Gz6341qU+/qSnR1pMqYGT2aLZaH/dew80bgpK4PBAgiJ0EBm9kJW7wUKK8TsAYGDYyHwQrOGo62aSnVTTkAcCf+S+lDzshrkGIl0uQyQYDuwjvdR9AoZQEIBBEOLYIYZxKHFQsX0lMVumQxkAen/INaw0xPN65bUS25mlNRtpAEYFUIwAIMACRpvaaGKxYQUxAbdgIRcf1zLgVt1p4EC815VdcUgxJt/fA7v/PQ3aM/OsVjUMao9TYYOIBhmohatwwUfP1pTUvoDasvUsTpJcfh2mCEa9BogUJ6BiBztn70AiDTGIG71HOsX4pcowJ56Gb+b8zDaDkGREvdC9PQ+XPI7CUigiZ7Ei2vXrcFffeoG3Lt9K67avAEFGb+ZAIEZqwQ40I6Y0yWNzc5esCsypgIEbsLUUQBJwInWHihwEAC7mgs40qrxNRkAwXRsstpMOEEdOshjGhK3khNq6FrzoEtGA80PlBHRVkLF5OrcZBC4sFq65+qmQxDgQech4BM0W2g3WghUV0MNrAo+/L4q/IKPUqUS1UCIbJRS/yGNPWAAkM0c5OkNxJYmyJBCTXk+OwIoqiZCoIBJBBi1wzdzzdR44UGjsjw+OXwEr//jv2Liw4/1WHJzYi+TnQMIhpXoRdlSLuLvh0pYW2jp0sVJMwqTkJZc2MkyJIEBHcmsfJgsotQ70xCLE6UdTFw9kf5GPReenCvg5YUCagQOHEDo5V24bPYxm9iFQYC+vgoeunMbvvbAdmzdvI5BgtD8qeEFabRkTNkkUFQDWBcNE4GhJTS06yx0tHfWXRo7AYLPYklq2+sXcVSBg3kcadYixkAekKkt6BZqyAIV5rFE0CZOyx4IIsKTqn323yXcQOGIdhCoXg22sxMWIaLx9UEEINCbTI3XzdRH8zx5OgS1iifhZaOJ+tgUFj4+g+bYKOYmp9GcmY/oTq9UQGlwAOX+PvRt3IDqhrWo0H8jQ4k6EnLtipmw2ANZ/CyWORCtAT1j1Uehx1BCxBiIJkUPbgIoUXF5q1aDaTdmOTzUJ6fx8n//GY6/8oaqrOjCDL1Ndw4gGHYiscyN1QL+bqiEspddsbAX08ZMgWBZLsmclmhjAoteGIVoctOrQTkXHbuAFj5pNfDL2TKONXupsdbL3bh9LjULJEBCGKCvv4r7b70a33j4Dly3Zb1ayaqVvFX/QBVaigodaVch4YWgnQsQOjIPshgEC5SoFEzFHHhoeAUcbQO7GvM40mbmIG3rlrGQ9R1bkKh+76GAUiIvP+XgdkZD2vmj8sua2jcdcbcwQxpAUN+ha59dwOyxj1E79hEmTpzC/IenEUxPoV6rIyRaVMCIShzxUaiU4Q8OorxhLYa3XY3h225C/9YtWLNpPQpFUmFxNkBaaCGNOTBBTxoLQNdZoIyaHiogSooi/YyXP1TaWrO5qsy1qbaKq9TYTJIsz9TnrQDv/P4Z7Pvl79GkMIOjVHua0hxA0GZS9F4Y4lN9wLeHyl2KK+fb1mQZWKwT1yzgcEP8mQ0aTJEjo/XuzAKXdGbBGf37jVoLf5grYDzwl3UfPY0gt9OqtkAMFEKUigU8uGMrvvnIndh61QYUSnHbaLkJEiZ2hBfoj/S5VQyps99DsqFZYPdtyMteKBQ1OAixqz6Po80aN5zSOft5Rk5LabT376ZJUO+adhpZ9RHymASzcBIdK60FclY2Qy9hBnKPZviBaPPG9CxmDh7FzJHjmHj3KBqnTqNRb/JsI70WLI+tqkmq/9hCxUoZ5fXrMHjjNdh8x60Y3nErhrZsSGUO6PpVVoexddMbCDhQYdicFs4CDHhlz5oHuo9o9tPAIAEaQDoxBjMSTpD7Nq9RpXWGwLkD72HXP/5PTJ0660KuPc5aDiAYAIGw85cHWvhcfx+CgKq8JR15jzbtupsNGgyML0M9Rv1WtkQeYCCwMRf6eHo+wGvzIepLaAPb9eLdDpecBUyQUCkVce+tV+PRh+7Gzm2bUS7GEz4545DaRlurq6h6opkOqWon2A2hDICwSPag4fk4GnjYVZvT4EDYi+4gwQQIaXoE0/nb/45X1/EKNy/1MU+PIBkP1GY6rX5Ct2wGCjFw3lI680csAv1Xm5nDwpGPMb7vIMbfPoTm+BiazSZnSPSwMpaUbrp3Ve8h4JbJ1XXDWLNzO7Y9cA8233oj/MEBtYrnhQpXSLTBU1ZtBPlcGBo+SLaoUCo7KixqsQfCBCjQYIUmZOlF3xN+1k7dpM9ppNYnp7DrP/8zPqbSy5pZ6cFcl9z7fj4v2AEEAyD0e8C3Bj3cXS2iFRBGp97v9MryJBqt9hVF2H1l3+uD4tcmZhmiSUvDBeIGRPNAkWAzS8I8RxEtnGiX8asZ4GijpRqmuM1ZgB1BbAfq0HfTTVvx+Ofuxj3Xb4pAAldc1KWOTbMVCsmeDDLZGwChp/BCWnllpTko4UjoYVd9DkcbxBwYA1f/sxuToFLkjGvOc5RZ9RFsPUNq+WSdIpimR7CrK6axCFkggW4zDyCoVMYgwPyRjzG9Zz/O7T+EhROfgFqAe6R5iCsSdx3wCYBg7E16Fb9Ywsh11+C6z96HzQ/fh761a5QY0AYHWWGFuJQzH9h8LvZ0JI5cfa5vgNImhTcQFkEBBA0MTAZBmANecCWPLscwVWBes4XXf/IrvPOHZ4BGky7OFU7qMlocQBCAEIYYKfj4wZoytpUIVXPikO8HCKlYfbSg0Y5cvWVSt1WLss8DaBCwYD+3iEYzJ0GLXSAA83YDeHIGOEerAidO7DpZXkk7mExCoeDjhuuvxdceuQOfuflqVMpFbvRk6w9oaKueCVZH047+CyJsZIumhhf08c0iSMQcHEEBz9cXcEyFFSw3ImEG5USyn1aqtsDa3dQtpIEE9lNJT9uxYjbSIbMAhFxqVqiCRHq0gDUzGswwg3KsZh2CIET79BimDh7G6dfeRuPwh2jUGxEwkNs0Hf9ixrV8T2h6+m7/xvXY/NnP4IbHHsTIVZsSxs8KK6gwiBZoCljLAgXR49ShEF4g8X1TTYM47VEzO7rIVK/3JcsoOT/9XgpCHH/2Zez+l5+hNjPbE9vS6/ku1/0cQDAAwsZSET9eU8TmAgMEHsTJlX20TpF2bFYYgsAEsQvy83wNHDmvtIEWFoGObzaAena+jRfmKdRAFcpcKs/5sv/lchwGCRKjBq7dugXffGQnHrx9K8rVSmd7ZxV2oNCBuapPCS9o9oFfGg+p2QuWONEEB8cbNa4KqtMAI0DMy8NYi2AO/JSHkuX4ZdduIEEck5xGUvDsU5V03QMbmJhahKijowV60gBCBCqMtTBxmO1WG3P7DmPipTeUzoBaF6tW1EYmwPkam0mgABTXDGLr5+7Hzq9/AZXNG0ChkzRwYIYTupGWEkowNQcmOBDdQYI90Jxpt2Pn2UEBhBA4s+9d7Pqnf8HU6VGnQ+hh4DiAoI1EGQzbKgX8YLCC4UIbbQMgRCCBluQBO2R7I1AgwCCajKSZjDnbGExED88ndRcGCzF9wfnTAeaCAn4/18a+WhuUyOM2Z4E0CyRAggdcvWUTvv7InXjk7ptQrlYTX0llD7roDzrYA+X9ks2i5kLgYBvY027heJPBQWITpyqvmgYJ9J7mhRsWI0ZkLJPyLksxJh2jVw7ZujwBAlksAtHyokmwiwBlAQQBCSrdkTJGTo1h6q0DOPXyfix89DFUCICqX0Zx+JVZAAjTRE61b3gNbvzSw7jh61/A4NoRtbo379lkDbLeNi7xHFswtW6FIUpcqdwrWvKNnT6DV//zf8fp945oYePK2PBymXkcQIgUsMDtVQ8/HKyiTLqDgFA6O31yyEqHoMFBVL9AsV888PPEg3KcvEHTS7ZC3vcJIJxotvG7WeDDVi4be7mMXXcfy7CAOAGZt6/avB7f+NzdePTum7nqYsD68FBVSrRp/3yBYkd5ZSt7gcDB3laIV+s1nGm3VCw4NXxgZzAsMtzQTYcQAfkMkKBgeEZmg+nw0rQGdOzMMs1GJT+7MBKxBkGzjfn9hzH50h5M7X8f9bl5VdKYbKSWBReAGTRBAoUbbv3Ol3Hjlz6LSrEYVWYVUWTayj5RqtkWvUaaAc6okMwDU3C4jKGd+VW6znqthlf+67/h2O5XEbalfP1KnO3yOKYDCBogUEzwjqqHHw1WVSGZuIhRrOJVnL3eZMwn8s0J+RO1ryhcltPI753FmTkU0Us4ohfwQPvsrdXx9JyHsbav4ptucxbIs4ANEjZvXIcvPnA7vnz/7aj0D3DeehpAUOmLxorQDC8o/UHREhrG7IGAg1fqNZxrUzEyjT8yFLUScogARI+pj91CDTZ7kAUmiD2glTttZraEaBXISXbTItgMgjqWWlUntQZFar88NY/x1/Zh9IU3MP8RiRDbXLVwESLE8zXqzfExfNM23P6Dx3H9p3eyLTJKU8chBHmwPGcyqLFEWzKXXkipYKuFN3/+BA789mm0Scfh5snc4XLFAwTJzRWAQAyCJceKDOj3WDxJWAfFPYS6KoKOCgjjwK9PZ1iCY54mEOnMlkgDDHSuXfMtPD/fxnxAzVjO1zThjnM5W8B0AvQurB1Zgy8/fCc+8+C92DJUhW/2amCvuuT0RgUOmgFeqddxNrCCYEprkM4kqHi7OZ6Nf2eFG0yHvxwmQUABdcpMCzXQsTlkQAV84guTxkMk2ktr9iQggb5BDEShFajUxZlX9mJ0zwHUJyYTyvyL6cjUKr9YwnUP3It7//bbGLpqc2rnxCQ4iN8aZgkoGCGLrWQZuQv1filbBwHee/p58J0kagAAIABJREFUvPaTX6GhmJkLdfZL8zxXPEBQ6Fb/3319Ib41WIUXLq21kTj8tKEgaZEmQDD3i4AE422tMKBVhs6ikJRH1YI67r9AoQ86L6VlPrXQxGvzTbRUl7ZLc0C6q754FpA0v6HhIdx//134ymOfwjWDleT6rkv/BRI0Kqdtbp6POb+Ivc0QL9cWcJbi61njMyXcEAEEW6DYQ8hhuUyCEuX5PriVdpJFkFvMq41gixbtp6u6KjZaaOw7grN/eRnz7x9Fq94ApaKazbcu3qjg+ZGuZWjDOtz519/AjV97TDeHYp410n3omYnnJ65LwK2yWVXQRV+6rFsUzXjeQegaqI7E8T1vY/c//gvmxiaUnd2WbQEHEPTApYHzzaECHqgCrcBqSrPEEWQyBHl1ExQjYOgZsk4n4ELCH3TMIPRVrYbZwMcTcy3sX+CVmUPGS3xoV/DXzDTIwaFBfOb+nXjswZ24cdOwqvWfyh4kwgseArv9s+dh3ivgrZbH4EA0B6ko2hi49rydxi7ofSJAkjHXL0a4qFb7KdUC6RjEEghgsC8/ry20OEw7FEEhhYIKKezH+O43MX/iE4StNsfkV5nfUsym72PrZ+7Gp/7u+xi5egtapmAxxftzsHVl9FDCR5jplJ1ca/yUhNEpeR7Gjn2Ev/xf/wUTn5xZdXZebdOPAwgaIFTg4wfDZewot9VqfLFbmpM3UxPzkS2HGha7CetAAOFM28OTM20cbrTcoF+sId3+kQUikOCF6O/rx6fuuwPf+uqDuHpNHyiDIL+8cidAmIeHt4IiXqot4FyryecR56ecvs02ZIcaIuSbEm7oBSR0CzVI6iAD7OR1maEGChvYmxQISqs0qLKMdCEn+bsfhGienERt12s499rbKqRgpnKsNoBA90sAaXDTRtzzw2/hli8+HF1uMoQQ2205GCcaIslSM9E5hZEwn4N6KlmG030gCMjNjo/jmf/z/8bZox/qIbWcK728Jw8HEAyA8DfDZdxeDqIaCIt99BJZW+z3et3fDmEQe0Bb0W/j45aHJ2ba+LDpKij2ak+3X7oFJA2SPPnAYD8+fd8d+NKj9+CGzeu0JsEoz5yobZAECAQO9gY+dtfqGBVw0OFZFwcSOvQIBuAIe6CL87QJEo5IT8PjC5cVcVr/hywWQXQGFKRQaYFBiMahjzH+7OuYffsgmvMUC189IYWs90JVVCyWcNMXHsan/8N30T8yrNIeO+sYLu7NEsGnKDFt1sFM6pYjp4IBQweiAkLG73QMrgjpYWF+Ac/9p/+Kj/fs031xFne9V9LeDiCkAIS2LrPcy0BgCaJOg7SFhzpsEKVK5mgblsNAlPwmjjVaKsXxkzbVRHCbs8DyLBCDBKDaV8U992zH17/8IG7aPBIRAFKaWc5ETZ5UNUYACwQO2h52LzA4SHXeZtggbeWXJVzMCDd0K8fMC0yOmXdrEy372lY0v5/GFqSlRQp7oFa9zRZa+49i7C8vYf7942g3GuxgL5FFLJV23nDLDXjwf/shrrrrdrS0NmM5oy1BCGlDKJDGDyH10GkqMRNYKN2EBmRyAFXoyfNU9sIL/+2nOPrsbng61XE51385f9cBBP10++Dhe8MVxSC0grJqm9LrZjMHZvVFKaqUto+pOzDDEWaWglmUSXpB2IWaKMSwr1bD03PAeECtXhYfruj1Xt1+V44FEiChWsHOu27F419/BDdtXse9QxLll2P2oNYOsW++jefDEKPtOKyQu8JX4sQML5lWJyGNLTA1CTkOV1b/WSChFyYhS/yYFmoQZ9acq6H20j5Mv/gmaidOImzTOpfd2qUCENrtNvrWrcOnf/Rt3P71z6vqikvZGPt1PiT1eZTvEEejzK6NpuBRQIEcSfaLfk9hEfxWG8//8y/w/lPPoBCw5sNt6RZwAEErdIcLBfx4TRnXkPxArfTzBj7zBjYQiH9nxXPelqdP6FW7IMcngPB6rY6/zAGTlOLY7eTu784CPVrABAnlcgk777oN3/nmZ3HDlrV8BM0Y0FROAsVaEGLfbAsvNFo4q5qBGCciRi0vDLBYkCBMQlZ2Qw8gIcsMJoiwHUgaS2Aexww1qIqK8NAcncHCC69j6qW3UB+b0AWPLi1wQPdI2RylahV3fPsruOfH31E1GsyZUkwun2XpAtR+RsUnE6xxVpnO1jKacMmsnAYQxP5Z4Qn5Oz2PchDi5X//Lfb+r9/DcwAh3089vPPxpUHAHieYS2E3ane6oVzEP6ypYqjHWgfdtLlJACE9yOJOjDyQuSCTmmf1a8bfU29Iz6aj7+6uNVwNhJ4t5nZcjAVMkFAikLDzVnz38cdw/TWb4QlDAA/zfiEGB1RvT7yFCQqWAhIixVpKnQQJQ9g35Ov+DTk32o1JkK+mZTUo4WGKWJHfZU1vU42EEGifmsL0n3Zjds9+NHSToNWSwriYccB+m3QIRdz+lUfx6b//AUrVPrTEmesCSuYxzZW9fG6yBFKHJgvLmWBAARRt36Wu+QkgVEPgjV/+Hq/9+2+BFom6l3q0xVrv0tvfMQgarG4uF/Ef1/ShktnFwFPllun/kwiWmQSpRxA7fb060I6e/s5hi+SQj4EEDx7+vrQqkTk2BhLxS5YEEM8tNPHifAs1VwPh0nsLL4ErNgsqFYtF3LHzFnzta4/ijuuvUqswGnd754EX6k2co2ZlkVNXXiN5h1kgwXT2adkNKqicBhKM45vnpXc7o/iS7fzzYt5pgkQBAll/U8WPyKEd/gSTf3oFM/vfRWuBek7EyX+Xsl+68eH7cP///iMMblyvdAi2HsN2ubY+wGYaenXRy02bTAMI6lleyg9jBecPBxAEIFRK+I9D1RyAEDdpMuuA2QpbG/HGTID8xX6a5ufJf8cvQ28A4aX5Jmqqm+QKjhh36CvWAiZIKBQKuPnWbfj245/HLTdci7dnW9jVaGJUt0EPTFBgO/U8FoEGLx1j0eGGDEFbFyahF9FiFgjIAwleECLcfxQTz7yM+UPHENRJjCjfuLTrlBCY2nbPnXj0//gRBrZtRTNoq+wAxTCsUN2D5b50kYYhhUG4lDQgy7XDYr/vAMIiAEK8xhf9gfABnXqESHxk9HVIChazgILNT6S9dEn2gBiH5xbqeNkBhMWOf7f/Ii1gggRynNfddgNu/taXcHrtWoy1YmEvaQ0S5ZHTQAKxaWly9DwmIVr6984kqPdOeO2U+80TJUaMnc5+SDOXWYJZaQ6oqNKhjzH2i6excOyEKn4UH2eRBl+Fu5MO4fo7d+Cz//Bj9N+0LQEQVuHlRsBFARgXYljUI3IAIQUgkMPN2/IEiouyfg87p/VdSH6NMfuzC3W84gBCDxZ1uyzHAmYnQUprXHfXnej/4sMI1lJzJ2tk9gISskSLeUxCriYhqzNkfrghrySzpEX2EmpotVrY1jeEu+YDvPmT/4W3dr+ONmUr0H1egC6My3m2vX5XAYSdO/D5f/hbDNy0DXUS+vX65VWwH4kUnQahtwfhAEIKQAhWKA+gM+tBsh3SInadDzANuMgxn1uoOYDQ25h3ey3RAonuj4UCRnbuQN9jDwBrh9MFiSohyGASaJhbgkW1qsvSCeTVSbCPZd6TGWNbhCYhCyTYdRM6qixqdqEdBNha7sfn/n/23jNIkuNKE/widVaWFq3QaIhuAA3VhCIUIQjKIYcccvTOGudsb+/s7u/+OjuzM7s/Z3Z2dj/ubtZubefGZndHcme4nCF3SIJDUEERgtCyBYBGo3W1LJk6Ms/ec3+RnpEekZEluqu6PQ2wqq4M4fHcw/3z733vvbEZ7CqO4OyRo3jmH76Pl599CZVKLZAfb3YXILsY7t2Hh//bP8L4tTuYQdgsHxoOuRbwyj/+0IkUE3SaAwgRAIHEiKv/dIdDhq8XFc4YxRqE8x+Y13umUmWRYs2JFFffbe4KPRYQ1T1vg9NpTOy7XYGDyTHleRb2gFa/EAiI1SPIneKEi+yKsOxRBUDYtq+mm4LuoT137PaICbWMYxKkqVFRDTtzQ/js2BbsKgwjQ8AIwIXTp/CLJ3+OF3/0UyzPL+iqhptbg0B22PPI/Xjov/sjDE2Mcy4EU3QoIYtG16pfdYloiVzgcuKX+F2j++VDDILTIER3ggMI2i81nc3gj0dzmPAolCYdhB2uZvzGLeirua4NaLxcq+CZZR+LrtTzWprWXUu/HzKJetksRm+7BUOPPQBMjam4s7BHLgQS+uoRZAHXjIPV6AEYsKABS2QDAQGVwldfTZ+mdBHRmoQkAME8hsP+UincWZrE3UOj2JEvIcu31dEKHnDu4kW89LNn8MIPnsL5U7OKSdBazM3GJqgwxzT2fvmz+PS/+gMUcwVVtVF/6PvgXzpzYZDXQB5W/FQxAIFtrK/JRbKMf0e9lF33jnlzwy4GBxAcQIid6CkPwmQ2jW+N5TDNiTnWPtXQetVpoKBLyrD4Rr2CXy77mPM9pDeTQ9AtwRvaAsIccJXDXFa5FR79NLyxUW43Jz6yjbd0N2pYFUgwV9GoDIoxDAMVmQoLFePCH5OABGIRyCaUFOmukWncNzKJLakMBygHWSZ1RAc1f35hAW889zKe/t4PcfLwUXjcXnXsZgmxo8dpt1vIDpWw73e+gnt//2s94Y1dYED7pPrlOggYBeNNkHoY7N5pKQgSZSdFFnXSZ0e9UAQ06JP2W3j9H5/EK99xeRD6TT6OQeDsYP0BQndSo37uB+VaWOtPOG2zagXFW/sdgNDywAns1v72a/047nob3AKmWyGVz2Pstr0oPnIfvMlxqnyjAEImYqCFwxSJmQsv4tacBhHZFsO6AlueBJuWQf+NK1ESL5hQk9BPtEjPTrH/94xO4/7SJKYzWSZSpBZF9wtIIABYLpfx3qtv4IX/+mN8+P4hNBp+4PrYLO+r3/QxvG0LHvrW7+KWJx7mHAhxAMcEDAyHQuyBYnkUSBJQYLoo6O8kipRCTuZxPP66hDHxL1SQrbHh4/m//R72/+in8Kj8uPtEWsABBA0QxjMp/PFYHjPsO+xlEGxZDyOproTggF4eWvTNZKX0N8UK2D5qJ9TRKKi0TQQQDjWW8NRSG2daKQcQ3Au/aguY4CBdLGL83n3I33MHvPGx7mgFyjMQuavvwyKoVbY3HXNU+KM8VVjnYD5thLuBobRlFY5kQIzCTmFj0nU64GAC0xmq3aLAAc8TQfpp80wFEmrNOk4c+hi/+ME/4+3nf41apSpr36YA9e1WG9v27cUj//qPsG3PDaj7g9UyMN0PvMCLnbWpTAARGCbUd2auBQIPDBp6UtB195q4H+jYZrWGX/7p3+DjZ1+E11aJ79zHbgEHELRIcSTl4fdGC7g+Q4N27V0M8jKYIZIEDBQr0Fn441MtSx5HuRpPewwQTvgN/GSpiaMNemHccHcWWLkF9GabZ+/MUBGj9+xD4Z47kBoZUXrEsA8rCiRYkh31uBpWChIGTKQUaBJ6Vnv1hyiXQw+ToDUH94zO4P6RCUynFTjgawSpl6NZFV6gmi2cOnYcv3rqF3jtqV9i4cKcEvDxZnrjuhyobdlcDnu//Dju+9bvoVgsBAJFAkw0bkSP0EkYHy9DNJ832OGH2ARmESwsA98zBAzk3+bx3DeaaaBzKstlPP1//nsce/u9gL1Y+dtyZZ/pAIJGsQV4+J2xAm5ZR4AgLoHOsJaSpErYowpHa7m1ddx1vjNdGGm0MN/y8ePlOg7WXG7xK/uVXd+n6wIHw0MYu/tO5O+5E+khleegRS4F2048qashHPoojzMIkyD3D0cqBNeyZ1VkkBDUPiFQ0LFlIiah3cZELo87h6ewrzSGqbRyK8hHAYQYdC65HTRtfnHuAt56/mU8+/0f49SRYxtel0CL7MS1O/Dgt34XNz50H3wOXlEAgBbeTvo4DZgGjFKIAke82BtZGqNcGuHjwlkdWWDpeVg4cwY/+z/+Hc4cPuY2U32mEwcQ9MDLAvj6cBufyg+tG4NAfUGElompwy6DfmE/ZjiR9G0abSy3ffxzuY73Kk1N263vQuKufuVZQMABTfTZ4RJG7rod+buIORhGUMMs5bGWgFMJm0yC1txZ3Q2Xg0kQ8GBZr3mdtmkYIpgEUdBP5Ap4YnQau4fGMJSisuqhD+1ore6F0HEEJNgX38by8jLef/V1/Or7P8ahdw6iRZS3sYPeCKMsEAymUtj94D34zL/+Q4xu2YpmW215OjIA2ekLEGuzVMUMZjSZBak402/OswEHAgMESgQUBCwDNUjCKYVd0LoHBght4OShD/DM//MfMH/qjAMIDiD0f8VogBLd//hQG48XS6Rz7X/SCo6g+6icY2vrA6CrNdrAM9UqXi/XORfCZlJHr8CU7pQ1tkCHOWgjPz6KsYfvRXbPbqQKpd68AQQSaNBZtAckWmTwYBUkdo/7VbsbTAYhqWhR263Lb202S8CD/huDg1YbE/kCPjc2g71DY8iloueHdsx3QZd1VYFso9Gs4dShj/H8D57EK8+/gvJSGSkdBbJRXA4tv4XxLTP4zL/4BvZ84VG0KIrDZE8Cqr8DB5QoURFOAhQ6GlH1mxkiudohHbgbBLFosKBADIdgINv28MELv8bzf/5tVOYoL8Vq73pln+8YBIO6emiojS8Uh3Wo0tp3POFtquq4Hh9iIl6vLeO55QYWXC6E9TDxFXvNABygjeLEOEYevAe5m/YglS9ozYFlzBJIsMXTSsIj28R7qZkEASmySoXaxLtOqZ1qRDeY4IbAwWS+iM+Nx4MDe/SCZcgQOJBVSavz6Z+Ujvni7Cm89OyLeOnJn+Pc8VMqV4Leol+OUMjOOttGOpvFrU88jAf/+PcxPDGOBlVw1OJBSpRkfpS7VCfP0hpUXp8NTCl6BWERxD0hV1KahpUlUurRJUj7GCAA7//yV3jhL/4etcVlBxAcgxBvAVHN0hjaV/TwzVJpzfkDpS1Qn/XSzBKe/6CxiJ8v+Tjjp93Av2KX87V7sCBSgRfHNoqT4xh96F5kd+9GKqfAAX9osraBgSiQoCsocv6BfkyCLfyRoxRCz6kX8MiIiUCXEEYBegdAl7NEOPSABLmPZg4mC0U8ocFBPoIdiI9eCD2HBSCIjdFuYbG8hI8OHsav/vN38d6b78FvNiGZGy8lm6DWVLX9J5Psuu1mfPa/+QPM3LGXhYmSU0CGSBgk6LODh1fzrPqnAgvqTFUFUt2DMzJqoWb4fNV9KwMNphahXW/ihb//J7z/g59whU3HIMTPJ45BkDmw3cbNhTR+d7iE7BokABVQQNBAwhbD+oO1m+rJKdLGCb+Op5YaLpJhLQ17hV7LTE5Dk3NpegrDD3wKuetvBLIFmrk7T06TdijxUfDloEyCLURR0/pd1R9tGgI+LqKsszQoLrohBiSEBYvEHIwVCvj82BbcVurnViBE1KddQfs0gyCx/eYKxQtkGw20MXv4Ezz302fw6o9/hsX5BVB5bd5RX4IoBwEH4tef2Lkdn/nDb+CORx9CM5sJwIEs4gQWpF02oGAu9p1IBRMsqMVfgQcFJMycCAFO7cJ6KwMLlXIFz/7Zt/Hxsy/A813EV7/pzQEEbaFUu43d+RS+OlzAmEeplgf7dACBlGdWw5r9cDpCYbXsgSrW1CHQhJcgso8YhMVWA0+VGzhQbay1zGEwY7ijN7QFgslXU8Sj27dh5L4HkNq1BV46p3b9lh28FSQQA5CJcJsNEP5IL0pPIiUbk8BCwoh6CjbwYNsiRjAJAUhoA5NFxRzcOjSKXCoT2599oxfC4ID+bQMIenstm4qFhYs49MbbeO67P8TB9w/x1nu92QQz7xD9XpqewH3f/Aru+/LnkC0NsTAxji1gsKDnvajjqJvItaPm2A4woDPlXImKINGmYjFIkNgRcAroMFkF5a7oFkWK6bkMNzzMz87i6T/5c5za/1EQZL6hX9bL3DgHEHQH0KS5NZvG74/kMJ2iwEG16MqnFwCYS7USOXaOVQNfBrsAg35q3eRjQcEOAgzdoZE+nq1U8HK5gTrNoZdgt5G8ze7IjWABExzQAB3bsR2j9z+E1LVbuQiTDFp2KYRRchSTQL78qDBHxSD3dzVEhT/amIQ4kGAaeYBcCYGroe1hW6mEx8amcROBA36VDd1AqBPZvcCulATaItO9EDcYtGaCkvg0203MHj2FZ5/6BV598me4ePYCsvmsLvq0djOKxiZBqygBUWlyHPf9tgIH+ZHhYIaju9ICHwUAxP1AF4tjFBgoaLdCeLAp/YGKVFDgQLkfSOxI3WoCkbAVBCh0NmfqCIpUO7r/EJ75t/8RC6dmN8LruOHb4ABCABCA0ZSH3x4t4IZMCk1QGJNafiXboenLCvcsHWMyBDZabDWjQdiD7iBJuqdqJX0yaOL9RgY/XyrjQqu65lqK1bTfnXv5LdBFT6dSGNl1HcbuuhepHTNAxlDmMxAYACDwIhoBEjQ4SKRHiAQJFkZDYXB7FkfT1AHAsHCCISaBjtg9OoHPjE1jV35IuRpjwAEvqv2SI0lbgtBGnUciikEIDRNZFJeW5/HhW+/itR/+BG+9+h6HR+aLlL1F0fGrcT10sQYtpS+Y2r4Vn/7aF3Hnl59AYWSYUyr3znkUldXRI5jfB5orQ2hoAgc5NthEhRIhyffqHMUspHUIKTEJKSOc1Mx/0B1S2ZHRcJKnVhuHfvI0nv3r76JWLm+aGhiXc+ZwAEEAApUBRRu/OdzCnfkRtECFV9SSL86CMCNgeyHWqjMVNFG7EgVSqB2CjTt36U6Y5OOk38bPliv4pF7vKaSyVm1z19l8FqB6IyktGKQcAKM33ICx++5HemqSd6OtMIu+DiDB6rdbaWSDDSCw+5pSHYfAQBSTYAAEOuPG0XE8Pr4FO3MFkDkUqEnHFjZJ7l6g6wwwboykSlyrgKh9z8fi+Yt45+U38dI//QgfHDwMCj/MZLm1hod+gPsYGyQqipTJZbF73214+Jtfxc7b98IbKvARxASE2QCCDKIZ6PlOAwPRFpiixjigwOyEznEg15bcCZ3cBwogKGEjzdHasLpCZlTsQ6vWwHN//m0c/MVzaDepBoPKXuk+0RZwACEY5JSyuI1HORfCcAAQJCzRpLEk3+HaaApU55jX6lw/AW0Z6ttG28OzlSW8VamiTtOlczNc9e+/gAP6Sfzs+A03YuzTDyAzMRHkMvCpRnH4QxOuzXUQ6WpYgR6B7rlakKAjDoLm6yiKnuexAQVK+tRu48axCTw+sQXXEjgQlwFT/THuhX6ZE80GMNAYYCgKQDBOkcWs2azj/Ox5vPbCi3jzyZ/h48NH0ag3kC/kuzQKcqp1DpBkQu02Go0Gl+2e2rkNd37+ETz0xKMYuWYH/HSqS5BoAwnibpBIUhMomOyAYgC8AGQIEIiziNIfkKtXfdQ5Chzwdzx0VBvZNvqGpktCIiboGounZ/Hz/+vPOOdENxM7QL9cZYc6gGAMPhXqmMLXS6XEuRBWAhaUdkDNFwRAxFGgXgL1L/nQv9TfhU2gf8dXi3yt2cKvlpax5DfWKevCVfaWbOLHNcGBl0lj8rbbMHzHXchQuWZj+0TCxMQsAtkjTo+Q9pAiqjocCaEX4zXNtmjrmyiAYImgYOaAwMHkYOCA38kkSZGkfSZASOJesACETkVDFSpYb1Qwf/IMXnv1dRx4+lf48MBHqFZrTJ2nMxlO3cyzhlEKmX33rRZXSKTCS8QYTF2zHTfdfzfufegBTO+5HjmqscBJ3dSCbH5sIIG+J1eDTGpRugM+TvszOlJrxRjEAwXRI8gcqJgDAQomg6AjMw2tgpo9M21g9rV38NM/+yvMzZ517oWEc5oDCIahaJxem8/hX44MgV4RlfVw7T9hgLDWdzjhN/GL5TKO1RvOzbDWxt1E12NwQLtAv8WJbiZuvxXDd96N9PBwBxyQ4Is2ty0LQBAgECNAHDiyga5pi26wLN7kKmjbSDRbmWizX6IAAt/bqCXRbmPP2AQem9oaMAfmZfq5FxRI6FN/ge8ZzUJYh5MJDgTEhbMDcqahFl+72aqhPL+IIwcO4eBzL+CDA4dx+uQZlJfLaBI7oJ2UFAGRyWRQLBUxtWUaO3dfh2s/dSd233oTxrfvQCaXQ1O7oWjRliyHnODNAApRIIGehc4hooqTP8Us/E1yI/DxHedIP6DA1+dIBuVekE8nf0J3bQhhD+jYtN/C2z/8KX79nR+gtrTkAELCecwBBMNQNKFuyaXxL0bymNCRDAntONBh9Gp0swQixBncpSA3brVTHENNPwn5P1dZCNwMpv95oIa6gzetBVSfp+D7TZ74px68D0M37kU6O6RmZApNDOFfWpBbJPUOf6JcDQIgbDkS4kSLtqRL4cVbt8EKEiT5ErtMIvIP9GMRCByMjuOx6W3YlSsgLTtbXsz7v4cEDDzahScBCBQdEryoKmwv1vlt6g9sIzAci0gljwkIwke1XMa58/M48cFhHD9xEvMLC/CWypzHIj02ii0TE9i+fStGZyYxOj2DfKHAY6Ep4YZid+3fV4t+ciYhWLRJC6JzIzG7YPnYQIKILnslkd0XCAMFAglqWKiIB1OHQDqIpeUlvPTv/hKHX3odvu9LDqhN+35fqoY7gGBYmoZxyUvhd3Qkw1qnRV4P5sAEBuKGSHk+Pqin8cvyPC74VedmuFRv0wa4TwAGyd/r+yiWhjB2390o7tmLtKcEZz0AwWQROHohNKHHAQTaRUflQYgLf2RAkDD8MYpJEHvbQEIci9AG9kxMMDgQzYF1HY4RKA7kXlgpQOC+imAxbbtz3rXrAGjPh9/01c6fgBR1Orl4qNy0T8xMCr6+tPQ2aRXMXX8ci0BNi2MS+PuIUMiwrQUo0EJOvycFCSYYUTxOx1YdjYPKf3D04Ad47v/9C8wdO7EB3tLN0wQHEEIAgfTAj5SARwrDagYb8CPRB2ofrz5KV7B2BaAIFIhoOeq6NaTwk/ICDlUlGc0NAAAgAElEQVTLq1I3D/j47vDLaIEucNBsYmR8DFse+CK8a6cBSvZjxt5aGAQeqwQWbIJFDSwGEi3qBS4yR8J6gwS5fmiRvSlfxOMz23DNyBhHKwwODog9GCD3AS3mSfIkCCAwGYK48STKQP2TFniOLAjyFIh+SWsE1GSkUx33XjgMEOg65OuXzyBMArkaqFmmMJGuE8Um8Hch0CPPk/SVEhZBzCJsQtr3Wcz58re/h+ZyRZfVTnrVq/s4BxBC/U9U463FNL7GNRmSaxBMYBD+XRbxsOBwkKEXsBnkekwINl5vNvHi8gKWnVhxEFNvymNNNxIxB5NbZzD56c/Dm5lUYtjwLj/sZmAWwUPKV+SsFSSsyNUQE9kgoZRhi9vSMRvHWKtA0vNYqkvyaQabcHO+iMdmtmHn8KiuA9C5cBLNAa+xg4gTTfYgycjq516wohnl9DcFgJ3f7eGJUf7+OBaBbj0ISAgAgQamceDAfCzKuUDuMRJS0k/aptHf+rkd5BphoLC8VMZzf/Jn+PiVN1mYqXBY8rk9Sbddqcc4gKB7ViZYQp/X5DP47eEsxrxsX4hgsgMqc4FiDsKsgaRRGsRtwcdqdrDV7jAQ5EKgv0cBBV/nSzjjV/DL8jKO1xvuhbhS32DO2tvJcUDgYPyGGzCz72Fgapx3ujxWsr2aAx7c9HfzQzS1FiUSWGiRvsB0OcSAhIFdDTy8dR0/2+IeAxR6QAI9i8S69eRBUPe5OV/AY1u249rhUat4lxd+HVoX/AxdS2kPErIHZFcBCFpQGDsMQ7kPEgXpd7bLiQGCYgaiIwdMkJCERWAgYMmTEH5WvqfOVWAr88xiQ12UyQQJBAwyGjAkBQnSJgpZPfPGu3jqT/8Kc2fO9p3Pr+BpYkWP5gCCxWxjXgpfHy3g+gxlRuhGmt2AQJVfSrqj79dDfC+az3miUG5DAgYCOvrdh4ABBVASsFAFony82azjxaVFlFsNjvd2yLlfL2yu781IBWr51L47MHbL3UgXSIzYGbuJAYJ+fBYsSv6dsEkGzY+gtmz2dMxR9Rr0OVGsgJVF4HMsTEIbuKlYxGNbtuHakbG+kT1xTAJ957X85CwCAQQJa+znarBFL8QNR8PF0HFoqqkjjkGgSyomoBskCKVPkDFKi6DOtWdPTAoSiEkg1wMHYkQIGM3HlpBIBg00jnQiJbpfXIAkfdeo1vD2X/493vjZs6jTRmlzvd6XvbUOIIS6gF6cHNr4TCmFRwol5ic7uQnUbkeBgmh9gjqGKLFkugO+YttDyqNzKPGHOo+BgQYJSUYKpYcOA5pzrTKeXl7E8Xoz0YYkyX3cMZffApz0iCPoVNKYVDqNydtvw9jeu5HKD/U2UIoqhWdIW0SDdjfQTjmuxsKa6RHiQEIMUIgECYZokciPPcUiHtXgQJUXtn+SuBgSRS3I5dcivDGysTqWUC/ygwKEQVgEm1thJSBBGAQKUqTf6Rr9gAKBAk6yJK4GIzyyX1gksQcLH36Mn/77v8SJD4+oPZdDCANNXg4gGOYSqpZ1CIUMvjI8wvnYVYrj+AV/UFCgkLhyIXSAgbqPSmwSL5BUbgQhGlS9CBtoodfr7WYNLy8taBbBvSQDvSEb8OBuMaKP4nAJY/d+CqUdNyPr5VUKWpsI0QYSIkIe5bFpGFpBwkpYhDgmQSHi6NoKEe6GOD1Cug3sLhbxSB9wwIs+pzOOT628YvcCv+x9whsHYQ/C4sQQG5CEQejLIpCmwai/YEY0yNiIAgn0fT82oZ+7IcwgUFtMXQLrE7TugoWQkhHXONFrNvHWj36Gl//uv3LuA6mEuQFf6Q3bJAcQLF1DVNuOXAa/PZLDuJezMgFJmARbr3eqLyr3Qbe0nM4QQs0+ZgQYqKhnqjrZHxKf88t4urKE4zVKmuIAwoZ9GxM0rJM210Or5WNkfBzb7ngM2DmDlJcJ5AJ+hOaAxYpJWAQeKFqPEDXEViJaZCDgdWdZ1PcitwbXUogSGw4AEjLpFO4dHcMDU1swMVQMCv3EmbgfgzAQe0A3GkSguAbiRJk9utMd26su2o61Lcrm38IgIQ4g0LEUshj34ZBGrUmQn0lcDl1hkeJ2CIEkmlkvnjyJZ//0r3Ds7YMseGQliqMQEswynUMcQLCYi4bSaCqF3xrJ44ZMFr4OhlopKFBoXTECtLCbbgQWL3KCo2h3hFkPQlgDE2jYelylcBZXiI93iUXgiIa60yIM9IpsnIO5eI2ur0GL98SWGUzuewTZsSmV+Mj4WAGCXojtIMEDSJxoAQ9rGtUQBRDUy9FxkdkItCjRIjEjBqjIpD3cMzqOh6e3YqJYTLQoCIsQVXthYHBgAgRmDyzATPornFY5ySJmESfK5ZIyCJIrgEtdh/UIxAKEKjgO4mqgtiRhEehROyWc1eYlaXijiBqpXcqrpF0XBDyIPfjxz/Hqf/khqnMLg9XB2Div/GVviQMIEQCB6sCTDuHBwjC8yGjp/v3H1H+Q5ZACJ5UzQIGGZBoFftlC2RcFbHCsr4VFEJcDAYU0fFTaaTxdm8fhyrx+8R2a7t97G+cIVdlOi1dTHkav3YWp2+5DbnhcKc5MgKAX+cRuBg0cbNkV2QJ0W3ZPWKiEqKqPcp4ty6KUdbZlVNTAgLU0YZDQJ/yRvk5nUrhrbBwPTW/BRHGoryDR7OF4ceKA0Qum/iApQEgCDAIUoMZDJyGQFDOijIJmyGM8gyCMlC2qga7Ni7UBHlbialCZDaM/wTPo3Q+xCPQMNqCgQhg7KZHMbIw0m5KrIdVu48LJk3jmT/8Kx985yKnGBzHtxnnrL39LHECI6APSIdxcSOGJUhEj7NftT+XTpcydvQgP/bZKx6KW8v5RD7YKkvQ3Yh8UsLDrE8y/0+8iWFTloj18QnkRls7ifKuW8Gku/wC92ltgVuIjmjRXLGJ0z00Yu/42ZPOUzItWxe7dKQGDdLOFviyCAINgJ2tJwWzkR7BWfAyAgIV9WAVI4EieSNeGygrY/WmDJMV3jY/hnq3bMTFUSgwO+rEH/F5z/n8qJZ0wedpK3AtsrwTzTILohQBH9MlmGCdW5O9CLALPP0adBrlPnLtB7hElKgyLFyVa1ZY3IYhoaCuBo1jLBAqpZhNvPPkzvPLdH6J60bEHq5lDHUCIsd5UKoUvjeRxXYb4hPjdvgADnkTaSjCoBi/t1ONdCJ2XWVVtFLSdJGdCEEeu72a6FsIRDfQSvVK9gLcrS2hQu1zY42renXU/N1ymtzA8gpE7bsXIlt3IZIpqW0+fkK6A/iyuqCjNQZt27y1LOWeancOuBn2xSMFiHEiIqvpI55AWIarwUtLIBhYWAjh/ESMfHMHD11+Dez/zMLKjE8abFN9VCiDoxdmyQHfEiZxsIVm/S3hjvwyKg4gTeTqJj14wQwDV7BPNIKjv1YJPTxXOMcDfUZ2HkAsinBsh7j4CCmROMxmPsCEFKHQqMiqW08YkhJVaAkKEPXj2//trHHv7ALMHTnuQbMjajnIAIcJ2NOAo3PHBUhYPFkZ6sipKaCIt/hRx4HktBgadegvJgQGj8lAJaHl5o7pWgEGHbRCFREwYFzwsttJ4rnIGR2uLmjp0roaVvz7rd2ZXtl3Pw9jMDKZuvAfp6RmkUlkl5DO7OpTwKAmLQCChRxBI1yRGoofeV5kWY0MfaZ21uQ0IJDDlbrEXuy8863nctrgNO7sc2gwOqi++gcU392NibBiPfuPLuPeJxzExStkSo/tIsQEJoxeYJu9TZMm8VVIGYRBxYoLohTCdnxQgcO4Di6nCmRUDxmBAFoHOE02CgFdbz0hlRuIGVJ6DePeEubmi69ZrNbz15M/w2j8+iQqxB/qThJhZv7d5817ZAYSIl4LVrm3ghkIOXy+NYIiAgM76phZvvSC3FZWvvIGSIyG5tkDAgegI6AqKQ7DnWrABgyRMA+kg2E3htXC0Ucevy+dwzq/y04v4zb1El/9FFtZA7ZA8eNkMhrfvxPT1dyA3NgWP2ClbJALv+jurYV8WwdQB2KIaIkAC7wBF72Ar6sTFniKAQBRIiGISNHjgq1nLPhNzcAHVl97E4lv70aio8Tw+PYUHv/wEHvzCZ7F1yzTjnTgneN/oBRYYevDarWQuhrD+IIpFCEv4k7yAMeJE2VQkjWKQ45l1iAIIJsMQEjKG3Qo0Q0bpDWTHb6aDjstj0A0UOmmWya1guwcdT47cw+8fwK/+w3/GOcp70FJREu6zcgs4gBBnuzYwlSY3wxCuJTeDFhsqNCyCw3CehPgwxfDtlCpBgQL6PW6xN3MdSDSECVbsiDzNLg66C7WZfqOX6aC/hDeWz2O51dAvElV6W/lAcmeu3gIC1HijCqBYGkXpul0YvuZm5HMjPEoYUApbEO6vEEggUWGq2bZrEbS4kBmBkIaBb0LXDgMRs15DlGgxikXga9qZAh7DqYjvouo1kCkuXETlV69h4a398Gt1g/5vY2hkGPd+7lE8/s2v4Jod25AmX7pFKaeYjWiaYmDtAT2MmV6ZtRQRL9Yg7IEMrz7RC2pu6jyoMAhRu3ah/KMAgoAIcTeYozyKnbBqFHSbJNJA7qfGvP0jbZPQRyVcjM6+WF5axrN/9V0c+sVz8Ku14KJuXlv53OQAQoztKPwm7wEPltJ4gN0MaQ5HFAigPHfmAO+/wiqmQJ2n2AAVoSBCwnBzTB2BKTwM6wuiwEFUOGQFabxeOYEPq0uo8Uuq96z9H2Hlo82dGT0ZGsPIS6cwPDqBrTs/hcyWrUCxWyTLGQxpvbPt1g1XQxIWgTN1RuVGiGAReBHiiIaI0tBrySLQzcKlm4nNu3gRtZfeZHBAzEGviLiNwlAR93z+MXz2G1/Gzu3bkQmtFOJiiAptVMBFwEPCFyMpe6ABE6948nuS90MDhLAvP9AS9OgF1K7eFsooi38YVHSDAMUw8sJuEyxa0i73y48g942rByFtUlpVZXvJvhg2E3vFWi288+yLeOFv/xELp88kVYoksfhVfYwDCP26vw1cl8/gy6UCxlN5BghqakyeSrn7hVODXbEBij2Iy69gagzCTbWxDcxssC5CsRHkUlDaCIN+1r+fbFbxRu08ZutlvetwIKHfcFjr77tZAw+pfA7DW3dg6pq9yI9MI+WlrDv8SBYhpEUgFsHzlbCNNAS2mTPYvdtcDVYWAUhRvTCp1xA2iggMB3Q1cDuiRIu8iCpdJoGDyouvY/HtA/Dr9QCjy/pvrrmZXA6333UrPv/N38QNt92KXDZrJCNT412xCHYAwALFQfQHSbUHJkBIusWNiF6IW3DjGITOtqBP8Sbdv+GQR3VfuwjSxiLIMBEsTMf0AwlyjrgcaNMWTqZEM/LsJ5/g2T//No69cwCtpu/Y0DWaqBxA6GNIeifH01k8UhrDbVl6IURfEO9K6LAMkvxFTUCiNRCYYFvkzciEQVkDBh5abxB+NLluA1mdsKmFU40q3qyew5lGWauYHUhYo3er72U67GobXiqFYmkEpWuvw8i23ShkOy4FYgw47M/4KBahjXbYPRByM8gpnMPA9OnLFywg1EXCIvIc9FR81Is1AQ4OpLCtratxNUSAhDYB3wsXUH5ZaQ5a9UYQrhFeY03mmpq351O34Uu/8zXcfOdtyBUKSPEz64iABC4GXgyThDgmrd64htEL/QBCEgZBIhkENHRvarROiQBhQhaB5zqLkFH+Tj8lXwOzqH1yJcgz0k85VjjYeqWCX/7Fd3CQXAuVasDpJsVdfV/Uq/gABxBiOl+oNdpz3JrP4bNDo8jxJBFPNwo7ILoCCVzs0P3xxZ7C+QyUADI6/4F6aZQmgkEAh1V28iDIIzaRYWBAPzvIHJhtLuH1yiwu+DWlGtYZ+9wLtj4zg7nD5TUqncLY5Axmdt6B7MQWIEtlxg3GxwIQ5GureyBcwlkv6IHA0MIUcCRBFECwuSDMa2Yj3oeVRDVE6hFa8E/NovzSG1g6dBithkobzjUUonb/wt7TG5tO4drrduLhr30R+x5+EBPjo5xQR+VbsGsQAv2BiEKSENdJGYRB9Ad9ohdk8bSJ9wZhEATr2Uoqy65/IBYhoupjGHwkZRIkSVJn7moj4/t4+9kX8fzf/gMWZ10557WesRxASGLRNjCTTuPzIyVcm6byTZ0FNnx6x5WsXAdh4WES7YApRuwHDAQcSP4D2/VNRoLYg/Ax9IIebl7E+5XzmGeQ4CIbkgyLlRyjwIGO76ZQ2twQStu2YWrbLcgPTymBW2i9tYYj0lUEOITX5wgWgcdStpeNYGaB2YDoCAQri6BBAusRotwJNtAh4CIiqqHH1dBuwT99BuUXXsPiocNo+03tVugfomuCMYqJ37J9Bo9+8yu493OPYXJ8DCkWakS4Fyg5EudZiKJJQiNAXBW0y47Lf2CyB2yLBPqGPtELsniGKft+YY7yBBzOGLdZCuaE3jLRao6yl4CWucRWY0FSJYs+gqygWIf4T7Otjsh4KZx97wB+9h+/jWOHPkZb11tg1UICk67k/b3aznEAIUGPk9+rkM7g06VhfDqb74EH4k7oaAo6JZfob4oBoBHbnzmQxbtf6CIxBDyxa32BsAfhxZ/+LcwB14CwxIvRMRQgdrR5AfvLZ7DYbChfr2MSEoyOZIeEWQOKvRseGcfWa/YhP70VqXRWCcksEQXcF5a/E3tA+gLe+ScECSplsr1gEzNcEfUYItMwC0ggFsHmdYt1NUTnRwh0Ee0WWqdmsfTC61g69BHaLRI/KJsnXQQC2+tFbmRiFPd+4XF85je/gGu2b+eMfDaEoxgEyUeVYMURgOD78YWaBmEPOit48MC9IEAtrGaK5eC0BImSuNv6AASGtYYbwBai2E+cGAYJIqxk/saoo9DvjaKEb7mUhzMX5vCrP/trfPDCK/CbzaAPk46Lfvdx3wMOIAwwCq7ND+FLQ+MY9xTWVku+Ehsqd4IUSBLxYWz4NV+jAy46LoF+4ECdp7QGJkgwH8XUGwhoiGIXKIpC/d/CseY57F8+g0XfgYQBhkbsod3goI10Lo/hbTsws+1WFEamWKZPdDf79C2VDCN393rNsi741KKQq0GiGqLuExnRIIM9xtVALELKb9vrNcSBBBEmWixIMmD/7FksE3Nw8CNVMnmF0TbUB0GOiXYLhWIRdz72IJ745ldx/fW7kOEdf4dNYL3BoCvNShiEJPcwXAy8qIZsFSy0Rg2GpABB5iD6mVQwyLt8S3hiHFsRJ1qUe6v5VH36FWyqLS/j6e/+CG//4Cm0yuWgr5KYc63e66vhOg4gJOxlYhGKxCIMj+C+jAo7U0t6Rx9Aiyzt0Zkq09/T3+I+pgixHzAIIho0axDlruBcB5z7sQNawm4LARlNbjPRi+ppmmjhePMcDpTPYb5R09l8nXAx4TDpOsxMlczzaYpYgzGUdl6Lscnrkc+MdvnPIxduvUDb2IUAHNg2uLa8CMQ4SLIjixaBbhUJOOj4CH2DCnuMkOfEloWOyKLY8tE8fhJLL76GpU+OrQocdAHnjg8Q6Uwaez51O77021/F7n13oJDPqXLZpMcIai+ssXuBbWQIJPsNLFN/EJHMKG6R7+diEFEizVKiYTBM1NM6BicaHKwFi2B7/LgqkLQFa9XrePlHT+HX3/sxyhcuJlGG9LOy+z7CAg4g9Bkaps+YDr0uP4SvDI1hiEPRPcqMELAI9L0stv1GnMkc0GIun7iCTMIamGGMtvuICNEGCgQYEHhoQCVOCgMNHz6ONc/jQPks5pt1DYH6+3v7PfPV9H2YNcjmiiht3YaZrXtRKE3AYzFb76oeyyJY2AVZlIOwx7CRIxZ0imroiozQ0QyUOCkSJFBzY1gEOi9SjzAAi0C+ZAYHL/wai0eOaSutHUjVnrPA+iRe/Mw3fwN3PfoQxkZGGCS0PS36jXA/9IzlQd0LAhTiXoqQOJHta925R+/++wEEub1iITjos68GgMdHBIvA30XoEbqqQkaktpR50QYSaPil/RY+/PXr+Plf/B3OHT8Z1GpwuoP1mV0dQBjArvQCjaXzeHRoDLfkCBoodkAqMPRjC2RxNhdkAgdxoMBkFShSIXY+MRYcAglRjEST79kGsQf0FMIedCYLYiCISTiLD6vncaFR08lWOjTtAGa7qg4N5m+99qe9LIZGRrB1650Ymt4OL5OG1/LQZrFgxzRS54DHiAgGQ5ZjBsFCSEXmRKDzbQBBDVpYy0Gzzz1Ci6DP42uG9AaStTEo6DSIHoF37OphSWPQPHYSSy+9iqWjChyshxbGBHDNRhPj05N49BtfwYNf/ixmpqe1s3CA2guDuheScuGGOFFcCeEXKi5EMAlAUEJCNY/FCRXV/CX9YRcrStuoEqMtS2IiV4OncoZyYiSteyB9RarpY/+77+GFv/wOZkmUSK1xOql1nV8dQBjAvDQWSYu1N1/AI0OTKHiSw7x/CVjZqdNPAgTiBkhy+4Bh4CQhvfcSvYGAgjjXg4gZCRxEXavZyqj0z14Dc805vF+nZEoL8Nuqslu4ymCSZ7jSjzHmcbRaJBhLoVgsYWrkeoxuvxHZ4ZHuWgkZnX+gBwTYdQha8GKl/8klkPJbnRTM5jVjdQMRYkUqysR6Avv3XAGJki+FwQeDDpXNKNVq9eoRJG2yzR1C9Rh8H/XDR7D4q5dROXN23XeHJvDwfR/5fB6f+twj+OLvfQ07r7uOVfKKT+kjUEwKDvhS2r0gv/d7MfpEL4g7IEo/kAQgBBuDBEJFOraLCbAwGjS7mYLG8CPy+doM4VJMJq6UZ6Pj023g1HsH8NP/9G18sv8DNw/1Gzdr9L0DCIMakhMn5fDQ0Dj2GixC3GVEZ6AQejJ3Ap+jVWUsRoz4mEDDDGe0Lf7EHEgGSEnYZF6WNQitDNIpn3cT9Dsd10AL77dP4PjSWTR8lZyGF8EoyntQm14hx8uOKZ3KYqK0nUWI+ckpTct3LzLtCIDAE7BFrEisQmTdBL2GMZNg27lHLPSBm8F2TlS0g6yXUcCD8xiQjmGAqAYCnX4T9Y8+wfyvXkb5zBmk0zT+186tEDfEOuJFtUe+9c6b8ZU//F1cf88+5HM59R7GgYSkyZFMgJCEQUigP4gKbwwW/T5RDF3vvwYIoq+KYxP6gQQexzF5EKKYBJUxUTEIzZaKe8jBw7EjR/DMX/wdjrz+LgNJ51K4NJOmAwgJ7SxaBBqYlElgb6GAR4emkEvwogt70BEu9q/2SLQ/pXWOAwa8iJtJjwzw0ZkggmRz/FJFMQd0fKOV5dTMtkyMRBl+5M/haOUoln3KVqZ91VcxUDAXMFURL4XSyBgmS7swuuUGZEZGAKpHT2MkVHc4CiAwJiSmKCKiIUpAKH9PNQdgErSbgYCHrUxzIldDeIAKi0AMFLEa4TwI4TTMZJt6A/WPjmDupV+jfObsJQUH5u5ZFp16tY5rdm3HI9/4Ku79/GOYmJjkN0u5QUJsgskecB6JPmxDUoFiCBxIGGDY3GvNIJAIMa5wk3n/OB1CP4DA38cwCfQ9V2j02zh29Aie+U9/j49fe5sLy3FlzQRRpwmndndYjAUcQFjB8KBxPZHO4eGhCdySs1P1knOAvjVZg7jbmawBJ2jhyUTNSWEWgYCB0j6ozIjiOggzB4o1UBkWCXRkWF0gsRaqNSbzQKyBDSQokNPCkn8B+1vncaZMLodmX/Z1BebddKfQfidfGMLUyC6MT+9BZni4+xkIHIQAAts9pEPgSZOO031uC3mMjDDQa1ekWLEfi2BZ6Jm1iHM1BGWfQycLSIiaxIPiS22gVkfz/Q8x9+rLWF5YRCp16ZiDnsU2YCw8jqtPZzK450uP44vf+Cp23HA9cvy8ITZvEICwEnCgV8IoFwLlBIj7JHUxsL6Bni6hm0FcCNTFceGRK2ERFHhQgsST+w/i6b/9Lj56+/1LxihtugloHRvsAMIAxg2zCDcXinhoaBrDHBvV+UhyIvmLWo673Qu22wZRBxGgoGcxjxEiyvXpUmbIo8210GwrUCDaA1vbGh4lnFYRDwQxjjTP4ZPKMVT95SB6+UrWJljp7raHAgOD6zAxcSMzBradONvTAhJsAEFsHxfy2I9FiGTDI0BClFiRx1ucYFGDkujQR9JGkJahd0QROdaqLqH+znuYf/VtVMsVDQ7UsZdrh8gLX5siUlVp4Vqthpv37sbjf/BbuPPh+zEyRODPAAkrKe1sClZiV3ddKyJmEV5LFwP3d0KA0DXfxRRdigMIcg0lsuzMoQQ6iAk78f4B/PxvvoOP3tmvU4875mCA5WpNDnUAYYVmpHd8KJ3B3aVR3Jct6twHik1Igwh5XU2xD4PAO34NCPpFKVBTabEXl0UUa6CAhNrcUyijJHEKgwOTOSD3ggCQsEkYFHhppCjlrUf3V3EXJ9M1nKoexoXlC2i2mzqmP35Hs0Jzb5jT2K4aGIwVZzA5uhuFiRm1ZrR0DgFzk2kwAkncDCqaQfVEZDRDjP+fzmzlVqhFCFtZiwpZ+yBsgXmMhD0KUAh9F4Q8hjQO7VQbfnkR9ffex8Jr7zA4oGJVRB+T//lygYPwokdvEAGFWrWGsakJPPj1L+LRr3wBW7du4+yLqgokCS60Gymu4UnZgwDZd8BBv6RBcSxCUgZB5oyVsAgUYcDAIobNiIte6Pmu3sCHr7yJ5//L93H8g8PKrcCg0fkVLvVE6ADCgBY3WQQ6dVehhC8NTXBeBD+mRkPsRkGDiSh3QnjhJpDQz20hroWwO8FsBzEHgfuhnUbGa3LRJzMKoullmf/ItJsBODCvQTuEI82zmK2fwnxtCT4IKAxo1E1yOGW9KORLGC1OYXL0BhRHZ7oYA17QLa4EfjzyxduyJFrcDLzIx9VGiEt0RPoFiWoIA4l+EQ22hV7/Lda1QYAoAkC0qLREywtYBKrI6M9fRPnV1zH/3kFQ9ACBg7iiS5dreAgjRgsTtZNqOdz66bvxtT/8BnbdsRf5Am0MdKEZ+JsAACAASURBVLGnfoN+hdELUaGNAY7oQ/EPAhA62KR/uKMcG4QhahcFJ4kLAYUkLILoEWrLFbz1wkt46Ts/wIWjxwNQ4MDB5XkLHEBYgd0FJNBCSjUa7i2N4O5MESlPLbi0KPfTHvACH+NKCDfLTH4UxxyQCFFSQEflZQgzB2nP7wEGXbkaPHtOBdkYEoCoI43jzdM4Uz+BxdqiYhRCC+JGjnwIJ8RiUMYblzbSqQwK+WFMDG/H5OiNyJZGrCmReWGnhTIcdEKggZ2qvSAhLpqBY85tlRz5Pr2COAYGTdrNRtdboBoQPS4IOp7bqO7X9REWgVwFEUmX4uo0kI5CXAz0ZvhzF7D82ptY3H8IPgs4laE38gIQuM48D/VKDVt2zOC+r3wBD3/5CWzdtp1dIwoVxyDjQRgEQ6DYLy/BWmkQhEFQDFlygNCvPgO/E+I+4DDtXoaRQAyBr8WLc3j158/g9R88hcUz5wOx6kYeGytYPjbVKQ4grKK7BChvyabx2FAJOzJjfXf26oVJ8YJMHybrLSJEcxGXdM4EEqKYA1ms6acqzqS8ejaQwJoD7fqQYk9hM5ArQcIzo9iDBjKcaInYCgEUdNdjzVM4Wz+BhdoSWly3ontSkMIyqzD9up6qxNUeMqkcikMljA1vx/jQdcgNaY2BbR3Qf7MmM1KI7dKwCCa7EG4nO3ctACZoe0wOhn4pmG1JnBh4KAbBT7XgXzyPxTffwsL7ByVt34YHB+auWrk/PFBiJfp5y/134eu//w3svP1mFAolBXJsQGEQ9iAUvUAaEFtKY2kXAQRyd6xFHoSkrET45esXzRCwDVEVH+sNfHLkY7z6/R9h/7OvoF6vI51Ou3wr6zrLJbu4AwjJ7NRzlIADmvdp83VrvojPDG1BjkXo9p2EGaUg80BUjgMTCJjXi0qfrI7vRCtQg2nfr8pNd9ozCHsg2gOVDqr7I9epI1q78HHzJOZaZ7FYXYLv10ApnKUpl8sLYRNSKqJAx197GeSzRQwXJjGa34Kh0jSypVF+eE5DrFMSh10JrPinzG+2BZh1CKR8G8zNEEyskSyChQ3ghipAwjt+G0gwWQTNHqSaKmpGMRNGX/P3BjMRlZmRB5wdfFDq5Nr5WSy+8hoWjnyiLr8JmAPb1KDGD0VatFCv1bFtxxbc+9XP4+EvPoGZ7duQTWW4jkPXJyl7YIKDPtELJkCIm8IGcTGw1sEjR1qyssvqtVEbEdIh8L+l0FKEHqGjN2jz+1JbquCD19/CS997EkcPHOLrSSSLYw5WuDit4WkOIKyBMeldGE/l8EBpCjfnyGffu6AKOKA6CgQKokBEB8WrMtGSCCmaOegcZ4Y0RgkSk7AHnJGRc9ETIWhP0mSyB8RrdLMIqk115Lj95zNzqFYv4EL9NJYbZbRIz8Cixk7aVnMySCryTtp1YVBg/ttrp5Dy0shmCigODWG4OIWx4i7kSmO8iFGYn0IHavZjnQEt9BEIJ/J7Ot7iYuBJVdJdkHLeuK6kX44SK0a7H3RmxahMiOvBItCDkF0MFwW7F9pN1GdPY+m1NzD/8cd6IdFOsH5++6QdfImP64wfD81mg5mD2+6/Bw986XHsvWcfxsYnlYgxDBR4HCWAxsYLEM0MqCFIDIIQVFZAM0iiJOH69KIvvF/c9U2QQL/HsR38vaRgrjcxf/IEXnv+Jbz61DOYPzWLdFqFuyiQkMBOl7jfr8bbOYCwBr0uYPna/DA+NzSD4ZRa2NW6ojQJ5FJQQYJqFxqXHTGc/CiuVoOqq0BMgQRT2l8sESRSOCNFLETpDlR7PQUQeEdBYKYbJPRjDxrIIgOqz05RFJRWSnYXbVzMzKNSvYiL9dOo+BXOzNhCgzfYauLtpKNdix0EhyfqHZz6lVJIe0h7OeRyBZRyYxgtbEWxOIVCcZSzAFonWhMUaBPb8hTwJBilQ5BJz9JFax3yyGMsonYDd0cki2DRL5gsAmdJjDCS8XcCPe1GE41PPsHFN17F8pkzRhjjxtYcJJkSOuGQZIs2ms0mSsPD+NTnHsVjT3wG226+EcXSiMpCEgYFcSDBAAdx0QtmeONauhiYAdB4WBZ7emf6LfzSVhpaUccy19BsobqwgENvvYvX//kXOPLeATTq9WBsJMFPSfrHHbM2FnAAYZV2NF0NJFi8a2gcd2ZLyLJ3PgWPMxPqgkx9gAE1xZb0KIpt6OwdKENiZ8cfxR402llOGxt1PaVdaDEoaFmzMipmQI6je4bZA94BcMZGVc8hiwYzCeGP77Uxl15ApXERFcyjWimj6lfR9OuqFjxrF4Rh6IQ5daJIuq/YzUCoKY59xpz8JcNK+Wwmj0KhiEJuGEPeJIaGJpEvECiIZgQ0ygtuRsdGHi/Uvg0gKLSoWAT2VXe3PwogBJkVB3QziGAxkZvBaAoBpOAZw50m4kd5lqh3J03Jc+poHjyCi2+8ZCRA0qPjCloFTDah1fLRqDewY+c23P3lz+Geh+/H9ut2olBU+oQe1j1sBxPM6qiAuOkprkiTnDeIi6FzjhqeFPIoz5cEIAiwCLMe4nZoVKs49+ER7H/mObzx/Ms4d/Y8Mml6N119l1UuQ+t2ugMIa2haepnG0wXcPzyN3el8IPLrdwvZkQtzQEGMku+Ad6SWHTwtw/J3JSaM1j4QMJBrsjgxFMooizoDFE+DBL5m905RXBiS9CmqWiSxBnQ/+tDv4Q8n3yEREi3gms5Eq4E5bx61xiL8VBNVb5Hp20ajgWarrqq6Mc1AOxSaulqgCZkZgRRFj+jKmsQOpNPIZXJI57LIpQvI+yWk0jkU85MYyo0qpT7XFFL1Dfj5JbufbXcvuQz0wsipiWlSC6dP1joE9XyWC8l1OCFf9/dR0Qx93QwRKZkF2ESGJ4ZZBN1Jcr+AJbARUgQUIuo+UI6DVm0B5SMfYPGVt1HhBEhKcMYj9AoCB+a4VhE6tCGAEjGmPOzcdQ3u/40v4I4H78b0jm3I54cMd4AGiqY/zfhdwgfj5g4WIcfkHlDvdXx+gp53M8QgDJLVRI5lgE9uAp0foVmt4fy5c3jvzbfx7k+exuwHh9FqtTZEYqx+c/PV/r0DCGswAsxdLU0S1xVH8Gh+EsOkeKaZP+YjKZmF2IsSIZqXkMgEcV9IciZbzgPWMGj3hvxuaw4BEnIrmO0IH6cEjypiIRUCMXKshHjWkA9cHz3XSae52p+vf7YkG51egNu0+CjmFq1GHUtYVOFRBl5ptZpo1Jd58cnmulMbZ1JZDGXHOZVx34/ObMwLNuEPG3tuXKZrdx2xeHK7IwR73J4oLUJETgRiESJ39axhsEcfEBDymjo8MdzWCIAQ9COBKAp7ZMbDsKL+nZ6P9BldYZFeG/XaHJbffhtL+w+xiE8JztRSdaWCg8BmobokftNHOpvB7ltuxF2PP4K99+3D9I7tyOeLyi50oq4toABdp9Jjv+gFyY/QbwFfCUDoAj4C4Pu8SGaiJAIGNEz8ag1z58/jo/cO4J1fPI8j7+7npFNUiItHBA+MjZEYq+88cZUe4ADCGnW8CeQpw+KdQ2O4IzuCjKbabbfpMAe0MKuZNy4BUlduAq05UOGM3ZEKejpW6Z21Ao40DySQJBeDufM3oxri2AMBB3InU5RoPpuwB/ST3AthBiFgDVIpdAED8yK086BwEA0Y+Hlo7tQLPk+KMpmuRsykKhMH4kNrJURmF0Krq2gQqA0hQEHHsrjUxiKYrILFraFEh73h9MGu3pbDQNstqgZDwHREgRmLnoBtLe0PgQN+Pl3cKfidnqXVQn3xPBYPvov5dw90HNn6xbjSwYE5fE0RLDELFMWRLxRw/e5duOPRh3HLXXdiauc2lErDSOscCoGrUjMs/Sh9U4Ogh7B1JlsJQKB7s2uOtAcJhIdBiDWBCQL+1SrmLlzE4fcO4MBzL+LIewexuLDEwkPOGaGChgJMtEZTsLvMOljAAYR1MCpdcjyVx71DU9iTK1oFicIcSKQCnSMLd5RGQJgDWdTjsiT6rTQDAhFERqVxpnwHnBiF2QO1ItvuT8BFFYZSYMZW00GegdmIiOgHAgXsVqAdlI1uVjOT2slL7gANFALxFIcLKiepyRII9T9QlwqDIGFa0ZW1u3bSnFgoCpzEaRF0QiI2Y4+boQOKzGgG0SHE1UyIBAg6qsAqqKTbWQBCUIFRA4WwPRkYUB/qZ2l5LdTPnsLC+29j8cgnavbXAO5qAgY9djISQFG6YBIy5gp5XHfjLtz84H2441N3YPq6nRgeG0E2W2CGhV0GlNpa78JtY1neA0mSxAt5hKthUICgNhedT5SrQ9og4MRrNlFdWML5U6fwyaEPcei1t1iAuDS/xO4WYvrY4eGAwUDT0+U+2AGENeyBzjuqYqV35kp4oDCDSR2+o16+7vBF+bcswCZQkKaZC7aZKTFukQ5CJDVQCDMH5rWlvgK5DZSeoTdqQSYO0knQ8k9gJQwkOFoDadYf2LQHfA0NDDhCwnQtaBBgBQfMIJBfn3IRkP8b8JohcEDhiPRfOBNgXP9qBoGuyTtt2S1H7LZ5kdUzY2RKZc04sPvHFk4o7bGkXmYdgkXA2JIFWQSSlmeKcjPIoZFixZg20n3ZTaE1Fxo/sq3YvUD28Juozh7DxbdeV5EKgRjvyncprGTqYBlNq4VMNoPpbTO44e59uPnOvbj+lpswMjmB4aESL6i+l+Ky3xJVIK+HuBbIzv30B+qdHUyDIO+5sCByP/NZA1BArFG5gvL8As4eP4GP3nwXH727H6c/OY7K0rICBvSO6wJY/AwJvH4rsas7Z30s4ADCGtvVBPI5r409+WHcXdyCkk5XbO7+w2DAtnM33QdhV0Ik00Dp67iGjKbzIlgBjjYgUWJbRS5EAYMOs6FYDhswMMtOd3QVvcb1s1mkm034mYzahZozBq2/tHCazIFcwtjpt8T9oNPCEvjhRWwQcBCa8YLFXwsWwy2XyAW+j41+N04QN8rAOgSd1timg4hjEYL7WZIYBW4Acl/YGI8IFoHuxzoDLQztEWR6bTTrS2h+cgJz77+OpfkF5Vdn0acDB0mmFarvQOYdmxzHrr03Ydete3DLzXswsXM7ShNjyA+NIJsmOK633S2V9yAurLFn3K4UIBiuBZpFOAqDetb30SBQsLCA+dkzOPbRERw79AFOHvgIs6fOMEuSyqSR4hwQ/RQSSazkjrmcFnAAYR2sL+IbekFK6QxuL07i1uwY8uzTo1oJKlRQ7QqUhiCqHHQnv0FnpezUYggp4YN8Ax6DAxYMeq1I3YEq4SzRD73QXuVYoNZRe9XvNuZAQjOJOaCQRvpp5nKQlofZgxQVwAmzCLRrJa0BzZzGgsZ+cV3pkAGCUJWGUK4HcCTt20BTYN/Bd9qvDlTsh5GlMGS6QIdAlguDFnExSCRD+FzacFn0CcIi0H1F4xC0i+yiayWE3SzMAJCNokCNdunY3CXsRiE769DH4H5eG43KHJYOvYuF/R+gUavxTtGBg6QDrvs4UvRTXYp8PofRyQnsuPE67LhlN3bdegt2bplEbmwMI2MjSKXz3Beyg6dgHslk2JlFuhdl9liEFmrbsh1++0kvQO4FElo2azVUK1WUFxexdPYcTn78CY4dPIwzHx/B2dlzqFar3CZiTbn+imMMVjYQNuBZDiCsQ6eE/WykR9hXnMKu7DCy2tffL1rB3KWTK8GsqRCZx6BFMcUkFFKve9Q9OroDYg98K3ugzleiSVYka2Cj4IINTKhCVUEuhbCbQrsWCBQQi+C1WqpcrsEQCP/IAIFcBqHFVekSlKuB26eV9hLx0KOqT9K3IlTklV/bLUrQp68nEQUqRLNXqKiRn4rCsFVxlOtHRTPwbt/eeAIK/Ow2EJHVkQWWEEsWQMZpJqKqMYZEiZxiePk8Fj/cj8X3D/KOUVVj1CPOcchJRl3XMWakI4OFpo9MLovxqUns2LEF47tvwI033YCZHddgZHIU+aEhDBWL8Ch8NJtFht8tLSoMaRF4169DeSU7If9N6yNEu0BiyhYxGvUGmo06mrUquwnmzl/EuVOncfLkaZw9fhLzR47hwvk51Gs17nMCBFKNc+AHdydseAs4gLBOXdQJfVQJe7ZkCrirMIkd2bHgjlFCPnElmHoFtSgrB7gtERJdNMiLkMC1IMWYOiLJ7lWR7qHuqFgP+rdkbLS5GOg6pDuQfI5hBkHEidxOCm8Mswd0M6koGMMgpGinLDkIdCrkYJdOExYLIAd3dAZ5EBgo9A4KdU0dlqWjFHhnzfmY7ccrHYJFzBgjVAyAT+BS6b42P3tEYqc4HQKDGmITwm4ded6IOhFyd74vfFTPn8b8B+9i6ZOj7Es3Q/OuZkHiaqYRQ9OpcmhpOp8WbAYL2QyKpSFMz0xidOs2jGydxrbtW1EcLiI7MYkdk+PIDBXgt9rIZTMYGh3Wb68esYyo6eWgmAT1ISBCRZEajSb8ah3LS2UsLMxj+fwFLFxYwNnZM1g8cxZLFy5i7uI8yktl+E0S/rSRzmQ4IkExpZ2PCXRWYw937saxgAMI69wX4m4gVvz6XAm3F7ZhNF2MvGsUOIgSJNKF1C5f7e0pekFyEYQZBFnYSW/Au1svHckgqGuSGFFd26Y9kIcgt4KENEa5FwQYEGsQuUjJDj6CQeCIDL04EpXeyulttii5woAhSd8aCzH78nVIZdSp6hgNQqQwV0zuhMhoB5Pat7gZGChEuBo4yVMECIqMZjBYBavAMs7VQPdqNlA9fRTnD76D5TOzQSJxpzdIMsiSHdOzwBqRDLSgU0lkv9ViEJHPFzifQL5YxJbtM8gMj6Da8jFC/961Q+3qKUglnUYxX0DT91GpVXVD2mg2fCwtL6O8XEZrfhHV+XkszC8yUKDkZH6jqZIZUdQRiQ0dM5SsE6+woxxAuAQdqrKsUdrhNnYXRnFHYQeGtP+/C4FrdiDMHESBA3MnT79zaGOQF6F31ZIcC+LDVv/u3f4KwBCxoWITFJ1uYw9EVxEnTlTqfJWXPiqCgTUGskDbaPJAh6AzKuY7AGFF7gUyficwQUUySIfYWAGd90BcCz1JhMzdlORDIJuFkw3RcTFZFRkcSLZH3UZznAQMimXsJmIRzKgE8xrCIhjP3iK9QX0R9WMnMX/oLSzNz7tIhUswZ4RvwZIccS9x3RLFBohLIhi2nodMLqMrTraRTqWRzqTZfUAgQd5k3rjQOCCdAf2dM5CShoAliV33MsWGjiW4DJ1/GW/pAMIlMH4QMtRWosVbipPYnZ3sAQlC5YcXY60L72mp7OpJcxBOfmR7LIlaYEERRy6orIjhTyfnAekKVCGoKPcCiReJs5AESVZxIgEDvaOJDG/kHUobnEXRoj/gyZAXXeXXTzVaaBkAQcR0K+rOhCxCVyQDtUTjqyg3g5jWlpY58BiJDmEQFiEuvTJZMSqzogAVXZWyy1bCINAf9UJEPV8jvcEnB7F06CP2O7swxhWNsFWfFK5Ial5Q1XmIjhiIylgoLqG4cxms6rQWq34Id4FNZwEHEC5Rl5kveCmVwa3FKezJTiIXWqQpz4HolNXCrF58k0UwF3VmDSj/fUur27VmwHwsYSQopJFTm0aENZpAwIy0SJRvoV9yJPJXSx4EU5xIfwz0BxoghCIY+ETtXqDY8FZWK/NFxEgTGCn1zV35IP2aECCo9ndWcmY89MRso/yDhEKWug2it+DZ1yZk1CxCpFixD0jgEEXRShi2EC1CpHm4L1KgVNaV+VnMf/g+lo4eRdsnvYEemUYCoEHM7I5dXwusdCF3yYvWt18289UdQLiEvSfCRfo5mSngjuI0dmZHkfHI+SCCQGMBsqnfuECL2vmLL9+s0GhjBJhp0CGWHSbA7oKQ78ksFLkQxRzQ90m1BwxwdDhjXwZBIhMsOQ1kEWaAYIoRV6pBEPeC3nyJUDFOhxBoEHT0QpRgUECNgAqr359TFA8OEMRNE5tZkQCCToncBRY1ixClYWhTfoPmMmqzp3Hx8H5OfqQcL2pcOlf0JZww3K2cBS6zBRxAuMQdYEY3EEi4vTDFICHtZTVLEB2twIuN1GzQzAG5Fzh7oUdJV7pdDYp5UIHT9B1FLkjthqhQye48DZ2KkWEzid5AsiaKkDF8HIsSjZDGINVyKEGS2lGvkkEYNFGSZFLUGevY8lqHEAUSuhZW9tVECwYDBiEqB4GOGWdKPyI0UTQSJlYk4SNFcxBAsLEEPE5iGIYoFoF6u1a5iIXjh1A+/DFqy+WuMsUOHFziycLdzlngMlvAAYTL0AEmSJjKFnB7fgrbs2NIeTmrJkCayFEJuugSZ0lkylcVZIrMjSBuBa0lUPqG3myIAiYkvLEfeyA6Bbpvg0tS2ZMjSUijmfvAGuIoGgSKx5dddahvAgbByKS4Jt03gFCxhxkQl0NUZKX+u1WHQBeLYRE4Oo2Fnb1aUk58pJPV9WQ5DOUu6AFtlvoM7ZavXApHDmDp2FH4jQYL3eTjwMGajDR3EWeBTWUBBxAuU3cJSCDZ3XS2iFvzk9iWHWeQEPVp6kRITPu3U6qMMxcSsDMHDB6oGBMXKYAuyGSPWjAZAM6/zmWd7R9hGTo5EtRO1pbXQRgETrFM4VNZlb2x66M1CHw/1hF0Z1Fk8KKpca7FEAYIKvNLdPGkpH0cYgPMgknmJXpYhIiQRDonONa8ttkFwiIMWAK6i0UI5X5gbYSulRBVM4LbRVgsDTRrS6idncXckQMonz2r8hsYHwcOkg4gd5yzwJVlAQcQLmN/BiDB8zCdKeKW/DSDhAzv+rs/wh5wqCHVHrCUbjbPEN1BkO8gohATnSNZGolXoKgE8TmrKInej7AHkhhJxI22UtWmS8GqP5DLMyWud9ThKAbyPug0ywwWLABhxWGOcv+uxEQ6oiKqdoFhEtEgRGZUpGMNcNCjWdDMCTv3bbqLiNTLAj66ylWHx4x2W/ToDXSdBfg+avWLWDjxIZY//hg1KrATFFtyeoPLODW4WzsLbAgLOIBwmbvBBAlTGiRsD4EEExyISyEuL4FE84v+QC309ty9Zg4DAQt0PwpdJHdDVNZEkz2IEjImYg/0AkrMQcAgkIvB9Ml3JUiyAASzD31iIVbQqeIKkBLHugZBz5Uke6IJLOLcDBociGCwZ7EWBoEAgi1fArEQWaPSpNGgOBZBDrO5NrgNLR/lhVnMHzuIpePHOb2u5M7kSJcol8kKTOtOcRZwFticFnAA4TL3Wyd8WSnFpzMF3FIgJmGCoxt4p6i1B8QcBOtSBINgRizw8k6FhSLyHShAoFZTVY1R/W5LiCT3leMldFLYhFWxB3Rxk0EIAQSzUBMd2sMgkOV0lUWbcj9RF4d1CH00BeYCrISE9poMXbkTbMLBJABBbGNpk2SWZC+STeio7ylFnIilqbeW0Dh5CheOf4DyOedSSDQ+3EHOAlehBRxA2ACdHgYJU5kCdhcmsTU7haKXC4SILFCMyGjIC6cuqES15JV80ayf0MsgqOOJKVDAoJ8wUe5hahBswKCzeKrwyiAcM5z/QA6U0Dv6d0QkgoCEoLqguRhKHoRBoxjMvpfFlxZaXb2Qci706BA0gyD9wOCAs0Taazgw4CLRIOkEhPKX4xmZac0F4UNpv8W10ZdFsJR6DvpB54cgeepy+QwWzx1B5ZOjqC4tOZfCBnj/XROcBTaqBRxA2CA9Y4IE+n0kk8Oe4iSuy04j5xU5EZL5sQkCTd0BJxaKcS0oQEBhj1QMVhWAMhd+u2uhAyaC5Eu6bLXNjKYw0fN9pci3gQQtTKQsilYGIKD9O4ssL8wCErgOjfHdKvuUaXla8zVY6LmclLqXdnF66IiqjvpkU3vQo0MwhYp0vAkg5HzSIlgYAgEgDKBswEIXmaqhjObZMzh39ECINdAFqJxLYZWjxp3uLHDlWcABhA3Up2b4I2VeHMlksacwiZ3ZbchiKLKlXTt6HbWg3ATxugNzke+XUrnbFaFKO0exB6I9EIFikCQpXOKZnojICxLNm1R4uMyzpAHWIIBV+iYgEIDACy37S1b+IWDVhxGQKo6Sg6AfOODjiUmR9ocX8n5uBm0jLh0d4WZItdrwwywC3xeo1C5ibvZD1I4dQ3lhUUV8BLmeVfVA93EWcBZwFghbwAGEDTYmTNEigYThdAY7ijO4NrsVo217FUipyUBVGiXPQZwrQrkSOmGJKqwx3n0hjAPvWKkwlGYfrKGNVAGOastznXrFGpjJkkyTcwliKdBkW+B1MiP2sevQPCWyM8SI6gEYGKyKSejkqOKFNSrbILffYBFaaQORWNbavjqEruvp8tDGJQUQRQEEcolQ+GcXQKC/1VpYXjiOc2c/wvKJE1yhT5Xp1b3ogMEGe/tdc5wFNpYFHEDYWP3BrQmDBKrGtiM/hRvTkxjzSkhbciWoOgtEi5Mo0Vzso7QHBBC6F3oFGvpHLtB94kIb+Rk0OJDQRgYMOt1y2OQBSJD4fYNBYA2ATibURbGvsYtBJSMShKBa2A8gSLprqnsQZCOO2IybOoSguFM4HwL9mwSaERENlGLaxpCQUJEYBIpqkDZXmnNoHDmJC2cPYnlhXj2QlLN2tRQ24FvvmuQssPEs4ADCxusTK0ggGngmN4Td2RnMpKe6QEKv9iCqSqNiDlQFRh8+lKuAQEEUODCZAzGVMAg204XdC/0YBHExtHOUtSciRJF384olCIR+YUGisAgrCXHUDyIZCzn3lBYqWoeHCBKF1YhJlNR1vnY1BOAjDCb6JU1iDUJbgQArUwGgCSwvHsO5s4exfPIkms2Gq8C4Qd9x1yxngY1uAQcQNnAPmVXWqO47gQRKqHRNfhu2ZqZR0qwBswesuJdq73b9QSfngVrhOq6GeIAgIEFyH5CwMUp/0EqlkNJaA4lgkHTLokXoMrmk/dUb+B4hnuRAICKBdsniZggL9lYiVDQiF4I2aRIhFiCYkQyapo8t2iQpkSWiI64So9Rl6d3oUQAAIABJREFUiGAimEUIfScuhsXyGdRnz2Lu/Icd1kDnNFhppb8N/Hq4pjkLOAusswUcQFhnA6/F5bvDIIFCegjb8hO4IbcFoyhyngMV1kg4IVqh150iWUUtxDEH0nazgJOkVLaBBGEPGFAYqZWj9Ad8/YzO22i6DEyjSaIhnTq4p9Rzh9YYXH8gxZp0ZmFmKURM2E+DQPcNZ0iUtvQs4J1QTwl3jHRfCDsQwRKEAQIBpoo/h+a5czh7+kNULpxDy/cda7AWL567hrPAVW4BBxA2yQAw2QQSL3opD9uy07g2N4bx9ATyXkEnOIoHCCq6wdSwSzhk75bVzLJosgeiPxBxZLBGG2JEvgeVmNaMAv3s+WhQEIgUbWF8RibCSPaAOftVChTZTaBZGC3i40Vcck3bdvQiVCTvRx8dQlioyE22hDMG4seo2gzEPmg3itdoY2n5OM6d/xiVM7OoVyrKxE5rsEneatdMZ4GNbQEHEDZ2/3S1LgwS6EvKl3BNYSd2ZLZxUiXbJxyhMEjUgplGOQoYhO9psgc9lRvNg6XEcy6ligvRIhwGCbJLpxDBKPfCagCCuBQEAPBPlbyIhYW6vVGFm2LrLBjPmhwg6MRJkQBBtW+pMovq2XOYO/8RyosLaLV8pEgY6iIUNtEb7ZrqLLCxLeAAwsbun57W2UBCPj2ELdkJTGbHMZ0eQyEEFEztQacgEzEHvREL5g3DoYz076jwySCUMZ0GMxyaPYh0L5g1CkigSAWaIgBCoNJfa4Ag6ZUNlkABAXEJ9IlkCLkhYnUIZkZFCv2MqLvA9teuDo7eCDEXS948GufPsgixevFClwiRCAmx/SYb1q65zgLOAhvQAg4gbMBOSdKkHpeD57E2YWd+B3ZlZyJBArkKpGJjVM0FExgkZRDMXAcCCmLFifSQJFAk5oAjGEIFmszdtyRGknBH0i2shUhR7qEXYcYJQvubboaIDpHQRUm33C9hUhDqqO8RCSjILjqvA4MEalajhcXlEzg7fwSV87Ool507Icl74o5xFnAWWLkFHEBYue0u+5miTO9kYAQUmzCOyewEptPjKOiCT8QiEGNAy40ZvRBOqUwPZWoPVBEnlWNBMi9GAQvJc0A5DwgcxCVIklTJQeaBqDoKOopBIhj45zoABNZMSB0GLVQ03Qe2zlYuCKpwoHb6gzAIsccbQkWv6WNp+RSW585hfv4YyssLSoTo3AmX/f1zDXAWuNIt4ADCFdDDPWwCPBQyJWzJj2MqvxWTGEa+7aHBeQ+UayEu0yKZhFgEExDE6Q+C3AdaiBi4F2KSI7HZJYJBaQwjCzWxi4ETQCmAY6vmyCJFYiNWU7BJCxWZRdDoy6Y9CIBBW9vRDHWMSfOcmEHg4k4tLDXOo3xuFvMXP0G5vAC/SZkQlc7AaOIVMILdIzgLOAtsRAs4gLARe2UFbbKxCel0GsXsGK7JbsX29AyyXr5vWGN3ASfiDzpZGfvqD3QUA4kUiUUQoGB9HAIHUjdBuw56BIrMrYNzHwiDQLv8SICwFgWbjLwLitvvbb3kmwjSP+tDYnUFxrWC6AUjcRJfgoBBs4Ul/zzKF05jfvE0KosX4DcaqikCRDRAWMEwcac4CzgLOAsktoADCIlNtTkO7GYTqM1tdjtMZScwnpvCltQEsl5O0eKWTzi0UYoymVoE23lmamUJcSTBXGR6ZdIVSBShjmaIBAgStpcmlmAdAIKIFYXJ4DxSyj6R0QsCCiQ5lXYLsF0TsggBoCBg4Lew1DyHytw5zM2fQGXxIvxGXd9F2cp9nAWcBZwFLqUFHEC4lNa+RPcKU9CsbIeHfLrI2gQCCtOpKeS0PsFslskgiNZAgQYqC00xEPaVSso4q9017fpTiA1xFJ89LaYJGATWB6wnQAg/FkUaSMlnY/cf7kLT3cBVGyMSHAXn0TF8YZ1WutnGUvsCKvNnMDd/EtXlOfj1elc0gsuCeIleHHcbZwFngS4LOIBwBQ+IbreDYhMEKEwXpjCWnsR0ahJZAyiYDAKdYUY02MBBV/bETAbpZpOzKPbLnsjRCxKJcDkYBFuIYwAElHRSaQa0PiJiBy+RC5whUaITYlgEydZIURvVhXNYWprFxdosqpU5NGvEGKgQUUlmdQUPT/dozgLOAhvcAg4gbPAOWovmmTtQiXggsVsuVcRkZhzj2SlMpxWjILkOpNZC38iFUCnnvsWZ6IHMBEn1VnSYo6k/4HPUxntNNAjWHAiSNamTRrkfQGDYZdTA6MciNKpLKPvnUVmaw9LcWZRrc2i2mgEwkP52rMFajHx3DWcBZ4HVWMABhNVYbxOfG2TcM10P2SnksuMYxhCy7e5S0InYA9+Hn1EhkbHuBYo0aKq8B7yjjnIxECbwdASD5AOIEymuJopB12XoSq2sd/L8QDEagL7hjq02mpUlLNXOYGFhFsu1C6jVyxyuyJd2AoNN/Ca5pjsLXLkWcADhyu3bRE9mpubNp4rI50oYzY9jMj2DUnsM2bbSHcQBBNEfkFuB3Au86OmKjtZGUARDkAChwyjY0iwHEQzEIBi8e0844xrUYuDcBAEY6LgZ4gzZlUI5SICkRI7N8hJqlQVUm3NYXD6P5eoF1JtVtFuqOhS7EnQWR4cREg1Xd5CzgLPAJbSAAwiX0Ngb9VbhapHpTAaF9AjGMuMYSU+gkBlGCcNIS5Wg0IOEqzj2ZRDoAJ3syBMXA6VaDucwCDMI4gHgksjhRqwyDwIzCJ0Uy0E5qz7RDIF7gY7TxZsa1WUs1WaxsDiLytI86u0Kmn4dUrJbQhJcYMJGfSNcu5wFnAV4E/PwnV+TTPTOIlepBcL+bg5PbLeRSWeQ9QrI5YYwlhvDMMYw7s0go0WNDAwogZERsWCyCfJ72Ky0++ekRpJimasmtpWrwfxoDQILAEkwSOmYKZ4iq883AcVqGQQj3bKIE1moKFt7Wz4EnUmRtBGNRhnLzXMoVy+isrjA2gJiC1ptSkvl3AhX6avlHttZYFNbwAGETd1969N4W0GodDqDHPIYzY2jkC2h6I0gkxvBqD8MpLMMFBgspNPx+gNqstYeqNBFy2Ivj6V1AZwcydQgEEDQoCGwwGozKZruBUm1rAssmbkQJBui1wLq9TLK/jmUaxexvLiAamMBDb/KGQ87H11LwdEF6zNY3VWdBZwF1s0CDiCsm2mvrAsTo8CUEzykMmnkvAIK2SEM50ZQxARy2RGMNUtoZ3Px+gNadGmBb6m8BoFAMcweqJsxMAjAQJwGgXUPuiT0SkxvLOAMCMS1oNtBIKVRK6NSm0ettYBacwnV8jIqjUUFClhwqBpo6glcNMJKOsOd4yzgLLARLOAAwkbohU3Qhu5QSQ0WKMIglUYGeeQyBYxkR1DKTCOfG+GFchTjXU/GwKDRiV5gkCDuBlsNhTCDIMLGdKgMM4U/6jTLK6nHoACBXt9TnRwEzXqFow2a3jIqzTmUlxZRqSyi0arCRzOIQmAMoQWHTmy4CQaza6KzgLNAIgs4gJDITO6gKAsIs0AAIpNOI+Plkc0UGDiUssPIZLIY8seQy49gtD2CtkfpEKH0B6I7kNLGcWY2wYKswnQJAhbkXjB0Cpy7gQDDIIWb2kCzUUW5Podaax61dhm1ahX1WgXNdk2BgmYTLc5KqT6d2ggquZH7OAs4CzgLXEkWcADhSurNy/AsnMbZKCJkxiKm06ooQRZ5ZDJFDHkFpHM5Bg1FbwzZ3DBv3VNIYxgjQNYoYkDuhX4LvKRrtj23DXS0AL9RRbW5zGe0WnVUm4uotpfQbNTRqNeZMWi0q2h7PloEMpg60TcwqigqgHAZDO5u6SzgLOAscIks4ADCJTL01XAbEyzQ85o5FkT4KKCB3BKZdB6el+ISxoV0AalshsFGJp1D3i8hlckiky3GZymKMGy71USzWUGjXUe1vRis8MQC1OoVtPwWWm0fTb+KJhoMBtTHDOrp6AlcvoKrYQS7Z3QWcBYwLeAAghsP624BO8vQmyjISykGgYSQ6XZWgQdPZWYUlkKOUccZy7kOzWzTAk/sgdeG36IyyW00PVUuWa3/bQYDQSVJEV+aokRXTnndx4S7gbOAs8DGt4ADCBu/j66qFgrrYD60KZCM8vWLFqLHWLq6ZJQRmS9wgOCqGmPuYZ0FnAWSWcABhGR2ckdtcguE3R+b/HFc850FnAWcBdbdAg4grLuJ3Q2cBZwFnAWcBZwFNp8FHEDYfH3mWuws4CzgLOAs4Cyw7hZwAGHdTexu4CzgLOAs4CzgLLD5LOAAwubrM9diZwFnAWcBZwFngXW3gAMI625idwNnAWcBZwFnAWeBzWcBBxA2X5+5FjsLOAs4CzgLOAusuwUcQFh3E7sbOAs4CzgLOAs4C2w+CziAsPn6zLXYWcBZwFnAWcBZYN0t4ADCupvY3cBZwFnAWcBZwFlg81nAAYTN12euxc4CzgLOAs4CzgLrbgEHENbdxO4GzgLOAs4CzgLOApvPAg4gbL4+cy12FnAWcBZwFnAWWHcLOICw7iZ2N3AWcBZwFnAWcBbYfBZwAGHz9ZlrsbOAs4CzgLOAs8C6W8ABhHU3sbuBs4CzgLOAs4CzwOazgAMIm6/PXIudBZwFnAWcBZwF1t0CDiCsu4ndDZwFnAWcBZwFnAU2nwUcQNh8feZa7CzgLOAs4CzgLLDuFnAAYd1N7G7gLOAs4CzgLOAssPks4ADC5usz12JnAWcBZwFnAWeBdbeAAwjrbmJ3A2cBZwFnAWcBZ4HNZwEHEDZfn7kWOws4CzgLOAs4C6y7BRxAWHcTuxs4CzgLOAs4CzgLbD4LOICw+frMtdhZwFnAWcBZwFlg3S3gAMK6m9jdwFnAWcBZwFnAWWDzWcABhM3XZ67FzgLOAs4CzgLOAutuAQcQ1t3E7gbOAs4CzgLOAs4Cm88CDiBsvj5zLXYWcBZwFnAWcBZYdws4gLDuJnY3cBZwFnAWcBZwFth8FnAAYfP1mWuxs4CzgLOAs4CzwLpbwAGEdTexu4GzgLOAs4CzgLPA5rOAAwibr89ci50F2AKtVhuplAfP8wKLtNvt4O/OTM4CzgLOAquxgAMIq7GeO9dZ4DJZQMAB/Wy1fAUY/BYy2SyDBvn+MjXP3dZZwFngCrCAAwiXoBPNydrc7Zm3pp1fu01/aXftCOOaR+cAtIOMPmotFoqV3Kfffft9fwm6JfIWSfshiV3W4zlMcFAcKmDL1ilUGz6K+SzOn72ApcVy7Jgw25S0H5Ietx7PeymvGe5Tx85cSuu7e200CziAsM494tECzju6Fu/q2u0W2i1GAsGHvk+l0kin1ErfSggWzMksDnisdnLvdx8brW2jv+WBNxMNTmBBPX/3h+xtArMkYMEEHuGFJ8n5XWPG81Cv1XHdjdfink/fycwBXePll97GyaPHkYpBjT2Ata3GHIFTy6MinU7xrW12iHp94vq/P+jtHDGoXVbzOpv3Iju06F31W2wX+qTSmSuenYl719fyvY26j9oo9W584txp4XdxNWPAnRua5x6+82u9s5+z0ootEB7cvt9Cq9lEoVjA+NQEJqYmMDZaQjqbQcv3ebd34cIcFi7Oo1KuoOn7SKfTSKVSwWRtm+vlPvCANC9WvTSC32qpuc3r+KsHfTBZFOj61KbwXfSywqCHXmL5EM1N7zmBnnDbaDFSYElPvBoYDdq2tTo+zBgQmKO20fNmMlleIOl51CoJkF2bzSZ83+d/p7oWUDujI/egzmCXgJ4E+QIeXZ8W4f6MkPnMdIlP3Xc7rrt+J1JeCsvLZTz/9MsoL1c67Q0ZSSZaAT70nDR00ukMMpkU0qk0jxd+1Fabx2PTb2pQ6yFN4xLxOgeT4WjTGEz0UeCEJ3seM6mBAVii20QcFLxPGgzQ+zo8NorSUCEA7hfOz2FhfnEgoLSaNl3qc01wyAu12Xfy/nsKKEZtSJK02bQ1ucWCSYpO9hDMfeIqY3CmN1nm5sqj+YjnvcHemyRtdMcoCzgGYQ1HAk9werjSy5Uv5LD75htw3wP7sO+uW3HDTddjZKSEXI78xCnetdELUi5XcOLYKbz/ziH8+sW38P7bB7Awv8ALh3zC6z+9GLRAlUZH8Fu/+yXs23dLz5McP3oSP/jHn+LY0ZMreqFlIqA27rnlenzj938D09OTXfchAPTma+/jB//wz2g0m8F3tEgMlYr4N//Tf4+R0eHg782mj1+/8CZ++P2nVtSmNewutQgabh1a+GgBLA4NYWJyHFPTExgZK6FYLPACSh/fb6LRaKJSrnIfXTg3hwvnL6Jeb6jZTe/CA0BhNFjutXXbNCYmJxh41GoNnD55GktL5b7uIvPZyb7kXnjokfswOjaCbC6DIx8dxxuvvtUF1MLn0Lih5ySGIV/MY2J6CltmJlAcKqJUKiKbyxLnxYapNxrcPnrO2dnzmD8/h0q5rAFNvM6Bxs7wcAnX3bAzUZfROGo0GmzHhYUl1MpVvj/9XWy5XmxCZ8EC8rksdt2wEzuvuwYjoyUN3NSidWj/Rzjw3iHQGF7NApnIIJfpIHnnJybGsP2arUErlpcrOHVyFtVKjftjLUACsabTWyYwqd8FsunCUhmnT8yiXqt12ZjGO22wtsxMIpdT7+Lxo6cwP784kFv2Mpl1097WAYQ16jq1+1EXo8nkpr034uu/80U8/OinMTk9wX8LK87l1kKr0c61Vq0zQPje3/8YL7/wOsqVKu+mGM0Z23d6mZqNJqZmJvBv/uf/AZ/70iM9T0LX/dM/+Uu+Fi1oNO+vZGIjFuBf/Y9/hG/+wVcwNj7SDRCaPu9a/7f/5f9GvdYIdp+0wx4eGcaTz/4NMhn1QtOH2vzUk0/jf/9f/20w+a5RFwx8GdkxkV3JxmMTI9h1/TXYunULhoaHeBGlxTRsM3NybNQbuHhhDkePnMDpU2fYBnQ92wQqAOFOAou7dyGbzaJaqeK1X7/D54b72PZA6ropBirT27bggYfuQo6EiekU3n1zPw4d+IjdVTSWZGGlyVU9o5rYCbhdd8O1vAAMj5S4f0ymyByXDBY81W/z8wv45PAxnDoxi2qVFopUpBiSnnXr1ik89Pj9QTvkWtbnIgaKd61tvlelUsXc3AIunL2I2dNnePwSs2D22cAdbjkhAAftNoOjvbftwfW7r2VAyLbWzJEAhIP7P+T2XakfemZiMGkzs++uvcFjlstVBkgfHfp4Ve+tzJM0PqemJ3HHXXsxPTPFi/xQMY+jn5zEay+/g6Wlpa770PF7btmNW267EcVCgVm8V19+EyeOnWamYyXz2pXah2v5XA4grIE1g0kLQLFUxOe+9Bl861u/hR03XMsTd5fmIMTRK/+Zx0yCLODtFnD29Dn80/d+iv+/vS8Bs6uq0l01z/M8z/OciSRMDTwnWlTkaRC1hUaFjrbt80kLT3m2PgVsBZHXSGglIArYgAKKiMxDyFhJpeZ5Ts1zakiNt/r71z773nNvbtU991ZVQqh98vGRVJ1pr73PXv/+17/Wfv6Zv9LYyBi5e3hoTke8sB4g/K/bv0pXfOgSs3OWTcKkdrK8mu6/+z+pyYUPm1mKxSXKLcikO/7tnykzN53ZPDhNPrQ47WsvvU0/+cGDvLKW9LQECM+/+igzCLgPDnzoLzzzV7r3rn3cpvN16B2Nl5cnxSXGUkZ2KoWEBLMTYnpVc6pgajhUZALD4EYeniIEJG0BR7y4sESdnT3U0thGM1MQCZ69ypIAoaAol9KyktkxT01OU9WJWhocGDEEELTeZ4BQUJxL2XkZvOKfn5+nQ++W09johBWQZHCA8aKFeiKjIykrN42iosIJFK0+nII+QtxdhAgEoAXLgfEoqX+ExQYGhqmxrpVGR0Y5tGFP44K2RkdH0I6Lt7DDsYxJNqqZaTEzblqH6Cd6yZKBpelqPyUA2Pw8My0SgK0m0HVmbKHticnxVFiax0wKZ4csm2h6aobBEGzQ3d1Hvd291tS7Mw+5AM6VACElPZkKirLNThp9gX6vPF5D01PTWhjAtVCDDN9hEZWRlUbePl4cboWOpr93gCpP1NHU5NkAIT0jhXIKs8jX14dBWkV5NfX2DCiAsIHjSgGENRrXHLdbNlFoeChd97mP02du+DgFBPqbHTkmcEw2Mo4vBIsmnlx5haI5XdYdaBMTLgad9+Lzr9FTj/2RBgeGNQpbzK+2AOGqj15mF0UvzC/Svgceo+efftklFgHveNOte+jTe/6egkODhKPQZmWAmiXTEr32l7fpJz+0DxCee2U/U+A42AEBIDz9Et1798PnDSBY9ABEPr4+lJqeTOlZyeTr68tADQAIE9DY8DgNj4xxbH9hUcRKvTw8yNfXm4KCg5i9CQgMYCeKPsZ1nR09vIqfmZw+i0WQz80vyuXneXt708z0DFUcq6aBfvSvNUu00tCE8/L09KCdl2ylqJhInqzhPMsPnWSaXn/omYw4OMDCbPL39zMDOab0JyZpfHSCJk9P0pm5BU0LQOTv4819HhYRSiEh6Ht3AZrIjSbGT9PJE7U0Ojx6FmPB2FEHEACEMP6Hh0aZEYD+ZhnahsUlfncPT08G0j7e3uTr50P+/r7k7etDnhIUA4DNL7CDbm3qYAdlqxtZy2csbZRfmENpWSn8XADC9tYO6mjtprm5OQ3cLnNY74O8WpUAITUzhQqLLGFL9NPs3Bw11rVQW0vnWVokI/aX7AGegfBdfnEuRUSEmdkrAG+EMapWAAhpGSmUX5RNPj7evBjBd9PbqwCCEdu7eo4CCK5azhy/FktpULUIKdz41c9RQKAf31U6fOlwoDWAgAwx1tmZWfLGBBwSRIFB/jxpg3Lm+DALFIWIDxPxs79/if7w1Is0MTohGAkI43jVKkIMYBDsAQQ4Y0xmJ49V0/33OMciYGUHgVp6djrd/n/3UkFRDq+c9ceFCxAEA+Lp5UmYdLAKB00PJwaHOTI4St2dPTQ8OMITETMmkvlh3ScctCcFBAVSckoCJaXEMbiQ8f32tlPUXN/Czl+u+EXYQYwVK4AwM0MVR40BBOnIALQARi+6eAuPG7SjsbaFaqsarFgk/co+LimeCotzKMDfj8cV2grnDkp3sG+I5ubmzSyWFNLIlV6Avz/FJkbzas8/wF82hMbHJqj8SCVNnsZqz5ox0QMEMDTQE+AdW5raBAOgE7RahIlgLDxY0AtQEh0TyY4EK0aZCdTfO0QNdS10ehxMydpj4QLMCMBVUlZICclxPM7RphNHq1hfIp8jRZTOpCKvYXo5L5euBBAEeHWjwaERqj5Zz6JqOU85A5jQ77B1Tn4GpWWlmUEg7q8Awnnp8lUfqgDCGvtETC6edPFl2+ibt99CUTERvMIS8VKxEoWQpraygQ68dZSamzppbHSMVyL4wAAQ8vIz6JK/20HFWwooODiIr5UfH5x8Z/sp2v/QU/TWawfFxOoEgwDfhlXlvgcep+efNqZFYACiqclv/Opn6dPX/z2FhAZbsQcw24ULEATAik+MZZoebA/6Y2Z6ljpau6izo5vmZiGSslbSW4aKIMbRN2AB0jKTKT0zhR0b+h4rzvqaZurqOMUrUevDdYAgJ2noHrJy0jl+K/UGh987QQN9A2ZdgACoQsgaHhlOW3cUC7EosjCWlli42tLQxlQucwJ2MkkkKyKBSXRsFBWV5rN4D+MQfzrauqnyRC2DBr2jsAUIAJtN9W3UWNdsDs9Iu8iQlcyskGEDiHyjY6JZE4CVJrNmS0tsV4CNM2fOaPoc16hu8/OXlxmsl5QVsC4Dgs+BviE6ebyW2Qr9sVZx3hqnmw2/3BFAAIvQ3NBObS0dTlH7kmlF6C4iKpygwwmPCONvSB4KIGx49zr9AAUQnDaZzXRvWqak1Hja+80v0aVX7DLHavGhYSLHBPqnP/yNXn/5AI2PjrMQC7F3udoUedbEK6WPXHMFXbvnaoqPj7GABNMy0/ivvPQOPfLgE4TMBKwYjYYYzCyCpkVobuqw6wz0reJ7Ly5SRnY6/eude3nlacseXNgAYZkBD8BBTFwUO7uZM2eoramD+wttX2lVZCuSQz9D3Jadm05pmSkMFgGuBvqGqbqyjul7ea+1Mgh6gAIwmZKWwM/DMw6+c5TZKWsnvcz9VrqtiJKS4rV0VxN1tfdQQ10zh7Bsazk4Wg3GJydQaVmeYLuWl5l2Lj9aTUN9A1Zag5UAArIAREqn40PL0CXoJvIKsig8MpTbBwAGsNHe0qlpKHAv10EC2uHt40MlW/IpLl4PEGpYI+LIJrYtMQIijJzj2ELWWTjWQMY1m9gDCHKuYiINLMLgCNVU1tOEkywCswdenpSdl07pman8dwk0AUYVQDDS4+f2HAUQXLC3PpaGFeRHrrmSvvHtfxS6A01PABoYq9HfPvIsvfbyO/wUiMKkWtz8WFmnYMlE/kH+dM11H6UbvvhJioqOEOdq1DZU8g8/8Di9/foh80reUYhBv0LCuQ/94jf0wjOraxGs2IOvaOxB2NnswYUIEKTtWaWdkUy5BVk8KaGvwNIgvipFcNxfq1So5OlXWzWDSQkNC+EVPTQBmEShwgdrBEBnGS9i0nY1xMA2N5lY97BjdxkLKrHabWvBKr5ahAi0PRqgiwBTgNDClm2F5O3lyQ0aGhymyvJaLa3SeScC2xWXFVBaZhIDYNwTgKOivMrK8a8VIJi1PRq1HRsfzfFnMGw4hodHqOZkA6E2gb2UUkeftf47xLOQelyypZDiEy0AASI4W4AgWRV7FUzleNBrXM5SDvOLWcCMEaBgua9NgTUZYmH9iyXF2rrtzgEnW4AAZgmAGSFR6HVgpzNn5qi5sZ3aWzp4PDoCUGb2YFlkLhSV5vL/sViS9kUqMQCD0iA4Grnn9vcKIKzB3piQE5Pj6Gvfuokuu2qXVvNGiA5HhsfoD0/8mZ787XMcx+aPSH7FNs+0OJolSk5Loi/vvYGu+NDFVgpixMaffPw5euLRP9ImGAOsAAAgAElEQVQMFL4eHg41CPIxFhahhn5+z8PUAhZhBe/HynGwBzkZ9O3v3UpFxbl22YMLESBIpw6qHRRnbHwMT3Ajw6NUU1FPIyPjQrWvS1k1MjxkrB5aBoQbZNpga2s3tTa0mXO618IgyDGCyRq6h5KthTxZw0EfP1ZN3R3dQiipgRZ+Jw8P2rK9mMcoxh50ABXHa6m/p5+Xnkackx5kylh8dFw0bd9ZwkWVoGU4PTFFhw+Uc4qupWaBJYsBGgQZYnCKQdD6gVkaLy+uKZKVk8b2FYK5Vmpr7hDg2wGY0/ejXuDI4TxyY+cEViY2LprwvlglVx2XDIJWSZJMtLQknbTeyZutZP6uwJJAcIn3llUtMdbmFxZpYW6eFgHm0Ac2gMH6PeWz3LiIFS1roS1ztUEJUlHQy528vYUDx3OmpqZdElTaAgS0Y3p6mvp6BlkXEhkVzkAU9qmu1GsRVu8DM3uQm07pWakc0kEYDwAa3yMAg2IQjMw25/YcBRBctLcUCl508Va6/ftfp8jocKbL8EEhJHDkwHH62Y/3cQEkUNAyF321x8mJ8GOfuJLj/oFaJoS85r13jtKTjz7HqUBICcIKzlakKCd9/A6TH1Z8EpzgZw89sDKLINgDURPgxls+y5kLrD1AihwRr66RHw6hJO55oWkQpMgMDrOoLI+FhWhTe3MHNdS20JJWL8DZISFXSKFhyGyIENkpbkRTU2doaGiYHYJwruvDIOQX5XBIA4wUJtlDB45zFoLeSYIVCY8Kp50XbyEfHyHyQ1wdwjvBkrh+wJmmpCZp7MsirwRPdfbyffXhFJnm6CpAsHWWYGfQb6EhwaztgI6irrqRK5A6K5iDE4XgEjoUMH8Y37h/QIA/3wuCYuxrwQWwNPAxPzvP4lVktcj+lEyEFGliJRwSFsIhQxTb8g/w5fHAQuXFJc4kmjo9xSmDCDni/vIeq4F2aFxQm2N5aZkGh8eo/1QvgzHMLeER4RQbF8XMEsTS0JWcOFbNdnG0urcdBSsBhKa6NvL29aa8wixuDxiypgaEeTpWBZrW7EGY0B6g2NoyUV9vP3W0naKk5ARmbhRAcP2b3KgrFUBw0rJm6lMrOIPiQf/0L19iR8yyLdMyK3yf+d0L9OivnxUTl6wb4OBZ8t5Qb6emJ7IADk4Lh7uHG02MjlNbSxdPUHievRCDZAu6WrvZgcQkRHNaEJw5nERleQ2nGLY2W7MIctUMx5KRm0G36dgDTstcMlFTVQNFJcSw48HzLySAIJ0zVi7ZeZmUlZ3KSx6I0GorG6m7q8cqhm50WFjoZCArji9ZyihzPqru39pq0dUQA0Amcsa37yyl6JgoZjuQB15+uIIWUN1Pe2k4BYDBjJw0KtlSYE7BhPocK25nnYYti2D+N49NSbfIp4uV9VpDDLb2l6EVhBngUNBYFKhCcaihgREtZdZY1XipsUFV0KIt+SyWY+imK/8t60bI90BXgiE5evAEDQ+OmsuX4/e4H77P0NAQ1qFEx0byNyfsLCs9WFrEmpeZMzTYP8QraJRal+Ehe30DJmjXpds47ChEyz104uhJXkBgNZ6YnEB+fj6CoHRz4+ySIwdO0MyMADLOHPYAAsSgNZWNnJVTur2IQkODyASgAi1CVQPPS7I0vN2y8CYwQJ6UpWkPwKpgHxGAu4HBESooyKH4JAUQnOmnc3WuAgguWFquniOjwujLX/s8ffzaD/NdZOZCS2M7/f+fPkJH3jvB5Wz1St3VHqdnGXiywp4ActKXxW40gZcIBSydxSBIIPDuG4d4xbj78osoLiHanFnBLML9j9ELz/6NVwFygjO/1zLRTbdeT9fJzAVN3Y4c9t/t/wNd9eFLOBaMVeSFBBDQPvRDUFAgFWtiNKxCR0fHOO8a6Wz6gj7ODgv9KlDwLSIdUv9zVxkEM3hbWqKo2Cjasq1IS2/0oKqT9dRS32rF7+J8tHX7rjKuDImxhDTGo4cqaHhoZNWNnBy1WzJU5pCZdoHt/gzrDRCE4/KkzOxUyinI5PDG9MwZaqhp4iqWTvpBpt9BaxcU57B+RKQXe4jsHa2CJsaH3I8ADhA2PHGkkoaHkfooN68S4CAmPpZy89KZcWMd0rKomYCQwqJWmwKOEZoRvLt8BgSmDbXNNNg/rGW8nK0ZwHvtuLiMBZToV2ZOKutZy5KUmqCFiwQ2BTJDBcpjByu0LI+1AwSAmZqTddTXO0jZBdmUnZPKbQBj1NzYwcXBsL+ILRjRL6YiIkOpoDSPbY5jaGCY0yWhZygpLVAAwdGHd55+rwCCi4aHc0xJTaBv3v4V2nHxNv4wRY2CZTp2uJLu+f4D1HOqz6z2NvIY/Wp0tQlPhjfsMggaU/DqS2/RSy+8QZ/53Mc5Xx7FaGTZYFRDu/fH+6gVBU+0B8lVVXJqIldNLC7LFyzBsomByJuvvke/f/x5+pfvfIWKSvK4rRcaQEDfII5atq2InQLahbLBlRW1XPLYqLreXl/KydC23wRAEBs4uQoQ5PPwvlm5GZRXlEVenl689wVWtFiJ6idnLqTk4U6XXLGT24vfYbV99D2sKp2nnW3bu5J2Qf/z9QcIAgPBISL7BOV22UE1tFEzOyjHYjl9OwQjEchpySh8hbAaUhyDgwN53Mu4O0CBPODowdjoqXu0OTYxjgqLspneBziETgT1S/p7B2l8YpKZBxwBAb4sskS6KEqWg1KH+4ZDr6tqYgEp7mdrXwCE7bvLKD4hhkEEzkMGAZgwjAk8D6WQEcqanZvnbJaWxlaL9snI5COBnlZqWRZKYg3C1DQ781PdfcxiFJbkERZHGGeoi1BT2UDjK+h3zNqDnHRKz0nlcYssFNSy6Gjp4hBJsQIITvTQuT1VAQQX7Y2POCcvg751x61UWJJrrtvOzvS1g3T39x8wx0ZdfMSql7FDt1MoycwgvH6QHn7gt7R7dxntuek6DgvgGvxBXQRmEZDRMIsqcai7ILakvuEfPkXXf+lapl1lbjwElz+/+z+ptrqRfvjvt3F7uQ7/BVZJEX2Gybl0a6GofbC4xCV8q0/WcW13Z+lYZ/t1LQBBgEJ3rmeAuLmnlwdXJgRAODNjna7IoQhvL/q7/7Gb4+wAc6hZj7LbtpUWnW2D0fPXGyCIxfEyxcRFcznk4KBAdoztrV3sbOC8jfafeWUrI0CavUq2FVqlOaK+AwomiftatsKWz4GdUWGybHsR6w3Erqkm6u7so9bGVr5WbKMtDg5FoPZJaDAzIRBEgonD0d83xOESWXdBDxKsAMLiEgNDvBGADAS22LRodHSC5mfnzNvK806jfKwtiwHvC8Ej3g0LHq48mpbMhY7AiMzNz1Nbcyc1N7by96TXoIg+Q+ZCGPdZZCQys0wMyutqmmh87DSXpi8uzlcMgtEP6xyfpwCCCwaXE31JWT7dfufXKTkjybyCwarmr39+k+67a59WStY5is/o6zgGCIdo/76naHZ2nv752zdzTXwvreQtrgWLABElyqZiEsBkm5SSQHf84BvMHrAaXSuq88YrB+iX9z1Ky27udNd9t3OI4cIECERx8dFUur2Q/Pz8OE6P9iMW6oyi32gf2Z7nCkCQ4QU4I+wEin5EmASOBbUAaqvqxN4RuswLuQ/G5Vfu4gkdK1U40uqK2nO2E+FGAAQ436hoIVQMCwcDJIqI1dU0sljTGQbIltnhNMetBYbrIMjQEcozZ4ByhxiYiCtT1lc3MQOx2vsAoOYV5fB4FPtZLHFWBtgQeW85fmwBgvx5b08/1Vc3c4ls643YrBkro8BJgjC0Rc8gACBUV9QxQMDvQkJDeJGAXUnBSiLVFAAC2gzoniQoAXsAhgB7f3Dmgrc3721RX93IoAbbiGPn1OISBRBcnVM2+joFEFywsFwUlG0poO/cuZeS0i0AAYj65T+9Qffd9TCndrmSo23klYwAhAfve5TaWrt4f4h/+PJnCLnkcrIA2n/w548yiyDK7C7R9V/8JN1w03UcJ+Tz3ES6JtiDt18/yLtS3nXfHRcsQIBdUYQKK0VUPUS7WxvbeQXq7ErLSB+tJ0BAf4FeB3hDVgL65tiRKurt6hHrRF0lQwAElGK++LIdLJZjgNDSSVUVdS6lvrna1vXMYsA7CIAQQUVl+esMEJwvlIT+wD4V2y4qpeCQYGZ0UCH1xJEqTvsUO2afXV1ShqDwu8iYKCrdUmDOVsK3Vn74JIeB9POGLUDAPU6fnqYj7x1ncKDfjVPfV3rQaLQP7YkUbQECnpeKOiL5mcwizC/M8x4Z0F5h7Mm0D7AFMbHRVFCi6TyQ7dLVw+EUCK1x+Pr5KYBgtHPOw3kKILhgdD2DcMedX6OkjGTBILhjV70FeuXFt+hnP3qIqcDzCRD+49791N7aTQlJcfSt795Kuy/dxs5CTlxVx2vpZz9+iDMaIH677Xv/xMI2KI6ZPTCZ6I2/HeAto7EZEEqk3v3z/8PCrguRQUCbEGcu1QAClNSoCQGR2PsVIAjnL6jivIIcysxJ5Vr2EHcdfPsonT5tqdQohzLoZdDYl1x+kRkgiJLINVY0sAtD3/AlG8cgrA9AsHakzgMEpCxmZqex8/P08OSMEij6oYmwpyOw57ihC8IeJ2kZSexUAViPH62kgb5BK/bBFiBgTqmtaab6qgZRjdDJuh2rdaIjgABAgPGFkAq0IMjYwNjUswhyB1u5fTYyOzDvQBsB9qC7q89cqlwBBMOf1Hk5UQEEF80OyhfCpDvu3EtpuRk8KeDDwMSBPRN+fOf9nPOMiWMjDiMMAgCCoPKW6NrPfoxuvOV6Li1sjqEumVin8OxTf6YPXX053XTL9bxBjmQP8NEjVHLgzSNcZOdCBwiYSGPjo1ikiBADx7BbOnlifz+GGOTEj3fz8fWlrTuKKDIqgpXwPaf66fiRSg6T2FLIGJvIx7/8ql3MlHh4utOp7n6ugQDdirOKf1fG70YBBIzPQjAIYcEcYuho76a66iYuRuVMiGGtAAHtA5ORnpnM9gejcPTQSd4PA8dqtL65X1GmPQ2sUAGH/9DPddUAGe1W5dBtAQKA+4F3jtHo4LBIrz7HAAGLIcEipLAWARudYX5oa2rnCouYAwEaYmKjKF9miTB70Et1VY3MHvACw2RSDIIrH9c5vEYBBBeNjfQnxNX+9x23cK17CRAg3Hvv3XK65wf/QSMDwxrCN5af7cyrGAYI3X08gaAIzG137qVdl2zlj1syHhVHq+ixX/0XffYLn6Idu0qFaEpjD9585QA9eO9+Ghoc5VgjQg9333/hMghM60ZFMIOA6m2Y1JEyVn2ilkGUM7FaZ/pKnuusBkHGyTHWIuOiaOv2IvL382MHX13ZQK2NbXbL1wEggAW67Mpd3E65HTQAwizH6jdGF2O7Sl7vEAPsBwYI8e/AwABeyaKuQz2KXC2tvH+Go76CnZ3ZiwH2BfDfsauMYuKjRdbD1DQdfOeYTtTo6KkiBIEiR9suKiH/ANGv7W3dVFVRa7XbpS1AAPP15qsHmEVa7740wiDgHIgvQ+V+JrFRWl2KMc5oGOwf4TTcnPxMSklL1LEHTVxvxKKrUQDB8Sg5v2cogOCC/TmHeclEsQnR9I3bbqZLrxRllsEg4P9Q+9971z6qOlHLKzgjVRQFlSyU0hbV9Nm112V8T6xazt7u2ZLFcIiYQegWwiI4hk/vuZpuvPV6Rvac0cDpbxOM/DNz0ikoJJCzHLgIzcg4twHsAVYESHf8IACEoOAgLh4UExdJiwtLXNGu6kQNi6dcXYHKvrMHMGTf85hxsZIi+hT9gyp2AHBgAQ6+W04jqGlgZ+MjyYZs372FU+PwbMSqDx84Yd6a2YVhz5fINqzU1vUstWy7ysczEfsGLQ/BG5dbrm2m1uZObdXuWqtcAQgA2bsu3crZPqDPkap45N3j2urYGACDLZHuuGPXFlHN0d2Nujt7qeJYlVXtFOs0xyUGI2+/epBrLJwvgMBjzN2NK2piXKIqKUSH2PAMmh5mekrzOPUTYkUAAxZv4jvTyplDo6BCDK6N2XN1lQIILloagz44JJA+f9N1dMNNnzY7XPwc8frH9j1FL/zhFVEbXZfqtNLjhBIdoibimCZqq/PPtFJJ7GBMJq6YJx3AqoWSXrcGCNBDoPred77/Na6LgGfI0nt6ep2rJppM9PrfDtAvf7afhoagTHbj8tFIU7qQGQQur+vvx7FTFBBCvyBfHQptFKoR8Vzn2R650tdK1djtYlcBAq/oPD05LMLpjZ4eXAIYRbhQ6GolB4HwSUFxHuUVZPI4wr+xZ0PfqT4zCHR26EtwYH9bIJEKqE9zW08GAXZA/Bv7XWTmpLHyf3JqigVvvWjTGuIm6wEQIDA8dqiCw4rOvArqImzbWcqOFI7TEUDA/DI2NkbvvXn0PAMEkcKIjBpokuKT4ng6GRkZY7FiZEQYZ0Jg7gAoQKYQUm1F+EWMPBVicPYLPPfnK4Dgos15wvL0pCs/cgnd9r29XCedKyZqm+KAnr//nl/xVrzMLDhxZOWk05YdReTn72deSWCl2N3Rw5PQ2NgEhwlWr4NgAQgo1YoD8epr93yMbvyqpjXAHgvYU8GmBgDq+v/0Rw/RgbeOMA2PL/9CBwjSucEWqelJVKhtQgUn21jbQu2tlqJRTnSVlmIoHCNi/bzds0bhY2Mf5OeLSpqWUsTOlFqWgrCtF5VwuMDTw4Nr4NdVNdgFnhLsod4BShJvxaZKHh78TshXRzqaEcBqzwYSCGGCR8lqM1vAlRrlngIbV2oZNQdQjQ/1A/CdDaFIz8n6damC6WyIAf0AoB0ZHcHAEt/5oXfLeXdCo6t6ZhDCgjlUgT0g3NyJujp6eWdMAAF52IYYJiYmzjtAkGwSRjXAdkFJrsgMmp2nyckpZniQlisrP2KTLogULQyoAgjOzDPn61wFENZgeXzEyPG97bt7qaA0lz9qLrdsWub87F89+AQBKPAOgQaeI3Pd93zpU3T9Fz7JcUmBuMUufX9+7lV65MEnuISypJptN2uyF2JwcwdAEKVfkUd++799nS7ajeqK2kZO2rvhY8a7v/63dzk8IfKahWO70AGCND+L52IiRLEkTGBLS1xClsu+YgLTiuI4vSJdJhaAImMEm9rgGBwYpe7OU1zAxlUGAQAtJT2Rikrz2Smjj06U11APYrm8dwAKKJ1NaaOvMWHvvnQ7OyE8f2LsNKvkUcDH1QNjFOMSNL+Xjxc7alQWrK9tplldTHwjRIpgUFDFD84UjAhSeJGBIkoZCxs4s3q3jAnnNAiSZIKWBZVH8X3Pzs7S4XePc8VKo2MH33RMXAyVIavGF6mry7z6xjbh+oboAQKuQTrl+WYQJEBgFiEYLEIuJSTGihAUUjwBcNyIJienWZjYe6pfY1ktI08xCK5+hefuOgUQ1mBrOGNQg5/5/Cfoxq/uYfpXAgSoeo8crKBfP/gUtTa1Wkoa897tNtoCseUNU7/bd5XSzXtv4AlY7uEgabr9Dz9Nf/yvF7mkKhc3WrWSonWIAatGTFwoKQwtwk23fk5oEWyci2APfkkH3jrK7IF8U9Py+oYY7rvnV+bS1GvoAqcvxQQLhT92RISACu3DJjQNNc3U2XHKfD+jkzwugNP08fbiVVRKepIoUW0ycSwWhW8WtUwDVzUIAAdgPeCIJiYmqfxQBefBO3KGKL5TUFJA2Tlp3C60HRXvUJBHVNoz5lSlQ5T7DyQkxzPAFMcyh2cQ8gBrsd4hBmkzVISE6A2rVRFemOaYdk93r2GHvNJgcTbEgPsAoOQV5lBuQQa5uwmGruJ4DXW1dxvOiMH3nleUzVUVUeoZfYLqjZ3t3SumOb6fAIIECZiLUtISKK8wmwtzyY2n8G0hvRbfwfws9n2xHm8KIDg9fZ3zCxRAcNHk+rgz0DNqCGTlpltYhOVlmp2epffePkZPPP4cdbR20sI8ioiI2J1lEyZR9QyMQFZOBn3h5uvosit3WuLE2okocrPvgcfpZHmNebtlZwCC3MoYTj80PIS3qN59+Q6mrM0rKSJ6/a/v0IP37eed2vQCuHVlEJ55ie7/90dY8eYc3W0d53a262SfYcUdGx9DRaW5XIoYExpK1mLHOqzOLOBA9M1qBzswrATjo3gVhdUUrgflDFYCzlMv3INDNRpiwPuCBUAxnvDIUA5fdHWcYidiL73R9j0xAYdEhNH2HcUcK8b8jHgwxLMD/UPa6cbaKMEB7LVlRzFFRUWwk4R4Fbthtja38/uZxxKYmugIUcETwsqlJa78CKrZiBjUkuJJXMsBwAt1B3x8vLg+B3Y0BGsBx+MMmLPXl84DBJQ5X2DGCPoBCPTAxmFr95PHqlk8icPRe2F7ZmRAoRQxhhn65tjhkzwG9TZ6PzMIGBdyEzRUWAWDJoXWpyehEWmkvh7BHtgbn0qk6Owsdm7PVwBhDfYWwkITBfj70zX/88N041f2cCaA3JseE8/83ALToC+/+BbHS/Hxz80u8MSKjwYrT+wAl1OQRVd/8krasr1Y7CqIZALto8LE8eRjf6Snf/cnrouO1QZ+5YxIUTpiySJc/Ymr6B/33sClXpFP7ubhxvvUo2rie+8c5Y1e5CZDMNF6AoQXn3uFHvjpI+btsY10AWwtBJQCMTly3CuvFsVv4GgA6OB0OCNkyUR9fQPUVNfKwkX9BG+9grY8Wwoag0OCKLcgi1PwZDgImgZoGxCTlSyNUQZBAhmIUqPiULehkMcYDtRsQNaJwCWO6+zjnIysNMorzCRPTy9+F6StYkyODo+epT+R97TNrcfPUYshIyedcnLTxPbhbsR7ABw5eIJmufofctuxK6Lr2z3rRaK4HwASqOv07FQOLWAMgMavr2k+q6CQkXG0VoBgad8yeXqJrbeRQgx2B98jQGFXRzePJxlWsreBF8BUVk4ab8kNwTDmAxQQgmAW2Un64/0KEPRgEG1EP6Hugb+/P7e/s/MUj7M5LfRkO6bWi0HQUmuc6n7Zj05dtAlPVgBhHTqdY4mxkfSlL3+GPvrxK8nHz9e89TNPuOTGNDaK8iBuOoKNVeYWyMsLdc2DKC0lkdKz0zhWLDyTpjswAWDM0+ED5bR/3++psb6VVyrSeTnDIAAgSEeHuHt4RChdu+dq/qjnz8yTB4rvdPfSX55/jUZGzo6jrgdAkA6+sryaXv7ru+TuBtsYOyZPTzOFixCIo5WZozvKjBHYAKv+qGixBS0mtcGBYd6fAU4I9l05q8GNnQLAQUZ2KoMDUY/fjUVzSHUdHhyxolWNAgTzxGta5vTG3AKUtPXkVFUU4xkdHtOCUiu3VO+ofXy9WWmemBRvTsVFBUbEu7ET5Pw82mlasa3Y2heC2eSMZMrKTmGKn8Hv/DzVVDVSR2vXWQXBnNUgWECY2DgM2T/BYaGUkBRLsbGRzCIAFEEEiGI8KNkLYCsPVwEjrneeQRBPxXjG/iWoy8Asgoc7x9xrq1ALYEgD2dZ9hLGLtsUlxHJGBuuMlolDJieP13Lqqu038X4GCLLfMH78/H0pKSWRwsNDuCokinOJb8A+kF0rQEBdD2z8JEO2K3+rlj4Qc4dgIvULIEdzxmb9vQIIa+x5/QeSlZlCN9+yh7ZcvJULuUg9gjlVUcbgdHF/vVpZnicZiIUzs1R3soF+s/9ZOnKkSntTMbAxiToLEMRkKG6DDxpMhIfuXeBUpFbB9qNeD4AgV6dSW+GM6eG0f/TdXzBFzbXnDck+7T9BTiSYLJCvjdU/wALbRXNCEIIidQ0OCVX6ZFwVfQqQBlFZWEQYJSbFUmhYKPc1/kxPn6HGuhbhwLQd9fRxeaMhBt6R0cebtmwvYtU+MiQgpmQKm3fgdHxIkAB7BwYHUXFpPkXFhJOHuztvqoOUvL7efhoZHGPlOTY84nfWhGYAPIgpA7hiDwuU48a1sD1KimMnTLQVfxesgf00R/QXxg9S+ACSudaGzcFZIF4e5OPtzeJRZCzAvoGBgjlBG5D/D4ANAbA+xLIWcOAKQLCwLGBL3Dn2npaZzONSjIEZfkeABCwMZD/gXIRo4hJjKDExjnz9fbltsDuqJ7a3dpiZB7159AABdhgfG39fiBTlO1qnv2qiWTB+Iv62otZlLQABtVlqK+tpcEAAEMOU4jIxeEF4zAgD5/gr+2CfoQDCOvSvOXV+2UQpaUm054ufoEuv2MlFVHDAecgMAf63VqQIA1TvrEQBEeHBJyemqPZENT375It0+EiVrIYg7qcxDK4ABDHZWmhga0pXTNz2PhxbgCDTI9Gu1/7yNv3khw+KFZM298sdBZ97ZT+vsnFPOFkj8Wd7XdLW2kn/77v3U0PN2gGCaKOAAxIkILc+LDyMN91x1zwOJhI4/JlpgIR5vgY1CbACxIo6MMjfvIsfNB7SgXV39rAw0XaFYo9BQPgI2zAP9A9rzRbvxOmNEWEMEJArD7s1NbQyZctgxSD1oqfEg8NDKTs7levne3t58z3QVm7n1AxvEiTaKcYHUv+wHW9ggL85gwIDcW5ujp29AAdCMGs7ZvQMgigHvMzleJFWag/b4R4oIY3UYaTIcViGK3ousfgRWwN3tp2i/t4B846UawUGFgfnXBaD5RsRuzAiDAImKi4hmms1ACTguzh9eoomxifozOw8eXkIUBkUEsTjRoIkbO6GnTZRYAi2lKtbPUv2fk1ztAUIMqRimdN4tjLPWbbf9VoAAsY1QoGo72L04DnItExdbd3U1zugAIIBwymAYMBIRk4x0/emJYqJiaSPXXMlXXrVTopPjOOCSvZWTfbuiwkUKw+owv/y/KvU2tKlnWb9oeFjNAOEO26hqz5yKU+oPFG7u9G7NoWS9GJA21ig/j1W+p0ECD/5xXdZeS0XBnBWr/7lrRUBwp9e/w1XiZM1IozY0t45mER/fOcvuODKWhkEvWOQf8eOfMnpibxa9/PzYRodgE3spSFWx1YrZKSEahMOJnbsW4FV49DAMDt32NE2/czMqjYAAAk2SURBVFAPEDKyUsjbx4sQOgFAECshC/hDPDs5LZFDA9g3Aqt0pCiiCJekgYyGWvTMDe4FWjw+OZZZLohU4ZzRViE4EwDVIqwEsMPEamLHjG2Mu9p7uDIewAScl2CjrBGLBAg7sUGYVjmPAYmdyo/6/sbzcT+Ee8DcgLIfHhhhKhl/F6BOvOt6HTLEULq1gPsfmwxhw6STx2uYQVrJzsKuFpCQkZVKCclx5OvjI2pPsE3F2JE2xV8xPvAf6gKg1HdHS9eK4ICv8/CgnZdspdi4KA6rTEycpgNvHN7QQklpGalUWIJN2dxY91RT0UDd3T0MgOxR+XrAbQ0cVl7cS4BQUpbPRcDAzGEL66oTdTQ1OWU1VnBuWkYK7yQLVgvMK8YSM3eGBoP4fnGf+pomaqpvpWV9eZL1GkwfsPsogLCOHaqP8SNmnJ2XTrsu2Ub5JbkUGSnoUqw8sQLFDIdyzVB3w8EAGAwPjbMa/OjBCqosr+EVCFas8rD9DjCJQsNww42fZrGUWBSLFSjKtT7zuz+JbARtBbeWpuLDCg0NoW/8683Mkshn4efYdva3v35WbNKiTdyYACFW+vm+H1hWn2t4ATiIR3/1NLU1tjtdeGqlx+qpUTglLx9vLieNOgkQjiKmyoWPABa0UAzodUw0mKixIoYDGeofov6+Ia4HIA7hFFYCCGmZqZSUEsfjYGZ6VggGR8bNAAF/gYPJR8XHlHi2H0piHz+M9MYpgxOidav1IAETa1BoCCUkxHBGi7+/L4MVaA0wLoVTE0W/AAxRkhpAZnx0nDUa0FhIALQSTYvfIxZdsq2A7+soWwX3WVw0cXYAwgeg6cfGTtP42ATXpxD2BFhzLMx0dpjh3nB8uflZFKmFYIZHxliwihDBag5IDxIAtmLiY3hb9dDQIPLy9ubsJCnaFBocE4d2JsYmWN0/NDSm22HTftvQbmxRDntyWu7kDBdMQ1VVo0WZjNpE2jkhKZ5rvGDOAZBBOWuwNyttLW30/tZg0MTC15y8dBZ6ws5D/cOsMZmZsS59DrslJsdTWkYyQVNjZm2dfDDah4Jh3R2nzDUbnLzFpjpdAYR17m65AucJb2GRUXFkdCQlJ8dTfEI072cP54OPfmF+nuPJ4xOTNDw0Su1tp3jvhNnpGW1iEeWW2eXYWTHhGbg/9lwPDQtiRMwbyXiKNDvE0ZFaaVvrwJUm41mYHPCR+gf48qpS7D/hRhPjk0zZ4SO2xNuxoY0HZWalkae3By0uWARlrjwfq1VkGcAJr+cKUr/ykSsMvDdixcHBgQLQ+XizoBSdwCvphSWuJzE1NSNi9zOzmrB0dQcmn+Ub4E/+vj48uWOSB70vi/3IdEKkwJVtL2JtBOprgJ1AFgzCAcZWTGdbWe/M0Q6ZJRCAMEKQaCs0Bu6e2OfDxKEMhB0QI8deA2izxVGvnEUh24lQAdgzIwfG7dzCItthCf9HCqU2niTrIFaujtMyjTxPf45sE2qaMHhH1dFFE4M/ZBQ4WqBaQAIKjZm4UBbGDmwaEBBAXj4etLQodBtzs7M0MTFFU6cnOXTCq2CNZVitXwNDgskHY1ALjwmQtjFgCWynj5+PWf8hmKMzPF+5Ovbs9Ymcv5CdIu2OipwI1ennEtHmZfIL8OcwjV435Upfoy0Y06sxqc7e94N6vgIIG9CzlolMrMRAFyNzAMIw0I6gZZl2ZVGg/L1INRSlekVMd7UJ0YKgAUSWOBaqP3APzkvXpUu62lT9s7C6s6UY4VBldoXlGUIpDMe+HgcmJhaBaRS1o0nbmWfagjAJFAQwg0OyprRZT4KLoI1Cn0p2YZUJ25atkEJNqUfBM+TqGL+LiY+l4rI8jv/j39jSGAI/fvaa0jyFU5EaEtlW0UYhfpVOSIxB0VbpyGQq42oreTluxb2tx6W9fpEbhFnsLZTm+j5eDSg709e25+rHNgCRXlCsL5HuyDHafvNSJyLtJm0q5gHrMbUyC2OplgI78nn4Y6bV11YXxL7T5jc1z03cJ+ZnijEq+2nd7K6FleSzpN314RnByolKr2sRKEuBt/57W0s7PujXKoCwgT2sR6j6lbWtgzVPIlrhIKOTof48exOY0V0kjZhATmIrTZT2EL90REbu7+gcabNzi/rFBGxx7vItz17FGlnN2farfgK0+t0y8Q55SH1FqAoUe/mRSs6qsKvwc2Q8B7+X72E7Li2OQKaFiRsZa6sFiBh5PXvPNvodGLn/aufY+44kQHcEDPT3tWcX/dg5W6dhjAGw9+258n5G7SS/Mf37bsTznLG7o/nHaNvk+DUyhp255wf1XAUQzlHPGhmQ59b5naOGX6CPMeKcNqK/ME5AzQMgIBzl7ulBYyMTVF1ZR7O8U+A6qvOc6Bsj49eJ233gT13NXhsxbj7wBlUNPC8WUADhvJhdPVRZwL4F4FggmENqKNgDDw9Pmp45Q6fHJ8y7Qp4njKC6TFlAWWCTWUABhE3W4aq5718LWMXDpc5B00Ho0wPPF4vw/rWcejNlAWWBjbCAAggbYVV1T2UBFy2gF6ba6lYUMHDRqOoyZQFlAZcsoACCS2ZTFykLbIwFVopPq7j1xthb3VVZQFlgZQsogKBGh7KAsoCygLKAsoCywFkWUABBDQplAWUBZQFlAWUBZQEFENQYUBZQFlAWUBZQFlAWcGwBxSA4tpE6Q1lAWUBZQFlAWWDTWUABhE3X5arBygLKAsoCygLKAo4toACCYxupM5QFlAWUBZQFlAU2nQUUQNh0Xa4arCygLKAsoCygLODYAgogOLaROkNZQFlAWUBZQFlg01lAAYRN1+WqwcoCygLKAsoCygKOLaAAgmMbqTOUBZQFlAWUBZQFNp0FFEDYdF2uGqwsoCygLKAsoCzg2AIKIDi2kTpDWUBZQFlAWUBZYNNZQAGETdflqsHKAsoCygLKAsoCji2gAIJjG6kzlAWUBZQFlAWUBTadBRRA2HRdrhqsLKAsoCygLKAs4NgCCiA4tpE6Q1lAWUBZQFlAWWDTWUABhE3X5arBygLKAsoCygLKAo4toACCYxupM5QFlAWUBZQFlAU2nQUUQNh0Xa4arCygLKAsoCygLODYAgogOLaROkNZQFlAWUBZQFlg01lAAYRN1+WqwcoCygLKAsoCygKOLfDfVzL0rVCR1jEAAAAASUVORK5CYII=;" vertex="1" parent="1">
          <mxGeometry x="440" y="362" width="40" height="25.85" as="geometry" />
        </mxCell>
      </root>
    </mxGraphModel>
  </diagram>
</mxfile>
